<?xml version="1.0" encoding="UTF-8"?> <svg xmlns="http://www.w3.org/2000/svg" viewBox="0 0 452.95 320.9"><defs><style>.d{fill:#005386;}.e{fill:#fff;}.f{fill:#ffd024;}.g{fill:#a0def9;}.h{fill:#d2ecfc;}.i{fill:#a1c5e2;}</style></defs><g id="a"></g><g id="b"><g id="c"><g><path class="e" d="M400.08,320.24s119.95-193.41-1.49-274.82c-49.76-33.35-120.31,21.86-189.51-20.02C188.32,12.83,123.11-14.3,72.95,9.38-1.02,44.3-43.16,208.23,68.25,319.47l331.83,.77Z"></path><path class="d" d="M36.77,320.9H414.36c.22,0,.4-.18,.4-.4s-.18-.4-.4-.4H36.77c-.22,0-.4,.18-.4,.4s.18,.4,.4,.4Z"></path><g><rect class="g" x="358.35" y="75.85" width="26.14" height="180.74"></rect><path d="M384.81,131.21v-19.41l.05-.15-.05-.03v-19.08l.07-.23-.07-.05v-16.73h-26.79v16.89l-.05,.15,.05,.03v19.14l-.05,.15,.05,.04v19.41l-.05,.15,.05,.03v18.18l-.05,.13,.05,.05v23.26l-.05,.14,.05,.04v83.58h26.79v-125.52l.05-.15-.05-.04Zm-.64-.48l-24.85-18.63h24.85v18.63Zm0-19.59l-24.84-18.37h24.84v18.37Zm0-19.34l-22.11-15.63h22.11v15.63Zm-23.22-15.63l22.55,15.94h-24.83v-15.94h2.28Zm22.57,35.28h-24.84v-18.37l24.84,18.37Zm.01,19.6h-24.85v-18.63l24.85,18.63Zm.65,.64v17.87l-24.82-17.87h24.82Zm-1.28,17.74h-24.22v-17.43l24.22,17.43Zm-24.22,1.09l22.44,22.07-22.44,.25v-22.33Zm0,23.33l23.5,18.93h-23.5v-18.93Zm0,82.42v-62.84h24.64l.15-.44-24.21-19.5,22.63-.26h.22l.16-.4-23.13-22.75h24.98l.05-.16v106.35h-25.5Z"></path><path d="M145.52,146.68c-2.9,0-5.26-2.36-5.26-5.26,0-.18,.14-.32,.32-.32s.32,.14,.32,.32c0,2.55,2.07,4.62,4.62,4.62s4.62-2.07,4.62-4.62-2.07-4.62-4.62-4.62h-.32v-5.73c0-.18,.14-.32,.32-.32s.32,.14,.32,.32v5.1c2.75,.17,4.94,2.46,4.94,5.25s-2.36,5.26-5.26,5.26Z"></path><path d="M135.69,115.87c-.18,0-.32-.14-.32-.32v-23.41c0-.18,.14-.32,.32-.32s.32,.14,.32,.32v23.41c0,.18-.14,.32-.32,.32Z"></path><path d="M154.98,115.87c-.18,0-.32-.14-.32-.32v-23.41c0-.18,.14-.32,.32-.32s.32,.14,.32,.32v23.41c0,.18-.14,.32-.32,.32Z"></path><polygon class="g" points="364.53 78.04 189.17 78.04 214.76 57.85 364.53 57.85 364.53 78.04"></polygon><path d="M214.65,57.53l-26.4,20.84h176.61v-20.84H214.65Zm99.54,.64h18.09l-18.09,19.06v-19.06Zm-18.87,0h17.8l-17.8,19.06v-19.06Zm-19.71,0h18.62l-18.62,19.08v-19.08Zm-19.98,0h18.89l-18.89,19.09v-19.09Zm-20.16,0h19.06l-19.06,19.09v-19.09Zm-20.52,0h19.41l-19.41,19.1v-19.1Zm19.88,.45v19.1h-19.41l19.41-19.1Zm20.16,.01v19.09h-19.06l19.06-19.09Zm19.98,0v19.09h-18.89l18.89-19.09Zm19.71,0v19.08h-18.62l18.62-19.08Zm18.87,.03v19.06h-17.8l17.8-19.06Zm19.16,0v19.06h-18.09l18.09-19.06Zm.64-.49h19.53l-19.53,19.1v-19.1Zm-119.04,.45v19.1h-24.21l24.21-19.1Zm149.9,19.1h-30.4l19.98-19.55h10.41v19.55Z"></path><polygon class="d" points="382.91 52.69 373.26 8.44 362.02 52.69 353.26 52.69 353.26 80.19 391.55 80.19 391.55 52.69 382.91 52.69"></polygon><polygon class="d" points="156.27 126.01 145.52 132.45 134.77 126.01 134.77 114.72 156.27 114.72 156.27 126.01"></polygon><path d="M298.13,114.44c-.18,0-.32-.14-.32-.32v-22.54c0-.18,.14-.32,.32-.32s.32,.14,.32,.32v22.54c0,.18-.14,.32-.32,.32Z"></path><path d="M256.73,108.35h-3.31v-9.58h3.31c.18,0,.32-.14,.32-.32s-.14-.32-.32-.32h-3.31v-6.55c0-.18-.14-.32-.32-.32s-.32,.14-.32,.32v6.55h-17.17v-6.55c0-.18-.14-.32-.32-.32s-.32,.14-.32,.32v6.55h-3.12c-.18,0-.32,.14-.32,.32s.14,.32,.32,.32h3.12v9.58h-3.12c-.18,0-.32,.14-.32,.32s.14,.32,.32,.32h3.12v5.12c0,.18,.14,.32,.32,.32s.32-.14,.32-.32v-5.12h17.17v5.12c0,.18,.14,.32,.32,.32s.32-.14,.32-.32v-5.12h3.31c.18,0,.32-.14,.32-.32s-.14-.32-.32-.32Zm-21.12,0v-9.58h17.17v9.58h-17.17Z"></path><path class="d" d="M220.16,114.12v157.1h104.03V114.12h-104.03Zm29.99,31.6h-14.39v-18.99h14.39v18.99Zm44.11,38.67h-14.39v-18.99h14.39v18.99Zm0-38.98h-14.39v-18.99h14.39v18.99Z"></path><path d="M171.74,176.14h-17.75v-8.49h17.37c.18,0,.32-.14,.32-.32s-.14-.32-.32-.32h-17.37v-14.32c0-.18-.14-.32-.32-.32s-.32,.14-.32,.32v14.32h-14.38v-14.32c0-.18-.14-.32-.32-.32s-.32,.14-.32,.32v14.32h-5.31c-.18,0-.32,.14-.32,.32s.14,.32,.32,.32h5.31v8.49h-4.93c-.18,0-.32,.14-.32,.32s.14,.32,.32,.32h4.93v5.19c0,.18,.14,.32,.32,.32s.32-.14,.32-.32v-5.19h14.38v5.19c0,.18,.14,.32,.32,.32s.32-.14,.32-.32v-5.19h17.75c.18,0,.32-.14,.32-.32s-.14-.32-.32-.32Zm-32.78,0v-8.49h14.38v8.49h-14.38Z"></path><path class="d" d="M193.2,182.02v121.87c-4.6,.71-10.85,1.51-18.21,2.07h-.09c-9.15,.7-20.22,.87-31.84,.15-2.11-.13-4.08-.38-6.23-.58-8.41-.79-17.06-2.82-25.68-5v-118.52h82.05Z"></path><path d="M82.25,235.31l-.57-.47V120.58c0-.18-.14-.32-.32-.32s-.32,.14-.32,.32v59.21H33.59c-.18,0-.32,.14-.32,.32s.14,.32,.32,.32h46.87l-32.33,26.7-22.2-18.33c-.14-.11-.34-.09-.45,.04-.11,.14-.09,.34,.04,.45l22.1,18.25-16.95,14c-.14,.11-.16,.32-.04,.45,.06,.08,.16,.12,.25,.12,.07,0,.14-.02,.2-.07l17.05-14.08,32.33,26.7H32.85c-.18,0-.32,.14-.32,.32s.14,.32,.32,.32h48.19v51.73c0,.18,.14,.32,.32,.32s.32-.14,.32-.32v-51.73h.57Zm-33.61-27.76l32.39-26.75v53.51l-32.39-26.75Z"></path><rect class="d" x="63.89" y="160.76" width="13.96" height="19.04"></rect><rect class="d" x="41.37" y="160.76" width="13.96" height="19.04"></rect><g><path class="f" d="M400.72,274.44l-2.71,3.39c-.65,1.02-1.42,2.07-2.29,2.95l.81,2.57-4.55,1.43-.59-1.87c-4.64,3.52-9.43,6.22-14.2,8.19h0s-.01,0-.02,0c-4.21,1.73-8.41,2.89-12.48,3.51-4.48,.69-8.81,1.26-13.01,1.72,.07,1.18,.11,2.4,.06,3.27,0,.05-.01,.08-.03,.12,.73,1.09,1.13,1.68,1.13,1.68,0,0,2.5,5.43-2.41,8.88-.28,.2-.56,.38-.82,.55,.15-4.53,.33-8.84,.54-12.83,.01-.19,.02-.38,.03-.56,.02-.32,.03-.63,.05-.94,.41-7.23,.92-13.32,1.58-17.64,.22-1.48,.46-2.75,.72-3.79,.49-1.97,.96-3.75,1.4-5.36h0c.02-.05,.03-.1,.04-.15,2-7.2,3.53-10.98,4.61-12.95,1.24-2.28,1.86-2.16,1.86-2.16l7.9,.08,16.16,.15,6.37,.06,2.41,.02s1.37,.82,3.09,4.12c.85,1.62,1.77,3.84,2.67,6.85,.47,1.61,.94,3.44,1.38,5.53,.07,.32,.13,.64,.2,.97h0c.07,.36,.14,.72,.21,1.09,.03,.18,.07,.37,.1,.55,.02,.1,.03,.2,.05,.3-.08,.09-.16,.17-.24,.26Z"></path><path d="M375.32,152.32s-5.19-.47-10.99,6.81c-5.8,7.28-4.74,27.9,13.81,25.5,5.43-.7-6.79,32.38-6.79,32.38l38.45,4.29s4.28-5.16,2.88-9.12c-.94-2.67-9.13-8.08-9.57-11.32-.3-2.21,2.7-7.94,1.26-10.56-2.63-4.79-20.05-3.54-15.99-6.96,9.27-7.81,5.81-32.58-13.06-31.02Z"></path><path class="e" d="M384.18,180.92s-.65,16.03-.04,16.88c2.09,2.89,8.3,5.43,9.72,5.81,1.42,.38-23.17,9.76-23.17,9.76l-11.8-5.78,4.55-4.1s3.82-1.92,5.5-3.66c1.68-1.74,2.5-18.05,2.5-18.05l12.74-.85Z"></path><path d="M370.68,213.71l-12.36-6.05,4.94-4.45,.04-.02s3.79-1.92,5.42-3.6c1.17-1.21,2.08-11.33,2.41-17.84v-.29l13.4-.89v.36c-.26,6.04-.5,15.91-.11,16.69,1.96,2.7,7.91,5.24,9.53,5.67,.21,.06,.29,.22,.3,.35,.02,.37,.04,.75-11.8,5.48-5.75,2.3-11.57,4.52-11.63,4.54l-.13,.05Zm-11.22-6.21l11.25,5.51c7.93-3.03,20.27-7.91,22.58-9.25-2.02-.69-7.42-3.05-9.41-5.78-.61-.84-.2-12.57-.04-16.72l-12.09,.81c-.14,2.64-.93,16.27-2.57,17.97-1.63,1.68-5.12,3.48-5.55,3.7l-4.16,3.76Z"></path><path class="e" d="M383.98,183.54c1.88-1.25,5.19-3.78,5.28-6.25,.09-2.47-2.73-2.18-3.59-1.79-.57,.26,.01-12.08,.01-12.08l-19.1-1.02s-2.83,10.61-2.15,17.42c.69,6.84,3.82,8.61,8.8,8.83,2.47,.11,4.4-.42,5.94-1.21l4.8-3.91Z"></path><path d="M373.87,188.99c-.21,0-.43,0-.64-.01-2.87-.13-4.78-.75-6.21-2.02-1.61-1.43-2.56-3.76-2.9-7.11-.68-6.79,2.13-17.43,2.16-17.54l.07-.25,19.68,1.05-.02,.32c-.23,4.94-.36,10.44-.17,11.67,.69-.21,1.97-.35,2.87,.25,.42,.28,.92,.85,.88,1.95-.09,2.59-3.44,5.19-5.42,6.5-.15,.1-.35,.06-.45-.09-.1-.15-.06-.35,.09-.45,1.88-1.25,5.05-3.69,5.13-5.99,.02-.65-.17-1.11-.59-1.39-.74-.49-2.02-.32-2.54-.09-.12,.05-.25,.04-.35-.03-.22-.15-.46-.31-.3-6.44,.06-2.38,.16-4.76,.2-5.6l-18.51-.99c-.42,1.65-2.68,10.96-2.07,17.06,.68,6.83,3.76,8.33,8.5,8.55,2.12,.09,4.07-.3,5.78-1.17,.16-.08,.35-.02,.43,.14,.08,.16,.02,.35-.14,.43-1.64,.83-3.47,1.26-5.45,1.26Z"></path><path class="h" d="M416.45,229.22c.01,.05-.16,.22-.47,.47h0c-.44,.36-1.15,.89-2.04,1.53-3.12,2.24-8.35,5.76-10.94,7.49-.95,.64-1.55,1.03-1.55,1.03l-3.81-5.08,.46,6.12,.77,10.24,.52,6.9,.49,6.52,.51,6.82,.17,2.3,.07,.95-2.64,3.31-.66,.02-2.53,.06-4.96,.11-1.05,.02-35.58,.79-1.42,.03-3.39,.08h-.26l.15-2.06h0l.71-9.6,2.08-27.98,.13-1.76h0l.11-1.41v-.09l-.44,.12-4.69,1.3-3.06,.85s.5-2.84,1.55-6.94c.3-1.17,.64-2.43,1.04-3.77,1.52-5.17,3.73-11.33,6.73-16.39,1.71-2.88,3.67-5.4,5.9-7.16,1.61-1.28,3.36-2.16,5.26-2.51,.08-.02,.18-.02,.28,0,.38,.04,.87,.26,1.42,.59,.09,.05,.18,.11,.28,.17,.13,.08,.26,.17,.4,.26,2.46,1.68,5.61,4.83,5.61,4.83,0,0,1.56-.79,3.7-1.87,1.34-.67,2.9-1.46,4.45-2.23,1.72-.86,3.41-1.7,4.76-2.36,.82-.4,1.5-.73,1.99-.95,.46-.21,.75-.34,.78-.33,1.14,.19,2.32,.56,3.46,1.01,.8,.32,1.58,.68,2.31,1.06,.89,.46,1.69,.93,2.37,1.36,7.62,4.85,12.86,10.38,16.24,15.42,2.75,4.11,4.26,7.89,4.81,10.74Z"></path><path class="f" d="M398.01,277.82l-.66,.02-2.53,.06-4.96,.11-1.05,.02-35.58,.79c.01-.16,.03-.32,.04-.49l.71-8.78,2.44-30.26,1.15-14.29h0l.28-3.47h1.09l3.2-.03,22.36-.14h.85l3.19-.03,2.88-.02s2.37,14.92,6.69,19.47c.28,.3,.57,.55,.87,.75l.62,11.79,.24,4.46,.33,6.25,.43,8.2h0l.06,1.24,.05,.97-2.71,3.39Z"></path><polygon points="396.52 283.34 391.97 284.77 391.38 282.89 391.15 282.17 389.85 278 388.9 274.99 386.32 266.75 388.6 266.03 390.87 265.32 391.98 268.87 394.81 277.89 395.36 279.64 395.71 280.77 396.52 283.34"></polygon><path class="h" d="M370.55,249.9h21.61c1.58,0,2.86,1.28,2.86,2.86v1.9c0,1.58-1.28,2.86-2.86,2.86h-21.61c-1.58,0-2.86-1.28-2.86-2.86v-1.9c0-1.58,1.28-2.86,2.86-2.86Z" transform="translate(-58.44 125.72) rotate(-17.41)"></path><path d="M371.32,261.04c-.51,0-1.01-.12-1.47-.36-.75-.39-1.31-1.06-1.56-1.87l-.57-1.81c-.53-1.68,.41-3.47,2.09-3.99l20.62-6.46c.81-.25,1.67-.18,2.43,.22,.75,.39,1.31,1.06,1.56,1.87l.57,1.81c.25,.81,.18,1.68-.22,2.43-.39,.75-1.06,1.31-1.87,1.57l-20.62,6.46c-.31,.1-.64,.15-.96,.15Zm20.05-14.01c-.25,0-.51,.04-.76,.12l-20.62,6.46c-.65,.2-1.18,.65-1.49,1.25-.31,.6-.38,1.29-.17,1.94l.57,1.81c.2,.65,.65,1.18,1.25,1.49,.6,.31,1.29,.38,1.94,.17l20.62-6.46c1.34-.42,2.08-1.85,1.67-3.19l-.57-1.81c-.34-1.09-1.35-1.78-2.43-1.78Z"></path><polygon points="388.29 266.13 386.84 261.52 400.49 257.24 397.87 248.87 394.49 249.93 394.3 249.31 398.29 248.06 401.3 257.66 387.65 261.94 388.9 265.94 388.29 266.13"></polygon><path class="e" d="M419.86,251.78c-1.22,4.16-8.84,11.72-14.28,16.94h0c-2.05,1.97-3.79,3.61-4.76,4.6-.05,.05-.1,.1-.14,.15l-.09,.09c-.15,.15-.27,.28-.36,.4-.21,.25-.66,1.19-1.33,2.37-.26,.47-.56,.98-.89,1.49-.65,1.02-1.42,2.07-2.29,2.95-.8,.79-1.68,1.43-2.65,1.76-.44,.15-.85,.14-1.23,.01-.24-.08-.47-.21-.68-.38-1.04-.81-1.82-2.54-2.36-4.14-.19-.56-.35-1.1-.48-1.59-.14-.52,.11-.99,.59-1.45,.9-.84,2.61-1.63,4.16-2.58-.4-1.17-.89-2.87-1.08-3.51,0-.01,0-.02,0-.03-.01-.12,.1-.22,.22-.19,.85,.2,2.38,1.45,3.09,2.28,.96-1.23,2.28-3.1,3.73-5.23,.28-.42,.57-.85,.87-1.28,.09-.14,.18-.27,.28-.41,2.4-3.59,4.96-7.57,6.74-10.36,.9-1.42-1.83-9.29-3.91-14.95l-.03-.07c-1.2-3.26-2.17-5.77-2.09-5.84,0,0,6.2-6.53,10.97-4.01,.65,.34,1.33,1.18,2.03,2.34,.02,.03,.03,.06,.05,.09,1.94,3.32,3.9,9.2,5.03,13.88,.76,3.17,1.15,5.79,.88,6.68Z"></path><path d="M392.42,282.97c-.23,0-.46-.04-.69-.11-.26-.09-.52-.23-.78-.43-.92-.72-1.75-2.16-2.47-4.29-.17-.5-.33-1.04-.49-1.61-.17-.6,.06-1.18,.68-1.77,.63-.59,1.62-1.14,2.66-1.73,.44-.24,.89-.5,1.33-.76-.39-1.2-.86-2.79-1-3.27v-.03s-.01-.05-.02-.07c-.01-.16,.05-.31,.16-.42,.12-.11,.29-.15,.46-.11,.85,.19,2.2,1.26,2.99,2.09,.85-1.11,1.99-2.72,3.49-4.91l.14-.21c.24-.35,.48-.71,.72-1.07,.09-.14,.18-.27,.28-.41,2.41-3.61,5-7.62,6.74-10.35,.61-.95-.72-5.89-3.94-14.67l-.03-.07c-.31-.83-.6-1.61-.86-2.32q-1.36-3.67-1.14-3.87c.25-.26,6.41-6.66,11.34-4.06,.68,.36,1.38,1.16,2.15,2.46l.03,.04,.02,.03c2,3.42,3.99,9.48,5.07,13.98,.39,1.63,1.26,5.55,.88,6.84h0c-1.2,4.06-8.28,11.24-14.33,17.05h0l-.05,.05c-.6,.58-1.19,1.14-1.73,1.66-1.25,1.2-2.34,2.23-3.01,2.92-.02,.03-.05,.05-.08,.08l-.15,.16c-.15,.16-.26,.28-.35,.38-.11,.13-.34,.57-.61,1.08-.2,.37-.42,.78-.68,1.24-.31,.56-.61,1.05-.9,1.51-.78,1.24-1.55,2.22-2.34,3-.91,.9-1.84,1.52-2.77,1.84-.25,.09-.5,.13-.75,.13Zm-.05-13.9c.2,.68,.64,2.18,1,3.24l.08,.24-.22,.13c-.52,.32-1.05,.62-1.57,.91-1.01,.57-1.96,1.1-2.54,1.64-.58,.54-.56,.9-.5,1.13,.15,.56,.31,1.09,.48,1.57,.68,2.01,1.44,3.35,2.25,3.99,.2,.15,.39,.26,.59,.33,.33,.11,.66,.11,1.02-.01,.84-.28,1.69-.85,2.52-1.69,.76-.75,1.49-1.7,2.25-2.89,.28-.45,.57-.93,.88-1.48,.25-.45,.47-.87,.67-1.23,.33-.61,.54-1.01,.69-1.19,.1-.11,.22-.25,.37-.41l.09-.09s.05-.05,.08-.08l.07-.07c.69-.7,1.77-1.74,3.03-2.94,.53-.51,1.1-1.05,1.7-1.62h0l.04-.05c6-5.76,13.04-12.88,14.2-16.8h0c.23-.78-.11-3.28-.89-6.51-1.07-4.45-3.03-10.44-4.99-13.79,0-.01-.02-.03-.03-.05l-.02-.03c-.7-1.18-1.34-1.93-1.9-2.23-4.17-2.2-9.65,3.01-10.48,3.84,.12,.43,.64,1.83,1.19,3.3,.26,.71,.55,1.49,.86,2.32l.03,.07c3.48,9.48,4.64,14.04,3.87,15.24-1.74,2.74-4.33,6.75-6.75,10.37-.1,.14-.19,.28-.28,.41-.24,.36-.49,.72-.72,1.07l-.14,.21c-1.64,2.41-2.87,4.13-3.75,5.25l-.24,.31-.26-.3c-.65-.76-1.9-1.78-2.68-2.1Zm-.24-.08h0Zm9.02-35.99l-.02,.02,.02-.02Z"></path><path class="e" d="M353.22,278.81c-.27,3.54-.45,5.91-.47,6.23-.08,1.51,3.4,5.96,3.15,7-.25,1.04-3.83-2.83-3.83-2.83,0,0-.72,3.03-.63,4.06,.07,.73,.16,1.88,.23,3.05,.07,1.18,.11,2.4,.06,3.27,0,.05-.01,.08-.03,.12-.1,.25-.48,.3-.62,.03-.25-.46-.58-1.07-.94-1.75-.24-.45-.49-.93-.73-1.42-.19-.37-.38-.74-.56-1.11h0c-.75-1.53-1.41-3-1.57-3.76-.26-1.23,1.43-7.05,1.43-7.05l-.31-5.73-.11-2.06-.35-6.62-.69-12.94h0l-.65-12.2-.14-2.65-.17-3.16-.1-1.83-.15-2.87,4.47,.27,1.16,.07,4.93,.3s-.12,1.53-.32,4.06c-.51,6.56-1.54,19.84-2.36,30.42h0c-.25,3.21-.48,6.18-.67,8.63-.01,.16-.03,.33-.04,.49h0Z"></path><path d="M351.38,300.24c-.24,0-.47-.13-.58-.35-.25-.46-.58-1.07-.94-1.76-.24-.45-.49-.93-.74-1.42-.19-.37-.38-.74-.56-1.12l-.03-.07c-.89-1.82-1.42-3.09-1.56-3.77-.26-1.24,1.19-6.34,1.42-7.15l-2.69-50.38,11.25,.68-.34,4.39c-.51,6.56-1.54,19.83-2.36,30.4h0c-.25,3.23-.48,6.19-.67,8.64l-.04,.49c-.25,3.3-.45,5.9-.47,6.22-.04,.68,.91,2.31,1.67,3.62,1.01,1.74,1.62,2.83,1.47,3.43-.05,.21-.19,.35-.38,.4-.71,.18-2.4-1.42-3.58-2.65-.23,1.04-.55,2.72-.49,3.37,.04,.45,.15,1.66,.23,3.06,.08,1.41,.1,2.52,.06,3.3,0,.09-.02,.17-.06,.24-.09,.22-.32,.38-.57,.39h-.04Zm-2.21-4.86c.17,.35,.35,.7,.52,1.04,.25,.49,.5,.97,.73,1.41,.36,.68,.69,1.29,.94,1.75,0,.01,0,.01,.02,.01,.01,0,.02,0,.02,0,.04-.77,.02-1.86-.06-3.25-.08-1.39-.18-2.59-.22-3.04-.1-1.07,.61-4.04,.64-4.17l.14-.59,.41,.44c1.22,1.32,2.77,2.72,3.28,2.89-.02-.48-.82-1.85-1.41-2.87-.93-1.6-1.8-3.11-1.75-3.98,.02-.31,.18-2.46,.47-6.22v-.02l.04-.48c.19-2.45,.42-5.41,.66-8.62h0c.82-10.59,1.85-23.87,2.36-30.43l.29-3.73-9.88-.6,2.65,49.76-.02,.05c-.67,2.31-1.6,6.05-1.43,6.89,.13,.63,.67,1.91,1.54,3.69l.03,.07Z"></path><path d="M368.57,174.94s-.06,0-.09,0c-.35-.05-.6-.37-.55-.72l.08-.62c.05-.35,.37-.6,.72-.55,.35,.05,.6,.37,.55,.72l-.08,.62c-.04,.32-.32,.56-.64,.56Z"></path><path d="M377.06,175.31s-.06,0-.09,0c-.35-.05-.6-.37-.55-.72l.08-.62c.05-.35,.37-.6,.72-.55,.35,.05,.6,.37,.55,.72l-.08,.62c-.04,.32-.32,.56-.64,.56Z"></path><path d="M379.9,172.46c-.06,0-.12-.02-.17-.05-1.54-.96-4.39-.3-4.41-.3-.17,.04-.35-.07-.39-.24-.04-.17,.07-.35,.24-.39,.13-.03,3.13-.72,4.9,.38,.15,.09,.2,.29,.1,.44-.06,.1-.17,.15-.27,.15Z"></path><path d="M371.12,178.41s-.05,0-.08-.01c-.02,0-.05-.01-.08-.02-1.19-.26-1.76-.77-1.7-1.51,.04-.44,.37-.8,.76-1.21,.38-.4,.81-.86,1.04-1.48,.06-.17,.25-.25,.41-.19,.17,.06,.25,.25,.19,.41-.28,.75-.77,1.28-1.17,1.7-.3,.32-.56,.6-.58,.82-.04,.49,.66,.71,1.2,.82,.04,0,.08,.02,.1,.02,.17,.04,.28,.22,.23,.39-.04,.15-.17,.24-.31,.24Z"></path><path d="M370.78,171.86s-.07,0-.1-.02c-2-.68-3.64-.09-3.66-.08-.17,.06-.35-.02-.41-.19-.06-.17,.02-.35,.19-.41,.08-.03,1.88-.67,4.09,.08,.17,.06,.26,.24,.2,.41-.05,.13-.17,.22-.31,.22Z"></path><path d="M368.39,180.48c-.31,.34,1.3,1.74,2.61,1.74,3.3,0,4.33-2.35,3.58-1.98-.28,.14-1.95,.89-3.58,.77-2.1-.15-2.26-.92-2.61-.53Z"></path><path d="M377.14,290.44c-.16,0-.3-.12-.32-.28l-.81-6.93-3.99-2.85c-.14-.1-.18-.3-.07-.45,.1-.15,.3-.18,.45-.07l4.22,3.02,.84,7.21c.02,.18-.11,.34-.28,.36-.01,0-.03,0-.04,0Z"></path><path d="M364.96,162.4s17.4,4.98,20.46,13.52c0,0,1.1-.44,1.88-.35,1,.12,1.34,.47,1.34,.47l-.53-14.17-23.14,.53Z"></path><path class="h" d="M347.35,223.46s-4.81,12.79-4.17,15.82h13.42l.96-14.29-10.21-1.53Z"></path><polygon class="h" points="397.65 228.82 402.06 239.28 415.99 229.69 407.67 217.02 397.65 228.82"></polygon><path class="f" d="M395.56,162.22v3.35h-34.61v-3.35c0-6.37,3.48-11.94,8.65-14.92,2.55-1.47,5.5-2.31,8.66-2.31,3.42,0,6.61,.99,9.3,2.7,1.06,.68,2.05,1.46,2.94,2.35,3.13,3.12,5.07,7.43,5.07,12.18Z"></path><path class="h" d="M387.56,147.61s-13.74,4.71-17.71,18.18c-.4,1.35-5.91,1.38-6.23-.43-1.72-9.57,5.98-18.14,5.98-18.14,2.55-1.47,5.5-2.32,8.66-2.32,3.42,0,6.61,.99,9.3,2.71Z"></path><path class="f" d="M357.96,164.56h36.86c.63,0,1.15,.51,1.15,1.15v.9c0,.63-.51,1.15-1.15,1.15h-36.86c-.63,0-1.15-.51-1.15-1.15v-.9c0-.63,.51-1.15,1.15-1.15Z"></path><path d="M364.28,200.74s-5.07,9.36-5.39,21.97h3.15s1.06-16.97,4.97-21.84l-2.73-.13Z"></path><path d="M390.93,200.24s-5.33,9.86-5.65,22.46h3.15s.95-16.48,4.86-21.35l-2.36-1.11Z"></path><path class="g" d="M372.21,240.08h0c-5.08,0-9.21-4.12-9.21-9.21v-1.98c0-.53,.43-.95,.95-.95h16.51c.53,0,.95,.43,.95,.95v1.98c0,5.08-4.12,9.21-9.21,9.21Z"></path><path d="M372.21,240.4c-5.25,0-9.53-4.28-9.53-9.53v-1.98c0-.7,.57-1.28,1.28-1.28h16.51c.7,0,1.28,.57,1.28,1.28v1.98c0,5.25-4.27,9.53-9.53,9.53Zm-8.25-12.14c-.35,0-.63,.28-.63,.63v1.98c0,4.9,3.99,8.89,8.88,8.89s8.88-3.99,8.88-8.89v-1.98c0-.35-.28-.63-.63-.63h-16.51Z"></path></g><g><path d="M335.74,254.97l-.06,5.33h0l-.17,15.39-.03,3.24h0l-.04,3.56-.09,8.01-.02,2.27-.05,4.91-.02,2.17h0l-.03,2.78-1.42-1.7c-.27,.15-.55,.3-.84,.43-.6,.26-2.75-1.47-4.64-3.38-10.29,.32-19.74,.08-28.58-.41h0c-9.5-.53-18.31-1.34-26.72-2.04-.31-.03-.61-.05-.92-.08l.11-1.22,.52-5.64h0l1.59-17.38,.52-5.73,.09-.02,.41-.07,18.64-3.22h0l5.56-.96,.21-.04,.61-.11,15.73-2.72,6.81-1.18h0l1.28-.22,6.97-1.21,.38-.06,.7-.12,2.77-.48,.72-.12Z"></path><path class="e" d="M278.03,230.85s-.02,.21-.05,.6h0c-.25,3.22-1.46,18.76-2.64,33.95-.14,1.79-.28,3.58-.42,5.34h0c-.01,.17-.02,.32-.04,.47-.51,6.53-.98,12.68-1.34,17.38h0c-.18,2.34-.33,4.32-.44,5.82-.03,.41-.06,.79-.08,1.12-.31-.03-.61-.05-.92-.08-1.82-.15-3.62-.29-5.4-.43l.1-1.98,1.11-21.82,1.42-28.01h0l.14-2.67,.47-9.17,4.47-.29,.56-.04h.18l2.88-.2Z"></path><path d="M273.32,295.88l-1.24-.1c-1.81-.15-3.62-.3-5.4-.43l-.31-.02,3.26-64.25,8.76-.56-.03,.37s-.02,.2-.05,.59h0c-.08,1.08-.27,3.48-.53,6.77-.52,6.68-1.33,17.02-2.11,27.19-.09,1.2-.19,2.4-.28,3.58l-.15,1.93c0,.1-.02,.21-.03,.31-.5,6.52-.98,12.66-1.34,17.36h0c-.13,1.74-.25,3.26-.35,4.54l-.14,1.83c-.02,.2-.03,.39-.04,.57l-.02,.33Zm-6.28-1.15c1.68,.13,3.39,.27,5.09,.41l.59,.05c0-.08,.01-.16,.02-.25l.14-1.83c.1-1.28,.21-2.8,.35-4.52h0c.36-4.72,.84-10.86,1.34-17.39,.01-.1,.02-.2,.03-.3l.15-1.93c.09-1.19,.19-2.39,.28-3.58,.79-10.18,1.59-20.51,2.11-27.19,.26-3.28,.44-5.68,.52-6.75h0c0-.1,.01-.18,.02-.24l-7.44,.48-3.2,63.05Z"></path><path class="e" d="M299.61,161.82s1.49,15.7,.24,17.43c-1.26,1.74-8.5,4.93-8.5,4.93l12.15,35.73,25.95-2.51,1.68-26.56s-11.84-9.65-12.56-11.63c-.99-2.74-.99-17.39-.99-17.39h-17.97Z"></path><path d="M303.28,220.26l-.08-.24-12.25-36.01,.27-.12c.07-.03,7.18-3.18,8.37-4.83,.87-1.2,.3-10.95-.3-17.21-.02-.18,.11-.33,.29-.35,.18-.02,.33,.11,.35,.29,.15,1.62,1.47,15.87,.18,17.65-1.17,1.61-7.01,4.31-8.36,4.92l11.97,35.21,25.42-2.46,1.65-26.12c-1.7-1.39-11.83-9.72-12.53-11.67-1-2.76-1.01-16.9-1.01-17.5,0-.18,.14-.32,.32-.32s.32,.14,.32,.32c0,.15,.01,14.62,.97,17.28,.56,1.56,9.18,8.82,12.46,11.49l.13,.1-1.71,27-26.47,2.56Z"></path><path class="e" d="M287.39,182.78c-7.84,2.86-5.95,44.75-5.95,44.75-1.28,4.93-4.3,31.3-4.3,31.3l54.97,10.96,6.48-32.91s4.06-55.41-17.48-58.66c-2.07-.31-8.38,2.64-15.13,1.99-2.93-.28-4.42,3.21-5.87-1.92,0,0-11.01,3.88-12.72,4.5Z"></path><path d="M332.35,270.13l-.29-.06-55.23-11.01,.03-.27c.12-1.07,3.02-26.3,4.29-31.29-.1-2.26-1.75-42.11,6.14-44.99,1.69-.62,12.61-4.47,12.72-4.5l.29-.1,.08,.3c.41,1.45,.85,2.28,1.34,2.52,.43,.21,.96,0,1.62-.27,.71-.29,1.6-.65,2.66-.54,4.18,.4,8.21-.59,11.14-1.32,1.84-.46,3.17-.79,4-.66,5.02,.76,9.07,4.36,12.04,10.7,2.36,5.03,4.05,11.79,5.02,20.1,1.66,14.12,.67,28.03,.66,28.17v.04l-6.54,33.2Zm-54.88-11.54l54.42,10.85,6.42-32.61c.04-.57,.97-14.21-.66-28.05-.97-8.25-2.64-14.95-4.97-19.92-2.88-6.15-6.79-9.64-11.59-10.37-.71-.11-2.06,.23-3.78,.65-2.98,.74-7.06,1.75-11.34,1.34-.91-.09-1.69,.23-2.38,.5-.74,.3-1.43,.58-2.1,.25-.63-.31-1.11-1.11-1.56-2.59-1.76,.62-10.9,3.84-12.43,4.4l-.1-.28,.1,.28c-3.09,1.13-5.07,9.14-5.72,23.18-.5,10.69-.04,21.17-.03,21.28v.09c-1.2,4.58-3.94,28.2-4.27,30.99Z"></path><path d="M300.16,232.98l-5.22-53.78c-3.6,0-17.79,6.96-21.15,9.93-1.23,1.09-14.03,101.04-13.92,102.25,0,0,12.63,3.12,14.54,3.22,.94,.05,.16-53.79,.85-66.32l-2.81,31.58-2.51,28.73,28.27,.02,1.29-24.72,.67-30.92Z"></path><path d="M319.78,177.17l-19.66,54.15c-.05,3.36,.23,4.85-.34,19.16-.3,7.59,.62,40.11,.62,38.96,0-.47,38.07,1.22,38.07,1.22l1.62-39.8s12.74-6.53,12.74-25.01c0-20.71-1.53-27.74-5.25-38.13-.54-1.5-20.48-10.53-27.8-10.53Z"></path><path d="M308.55,131.46c-3.27-.07-11.2-.34-11.94,5.42-.84,6.58-.82,15.17-.73,19.71,.04,1.79,1.37,3.28,3.15,3.51l19.85,2.55c1.82,.23,3.52-.94,3.96-2.72,1.48-6.01,4.5-18.74,4.02-20.78-1.61-6.94-13.15-7.58-18.32-7.69Z"></path><path class="e" d="M316.8,166.75c1.21-.98,2.21-5.33,2.98-10.34,.02-.15,.12-.27,.25-.32,1.4-.61,3.5-2.03,3.77-4.53,.23-2.17-1.39-1.91-2.71-1.38-.23,.1-.48-.1-.45-.36,.68-6.07,1.03-11.43,1.03-11.43l-23.59-3.03s-.65,5.41-1.2,11.5c-.02,.27-.89,14.86-.49,16.24,.22,.75,.73,1.42,1.46,2,0,0,1.36,1.43,9.93,2.53l9.02-.89Z"></path><path d="M307.78,167.96s-.03,0-.04,0c-8.11-1.04-9.88-2.41-10.1-2.61-.81-.65-1.34-1.38-1.56-2.16-.43-1.49,.47-16.22,.48-16.36,.55-6.03,1.19-11.46,1.2-11.51l.04-.32,24.21,3.11-.02,.3c0,.05-.36,5.43-1.03,11.45,0,.02,0,.03,0,.03,1.19-.49,2.06-.53,2.61-.12,.45,.34,.63,.95,.54,1.83-.31,2.91-2.87,4.32-3.96,4.79-.03,.01-.05,.04-.06,.08-.95,6.18-1.96,9.63-3.09,10.54-.14,.11-.34,.09-.45-.05-.11-.14-.09-.34,.05-.45,.68-.55,1.73-2.75,2.86-10.14,.04-.25,.2-.47,.44-.57,.98-.43,3.3-1.7,3.58-4.27,.07-.63-.03-1.05-.29-1.24-.34-.25-1.04-.18-1.98,.2-.21,.09-.45,.06-.63-.08-.19-.14-.29-.37-.26-.61,.58-5.19,.92-9.9,1.01-11.11l-22.97-2.95c-.15,1.25-.69,5.99-1.16,11.17-.05,.61-.87,14.83-.5,16.12,.19,.66,.65,1.28,1.36,1.84l.03,.03s1.52,1.38,9.74,2.43c.18,.02,.3,.18,.28,.36-.02,.16-.16,.28-.32,.28Z"></path><path d="M311.22,150.94s-.03,0-.04,0c-.3-.02-.52-.28-.49-.58l.04-.49c.02-.3,.28-.52,.58-.49,.3,.02,.52,.28,.49,.58l-.04,.49c-.02,.28-.26,.5-.53,.5Z"></path><path d="M300.86,149.94s-.04,0-.06,0c-.29-.03-.51-.3-.47-.6l.07-.58c.03-.29,.3-.51,.6-.47,.29,.03,.51,.3,.47,.6l-.07,.58c-.03,.27-.26,.47-.53,.47Z"></path><path d="M314.14,147.38c-.05,0-.11-.01-.16-.04-1.86-1.03-3.82-.44-3.84-.44-.17,.05-.35-.04-.4-.21-.05-.17,.04-.35,.21-.4,.09-.03,2.25-.68,4.35,.49,.16,.09,.21,.28,.12,.44-.06,.11-.17,.17-.28,.17Z"></path><path d="M303.96,156.39s-.07,0-.11-.02c-.33-.12-1.97-.74-2.03-1.7-.04-.74,.06-.93,1.32-3.23,.27-.5,.6-1.11,1-1.85,.06-.14,.67-1.57,.6-2.48,0-.1-.14-.29-.5-.51-1.05-.63-3.44-1.11-4.95-.46-.16,.07-.35,0-.42-.17-.07-.16,0-.35,.17-.42,1.62-.7,4.22-.3,5.54,.5,.51,.31,.78,.65,.81,1.01,.08,1.12-.63,2.73-.66,2.8v.02c-.41,.75-.75,1.36-1.02,1.86-1.23,2.26-1.27,2.34-1.24,2.88,.02,.39,.97,.91,1.6,1.13,.17,.06,.26,.24,.2,.41-.05,.13-.17,.22-.3,.22Z"></path><path d="M328.37,279.72c-.07,0-.14-.02-.19-.07l-15.17-11.53c-.14-.11-.17-.31-.06-.45,.11-.14,.31-.17,.45-.06l15.17,11.53c.14,.11,.17,.31,.06,.45-.06,.08-.16,.13-.26,.13Z"></path><path d="M274.95,277.01c-.12,0-.23-.06-.29-.18-.08-.16-.02-.35,.14-.43l16.33-8.29c.16-.08,.35-.02,.43,.14,.08,.16,.02,.35-.14,.43l-16.33,8.29s-.1,.03-.15,.03Z"></path><path class="e" d="M295.38,177.6l-10.96,12.11,8.89,3.57-5.11,13.41,11.75,24.67c.04,.09,.18,.05,.17-.05l-4.73-53.71Z"></path><path d="M300.02,231.74c-.16,0-.3-.09-.37-.24l-11.81-24.79,5.05-13.24-9.02-3.63,11.77-13,4.8,54.45c.02,.2-.11,.38-.3,.43-.04,.01-.07,.02-.11,.02Zm-.23-.39h0Zm-11.25-24.66l11.13,23.38-4.55-51.7-10.16,11.22,8.75,3.52-5.17,13.58Z"></path><path class="e" d="M319.78,177.17l10.6,16.06-11.95,1.04,2.68,14.22-20.28,22.6c-.14,.15-.38,0-.31-.19l19.26-53.74Z"></path><path d="M300.69,231.48c-.09,0-.18-.02-.27-.08-.21-.13-.3-.38-.21-.61l19.48-54.34,11.25,17.05-12.14,1.06,2.65,14.03-20.39,22.72c-.1,.11-.23,.17-.37,.17Zm.13-.47h0Zm19.04-53.13l-18.81,52.46,19.7-21.95-2.72-14.42,11.77-1.02-9.94-15.07Z"></path><path class="e" d="M303.21,253.4c0,.74,.6,1.35,1.35,1.35s1.35-.6,1.35-1.35-.6-1.35-1.35-1.35-1.35,.6-1.35,1.35Z"></path><path d="M304.56,255.07c-.92,0-1.67-.75-1.67-1.67s.75-1.67,1.67-1.67,1.67,.75,1.67,1.67-.75,1.67-1.67,1.67Zm0-2.69c-.56,0-1.02,.46-1.02,1.02s.46,1.02,1.02,1.02,1.02-.46,1.02-1.02-.46-1.02-1.02-1.02Z"></path><path class="i" d="M325.97,290.44h-.02l-26.37-1.4-.25-57.58c0-.18,.14-.32,.32-.32h0c.18,0,.32,.14,.32,.32l.25,56.97,25.76,1.36c.18,0,.31,.16,.3,.34,0,.17-.15,.31-.32,.31Z"></path><path class="i" d="M296.3,288.92h-26.72l6.26-71.51c.02-.18,.17-.31,.35-.29,.18,.02,.31,.17,.29,.35l-6.2,70.81h26.01c.18,0,.32,.14,.32,.32s-.14,.32-.32,.32Z"></path><polygon class="e" points="325.54 179.81 319.17 174.84 305.99 180.2 310.22 185.24 325.54 179.81"></polygon><polygon class="e" points="291.44 180.37 295.88 175.67 305.99 180.2 302.18 184.85 291.44 180.37"></polygon><path d="M326.23,179.92l-7.01-5.47-13.22,5.38-10.19-4.57-4.95,5.24,11.43,4.76,3.71-4.53,4.11,4.91,16.13-5.72Zm-24.16,4.52l-10.05-4.19,3.94-4.18,9.48,4.25-3.37,4.11Zm17.03-9.21l5.73,4.46-14.52,5.15-3.77-4.5,12.56-5.11Z"></path><polygon points="310.22 185.24 305.99 180.2 301.79 185.24 303.63 187.4 298.72 214.29 300.18 232.32 307.33 211.91 307.15 187.82 310.22 185.24"></polygon><path class="e" d="M350.42,310.27c-.28,.2-.56,.38-.82,.55-4.72,2.94-6.78,.87-6.78,.87l-7.59-9.05-1.42-1.7-2.57-3.06-.58-.7-2.6-3.1h0l-3.37-4.02-.84-1-14.98-17.85-6.11-7.29-2.39-2.85-.62-.74-.18-.21-14-16.69s-2.43-3.28,3.75-7.46c0,0,.02-.01,.06-.04l.03-.02-1.81-2.65s6.12-4.01,10.97-4.8h0c.39-.06,.77-.11,1.15-.12,.05,0,.09,0,.14,0,.13,0,.26,0,.39,0,.32,0,.63,.03,.92,.09,.08,.01,.15,.03,.23,.05,.48,.11,.92,.28,1.3,.53,.06,.04,.11,.08,.16,.12,.63,.47,2.9,3.49,6.15,8.05h0c3.69,5.18,8.65,12.34,13.9,20.01h0c.42,.62,.85,1.24,1.28,1.87,1.8,2.63,3.63,5.31,5.44,7.98,.25,.37,.5,.73,.74,1.1,.34,.51,.69,1.01,1.03,1.51,.43,.63,.85,1.25,1.27,1.87,.67,.98,1.33,1.95,1.98,2.92h0c.29,.43,.57,.85,.86,1.27,1.15,1.69,2.27,3.36,3.36,4.96,.03,.05,.07,.1,.1,.15,.39,.57,.77,1.14,1.14,1.69,3.45,5.11,6.49,9.62,8.73,12.96h0c.25,.38,.5,.75,.73,1.09,.2,.3,.4,.6,.59,.88,.61,.9,1.12,1.67,1.53,2.29,.73,1.09,1.13,1.68,1.13,1.68,0,0,2.5,5.43-2.41,8.88Z"></path><path d="M353.12,301.26l-.03-.04s-.4-.59-1.13-1.68c-.41-.61-.93-1.38-1.53-2.29l-.74-1.1c-.17-.25-.34-.51-.52-.78l-.05-.08c-2.45-3.64-5.4-8.03-8.73-12.96l-.45-.67c-.23-.34-.46-.68-.69-1.02l-.1-.15c-1.09-1.61-2.21-3.27-3.36-4.97l-.38-.55c-.16-.24-.32-.47-.48-.71v-.02c-.66-.96-1.32-1.93-1.98-2.9-.42-.62-.84-1.24-1.27-1.87l-1.12-1.65c-.22-.32-.43-.64-.65-.96-1.81-2.67-3.64-5.34-5.44-7.98l-.43-.63c-.28-.41-.57-.83-.85-1.24l-.1-.14h0c-5.79-8.45-10.43-15.13-13.8-19.85l-.02-.02c-3.57-5-5.61-7.66-6.22-8.12-.06-.05-.12-.09-.18-.13-.41-.27-.88-.46-1.41-.58-.08-.02-.16-.03-.24-.05-.3-.05-.63-.08-.97-.09-.14,0-.28,0-.4,0-.05,0-.11,0-.15,0-.36,.01-.74,.05-1.16,.12h-.03c-4.87,.79-10.84,4.68-11.1,4.85l-.27,.18,1.81,2.66c-2.43,1.68-3.82,3.43-4.12,5.2-.25,1.44,.33,2.38,.46,2.57,0,0,57.29,68.31,57.29,68.31,.05,.05,.83,.81,2.45,.81,1.14,0,2.7-.37,4.72-1.63,.28-.17,.55-.36,.84-.56h0c5.07-3.56,2.54-9.22,2.52-9.27Zm-67.65-60.14c.28-1.58,1.64-3.24,3.92-4.8,.04,0,.26-.19,.3-.21,1.91-1.26,7.05-4.13,8.75-3.07,.25,.16,.33,.35,.25,.63-.44,1.73-5.38,4.82-7.44,4.96-.19,.01-.34,.18-.32,.37,.01,.18,.17,.32,.35,.32h.02c2.34-.16,7.56-3.47,8.07-5.49,.15-.58-.05-1.07-.56-1.39-2.16-1.35-7.75,2.01-9.33,3.01l-1.43-2.1c1.24-.78,6.4-3.89,10.54-4.57,0,0,1.57-.33,2.73,0,.45,.12,.85,.26,1.2,.49,.04,.02,.07,.05,.1,.07,.25,.38,.95,1.64,.56,3.54-.4,1.98-2.1,5.12-7.91,8.83-5.45,3.49-9.01,1.73-9.47,1.47-.12-.19-.52-.94-.32-2.08Zm64.76,68.88h0c-.27,.19-.54,.37-.81,.54-4.31,2.69-6.22,1.07-6.37,.93l-56.39-67.22c.56,.16,1.28,.3,2.17,.29,1.71,0,4.01-.5,6.78-2.27,4.82-3.08,7.58-6.19,8.2-9.25,.18-.9,.15-1.67,.03-2.3,.91,1.14,2.41,3.15,4.89,6.63l.02,.02c3.39,4.75,8.06,11.48,13.9,20l.08,.12c.25,.37,.51,.75,.77,1.12l.43,.63c1.8,2.63,3.63,5.31,5.44,7.97,.22,.32,.44,.64,.65,.96l1.12,1.65c.43,.62,.85,1.25,1.27,1.87,.67,.98,1.33,1.95,1.98,2.92l.02,.02c.16,.23,.31,.46,.47,.69l.38,.55c1.15,1.7,2.27,3.36,3.36,4.97l.1,.14c.23,.34,.46,.68,.69,1.02l.45,.67c3.3,4.89,6.24,9.25,8.68,12.87l.05,.08c.2,.3,.39,.59,.58,.86l.74,1.1c.61,.9,1.12,1.67,1.53,2.29,.64,.96,1.03,1.54,1.11,1.66,.16,.37,2.17,5.31-2.31,8.46Z"></path><path class="e" d="M337.6,290.64l-8.14,7.65-21.02-62.8s-.83-3.21,5.11-4.44l-.55-2.52s10.45-2.08,12.6,1.5c1.66,2.77,11.98,60.6,11.98,60.6Z"></path><path d="M337.92,290.59c-.42-2.36-10.35-57.92-12.02-60.71h0v-.02c-2.27-3.71-12.5-1.72-12.94-1.64l-.32,.06,.55,2.52c-2.29,.52-3.84,1.41-4.6,2.63-.69,1.11-.45,2.09-.44,2.13l21.18,63.3,8.63-8.12-.03-.17Zm-29.17-55.23c-.03-.19-.09-.84,.38-1.6,.69-1.1,2.24-1.92,4.48-2.39,2.49-.49,6.67-.85,7.48,.27,.12,.17,.12,.3,0,.47-.83,1.14-5.39,1.94-6.95,1.43-.18-.06-.38,.04-.44,.22-.06,.18,.04,.38,.22,.44,.38,.12,.92,.18,1.55,.18,2.17,0,5.33-.71,6.18-1.87,.3-.41,.3-.87,0-1.29-1.21-1.67-6.31-.89-7.86-.6l-.4-1.83c1.75-.31,10.06-1.59,11.92,1.38,.07,.37,.19,1.48-.64,2.74-.89,1.34-3.08,3.15-8.51,4.17-5.07,.95-7.12-1.33-7.42-1.72Zm20.86,62.36l-20.45-61.11c.87,.63,2.37,1.34,4.69,1.34,.73,0,1.54-.07,2.44-.24,4.53-.85,7.54-2.34,8.93-4.44,.34-.52,.54-1.01,.66-1.45,2.09,7.8,8.15,40.64,11.38,58.72l-7.64,7.19Z"></path><path class="e" d="M347.25,257.29c-2.49,8.55-6.4,18.44-8.28,23.52-.04,.11-.08,.22-.12,.33-.19,.51-.35,.97-.49,1.37-.17,.49-.3,.88-.37,1.17-.15,.55,.49,3.54,.45,6.98-.03,2.32-.37,4.84-1.47,6.94-.44,.84-1,1.61-1.71,2.27h0c-.43,.4-.91,.76-1.45,1.08-.27,.15-.55,.3-.84,.43-.6,.26-2.75-1.47-4.64-3.38-1.53-1.54-2.89-3.2-3.1-3.99-.21-.75,.69-1.77,.69-1.77-.24,.01-4.83-.14-4.36-1.05,.17-.33,.57-.74,1.12-1.19,.35-.29,.75-.6,1.19-.92,.64-.47,1.35-.96,2.04-1.45,1.45-1.03,2.83-2.04,3.38-2.79,.27-.37,.57-1.15,.9-2.32,.64-2.25,1.43-5.93,2.51-10.99,.22-1.04,.46-2.14,.7-3.29,.02-.1,.04-.21,.07-.31,.56-2.55,1.33-5.12,2.23-7.6h0c3.1-8.54,7.73-15.98,10.78-17.87,.85-.53,1.58-.62,2.11-.18,.4,.33,.7,.97,.85,1.95,.43,2.79-.58,7.67-2.16,13.09Z"></path><path d="M332.85,301.8c-1.15,0-3.47-2.16-4.82-3.52-.67-.68-2.88-2.97-3.21-4.17-.14-.51,.07-1.06,.31-1.48-1.22-.06-3.47-.26-3.92-.96-.13-.21-.14-.45-.03-.67,.19-.36,.57-.78,1.22-1.32,.31-.26,.7-.56,1.21-.93,.49-.36,1.02-.74,1.54-1.1l.51-.36c1.38-.98,2.77-1.99,3.29-2.7,.23-.32,.51-1.06,.84-2.19,.62-2.17,1.36-5.59,2.5-10.96,.22-1.04,.46-2.14,.7-3.29,.02-.1,.05-.21,.07-.32,.54-2.45,1.28-5,2.22-7.58l.02-.07c3.01-8.3,7.72-16.07,10.95-18.08,1.31-.81,2.13-.53,2.59-.15,.5,.41,.83,1.14,.99,2.21,.39,2.56-.32,6.9-2.18,13.26h0c-2.01,6.89-4.88,14.5-6.98,20.06-.5,1.32-.94,2.49-1.31,3.49-.03,.1-.07,.21-.11,.31-.19,.53-.36,.98-.49,1.38-.17,.49-.29,.87-.37,1.14-.04,.17,.04,.91,.13,1.63,.15,1.35,.36,3.2,.34,5.24-.03,2.88-.54,5.28-1.52,7.13-.45,.86-1.01,1.62-1.66,2.26h0l-.13,.13c-.46,.43-.97,.81-1.53,1.13-.28,.16-.57,.31-.88,.45-.08,.04-.18,.05-.28,.05Zm-6.01-10.01l-.62,.72c-.24,.28-.71,.99-.6,1.38,.18,.65,1.38,2.18,3,3.81,2.24,2.26,3.81,3.29,4.19,3.29h0c.28-.12,.53-.25,.78-.4,.47-.28,.91-.59,1.3-.95l.08-.07c.64-.6,1.19-1.33,1.63-2.16,.91-1.74,1.39-4.01,1.42-6.76,.02-1.99-.18-3.81-.33-5.14-.13-1.14-.18-1.65-.1-1.94,.08-.29,.2-.68,.38-1.2,.14-.4,.3-.86,.49-1.37v-.02c.04-.1,.08-.2,.12-.3,.37-1,.82-2.18,1.31-3.5,2.09-5.54,4.96-13.13,6.96-20h0c1.8-6.16,2.52-10.5,2.15-12.91-.13-.84-.37-1.42-.7-1.69-.37-.3-.91-.23-1.63,.22-3.09,1.91-7.63,9.47-10.58,17.59l-.02,.07c-.93,2.57-1.68,5.11-2.21,7.55-.02,.1-.05,.21-.07,.31-.25,1.16-.48,2.26-.7,3.3-1.15,5.39-1.89,8.82-2.51,11.01-.36,1.27-.67,2.05-.96,2.45-.59,.81-1.98,1.83-3.48,2.88l-.51,.36c-.51,.36-1.05,.74-1.53,1.09-.5,.36-.87,.65-1.17,.9-.48,.4-.8,.72-.96,.96,.57,.36,3.27,.57,3.92,.55l.95-.03Z"></path><path d="M340.98,282.5s8.54-9.25,10.78-27.75c2.24-18.5,1.03-34.49,1.03-34.49l-18.15,1.54s-1.39,25.39-2.11,31.21c-1,8.11-5.35,29.49-5.35,29.49h13.8Z"></path><path class="i" d="M340.98,282.82h-14.22l.11-.4c9.25-34.92,5.6-63.34,5.56-63.62-.02-.18,.1-.34,.28-.36,.17-.03,.34,.1,.36,.28,0,.07,.95,7.25,.74,18.65-.2,10.44-1.44,26.67-6.2,44.82h13.39c.18,0,.32,.14,.32,.32s-.14,.32-.32,.32Z"></path><path d="M295.99,152.52s-2.41,9.97,.44,12.54c2.85,2.57,14.99,3.98,17.16,3.01,2.18-.97,6.02-12.24,6.02-12.24,0,0-4.84,1.83-7.53,1.81-2.68-.02-9.34,.08-12.38-1.8-2.11-1.31-3.72-3.33-3.72-3.33Z"></path><path class="e" d="M307.2,158.83c.16,.72-1.97,2.9-3.81,2.57-2.99-.54-3.23-3.73-2.55-3.43,.27,.12,1.16,1.17,2.96,1.44,1.94,.29,3.29-1.07,3.39-.58Z"></path><path class="f" d="M329.29,138.23l-.34,3.34-34.44-3.5,.34-3.34c.64-6.34,4.67-11.53,10.11-13.97,2.68-1.2,5.71-1.74,8.85-1.42,3.41,.35,6.48,1.65,8.98,3.62,.99,.78,1.89,1.66,2.68,2.63,2.8,3.42,4.29,7.9,3.81,12.63Z"></path><path class="h" d="M322.8,122.88s-14.15,3.29-19.46,16.3c-.53,1.3-6.01,.77-6.15-1.06-.74-9.69,7.79-17.44,7.79-17.44,2.68-1.21,5.71-1.75,8.85-1.43,3.41,.35,6.48,1.66,8.98,3.64Z"></path><path class="f" d="M309.75,120.63h.14c.84,0,1.53,.69,1.53,1.53v36.09c0,.85-.69,1.53-1.53,1.53h-.13c-.85,0-1.53-.69-1.53-1.53v-36.09c0-.84,.69-1.53,1.53-1.53Z" transform="translate(139.02 434.27) rotate(-84.2)"></path><path class="i" d="M275.52,263.44c-.17,0-.31-.13-.32-.3-.01-.18,.12-.33,.3-.35l16.75-1.28c.17-.01,.33,.12,.35,.3,.01,.18-.12,.33-.3,.35l-16.75,1.28h-.02Z"></path></g><g><path class="e" d="M113.95,168.63s-1.47,15.41-.23,17.12c1.23,1.7,10.41,3.9,10.41,3.9l-14,36.03-25.48-2.46-1.65-26.08s11.63-9.47,12.33-11.42c.97-2.69,.97-17.08,.97-17.08h17.64Z"></path><path d="M110.34,226.02l-26-2.51-1.68-26.52,.13-.1c3.22-2.62,11.68-9.75,12.23-11.28,.94-2.61,.95-16.82,.95-16.97,0-.18,.14-.32,.32-.32h0c.18,0,.32,.14,.32,.32,0,.59-.01,14.47-.99,17.19-.69,1.92-10.63,10.09-12.3,11.46l1.62,25.64,24.96,2.41,13.77-35.46c-1.88-.46-9.07-2.33-10.24-3.94-1.27-1.75,.02-15.75,.17-17.34,.02-.18,.17-.31,.35-.29,.18,.02,.31,.17,.29,.35-.59,6.15-1.15,15.72-.29,16.9,.95,1.32,7.71,3.17,10.23,3.78l.36,.09-14.22,36.6Z"></path><path d="M109.35,138.15c3.19,.38,10.94,1.2,10.87,6.9-.08,6.51-1.28,14.87-1.99,19.26-.28,1.74-1.79,3-3.54,2.98l-19.65-.24c-1.8-.02-3.3-1.39-3.48-3.19-.62-6.04-1.81-18.84-1.07-20.75,2.51-6.53,13.82-5.57,18.86-4.97Z"></path><path class="e" d="M96.5,171.34c-1.05-1.12-1.42-5.48-1.48-10.46,0-.14-.08-.27-.2-.35-1.28-.78-3.13-2.45-3.04-4.92,.07-2.14,1.61-1.67,2.82-.97,.22,.13,.48-.03,.49-.29,.17-6,.56-11.26,.56-11.26l23.36,.28s-.11,5.35-.41,11.35c-.01,.27-1.17,14.57-1.74,15.86-.31,.7-.91,1.28-1.7,1.75,0,0-1.51,1.21-10,1.1l-8.65-2.1Z"></path><path d="M106.17,173.77c-.33,0-.67,0-1.02,0-.18,0-.32-.15-.32-.33,0-.18,.15-.32,.32-.32h0c8.13,.09,9.79-1.03,9.8-1.04l.03-.02c.77-.45,1.29-.99,1.57-1.6,.53-1.19,1.68-15.15,1.72-15.74,.25-5.09,.37-9.76,.4-11.01l-22.72-.28c-.08,1.2-.4,5.83-.54,10.94,0,.24-.13,.45-.34,.57-.2,.11-.44,.11-.63,0-.86-.5-1.53-.66-1.89-.46-.27,.15-.42,.54-.44,1.16-.09,2.53,1.99,4.08,2.89,4.63,.22,.13,.35,.36,.35,.62,.09,7.33,.81,9.62,1.39,10.24,.12,.13,.12,.34-.01,.46-.13,.12-.34,.12-.46-.01-.98-1.04-1.49-4.54-1.57-10.68,0-.03-.02-.06-.04-.08-.99-.61-3.3-2.33-3.2-5.21,.03-.86,.29-1.44,.78-1.71,.59-.32,1.44-.17,2.53,.47,.17-5.96,.56-11.24,.56-11.29l.02-.3,23.99,.29v.33c0,.05-.12,5.42-.41,11.36,0,.14-1.15,14.59-1.77,15.98-.33,.73-.94,1.36-1.81,1.89-.25,.18-1.95,1.16-9.16,1.16Z"></path><path d="M104.44,157.13s-.03,0-.05,0c-.41-.03-.73-.38-.7-.8l.03-.48c.03-.41,.38-.73,.8-.7,.41,.03,.73,.38,.7,.8l-.03,.48c-.02,.4-.36,.71-.75,.71Z"></path><path d="M114.32,157.46h-.02c-.42,0-.74-.35-.74-.77v-.57c.02-.42,.37-.74,.78-.74,.42,0,.74,.35,.74,.77v.57c-.02,.41-.36,.74-.76,.74Z"></path><path d="M107.58,153.45s-.07,0-.1-.01c-.04,0-4.05-.94-6-.19-.23,.09-.48-.03-.57-.25s.03-.48,.25-.57c2.2-.85,6.34,.11,6.51,.15,.24,.06,.38,.29,.33,.53-.05,.2-.23,.34-.43,.34Z"></path><path d="M105.92,164.67c-.38,.54,1.49,2.43,3.67,2.36,3.57-.11,4.71-2.55,3.84-2.39-.34,.06-1.64,.78-3.78,.81-2.31,.03-3.48-1.15-3.74-.79Z"></path><path d="M99.08,139.44s-10.87-2.84-7.77,11.72c1.77,8.32-2.06-2.43,7.38-8.4,.98-.62,.39-3.32,.39-3.32Z"></path><path d="M119.63,151.24s.59-5.77-2.09-6.89c-2.68-1.11-2.22,1.64-7.59,1.62-5.37-.02-9.74-2.38-11.78-2.04-2.04,.34-4.21,3.65-4.21,3.65l-.51-5.55,12.26-1.59,8.3,.9,4.89,1.38,.73,8.5Z"></path><path d="M110.68,162.72c-.17,0-.33-.12-.36-.3-.04-.2,.09-.4,.29-.44,.75-.15,1.6-.53,1.66-.84,.1-.51,.08-.59-.81-2.94-.2-.53-.44-1.17-.73-1.95v-.03c-.03-.07-.5-1.75-.27-2.84,.08-.37,.4-.68,.95-.91,1.41-.6,4.01-.64,5.51,.28,.17,.11,.23,.34,.12,.51-.11,.17-.34,.23-.51,.12-1.37-.84-3.73-.7-4.83-.23-.38,.16-.51,.32-.52,.39-.19,.86,.2,2.31,.24,2.47,.29,.77,.52,1.41,.72,1.93,.91,2.42,.98,2.62,.84,3.35-.19,.96-1.9,1.35-2.25,1.42-.02,0-.05,0-.07,0Z"></path><path class="f" d="M139.02,305.76c-8.09-.79-16.44-2.17-24.73-4.36-2.89-.76-5.77-1.62-8.62-2.6l-.69-6.46-.04,6.21c-3.07-1.07-6.12-2.26-9.12-3.59l-.84,2.41c-.23,.67-.97,1.03-1.64,.79l-11.98-4.18-7.38-2.57c.07-2.31,.15-4.48,.24-6.47,.05-1,.09-1.96,.15-2.86,0-.09,.01-.18,.01-.27,.25-4.29,.55-7.56,.93-9.5,.04-.22,.08-.43,.13-.64,.09-.43,.17-.84,.26-1.25h0c.08-.39,.16-.76,.25-1.12,.55-2.41,1.13-4.52,1.72-6.37h0c1.24-3.87,2.54-6.6,3.68-8.51,1.97-3.29,3.5-4.13,3.5-4.13h.11l10.79-.1h0l18.53-.17,11.57-.1s2.72-.47,8.08,17.4h0c.02,.06,.03,.12,.05,.18h0c.33,1.11,.67,2.28,1.02,3.52h0c.16,.56,.31,1.13,.47,1.72,.08,.31,.17,.62,.25,.93,.32,1.19,.62,2.66,.9,4.36,.87,5.31,1.55,12.95,2.08,22.04,.1,1.83,.2,3.73,.3,5.68Z"></path><path d="M56.49,224.01c-.32,.5,18.14,9,18.14,9l4.76-5.86-4.06,49.64,65.88,1.35-3.99-49.42,10.24,2.62s-9.67-40.8-27.76-43.83c-2.26-.38-5.65,5.75-8.54,5.82-6.27,.14-15.35-6.85-22.56-5.82-3.65,.52-15.9,11.11-32.11,36.51Z"></path><path class="f" d="M129.1,212.02l-41.93-.24s-3.36,19.5-9.44,23.3l-2.39,41.72,59.53,1.22-5.77-65.99Z"></path><path class="e" d="M137.54,302.11c-.21,.35-.79,.23-.81-.17-.1-2,.19-5.58,.36-7.28,.12-1.19-.79-4.68-.79-4.68,0,0-4.46,4.45-4.78,3.26-.31-1.19,4.04-6.32,3.93-8.06s-4.81-57.39-4.81-57.39l13.19-.74-3.33,57.67s2.11,6.7,1.79,8.12c-.41,1.8-3.42,7.02-4.75,9.27Z"></path><path d="M137.17,302.64c-.06,0-.13,0-.19-.02-.33-.08-.55-.34-.56-.66-.12-2.42,.31-6.83,.36-7.33,.08-.78-.36-2.83-.64-4.02-1.3,1.27-3.64,3.37-4.51,3.13-.2-.05-.35-.2-.4-.42-.18-.68,.58-1.94,1.83-3.93,1-1.59,2.14-3.4,2.09-4.19-.1-1.72-4.76-56.82-4.81-57.38l-.03-.33,13.88-.78-3.35,57.97c.29,.92,2.1,6.81,1.78,8.23-.4,1.78-3.17,6.63-4.78,9.36h0c-.14,.23-.39,.37-.65,.37Zm-.69-13.29l.14,.54c.04,.14,.92,3.56,.79,4.79-.18,1.78-.46,5.31-.36,7.23,0,.04,.04,.06,.07,.07,.02,0,.1,.02,.14-.05h0c1.28-2.17,4.31-7.41,4.71-9.18,.22-.98-.94-5.29-1.78-7.95l-.02-.06v-.06l3.32-57.31-12.5,.7c.39,4.61,4.68,55.41,4.78,57.06,.06,1-1.03,2.74-2.19,4.57-.77,1.23-1.82,2.9-1.76,3.39,.5-.02,2.4-1.53,4.25-3.37l.4-.4Z"></path><path class="h" d="M113.44,273.37l-29.61-10.33c-1.63-.57-2.49-2.35-1.93-3.99l3.22-9.25c.57-1.63,2.35-2.49,3.99-1.93l29.61,10.33-5.29,15.16Z"></path><rect class="h" x="77.57" y="269.08" width="19.54" height="10.93" transform="translate(-200.65 266.61) rotate(-70.78)"></rect><path d="M97.79,289.31l-1.97,5.66-.84,2.41c-.23,.67-.97,1.03-1.64,.79l-11.98-4.18-7.38-2.57-.58-.2c-.67-.23-1.03-.97-.79-1.64l1.62-4.63,.82-2.35,.27-.78,.11-.31c.23-.67,.97-1.03,1.64-.79l2.08,.73,1.08,.38,1.13,.39,8.11,2.83,7.53,2.63c.67,.23,1.03,.97,.79,1.64Z"></path><rect x="108.68" y="263.75" width="17.76" height="4.89" rx=".97" ry=".97" transform="translate(-172.5 289.53) rotate(-70.77)"></rect><path d="M120.98,275l-3.61-1.26,4.4-12.61,3.61,1.26c1.18,.41,1.8,1.7,1.39,2.87l-2.91,8.35c-.41,1.18-1.7,1.8-2.87,1.39Z"></path><path d="M134.97,273.86l-10.96-3.82c-.68-.24-1.04-.99-.81-1.67h0c.24-.68,.99-1.05,1.67-.81l10.96,3.82c.68,.24,1.04,.99,.81,1.67h0c-.24,.68-.99,1.05-1.67,.81Z"></path><path d="M87.34,260.43s-.07,0-.1-.02c-.17-.06-.26-.24-.21-.41l2.93-8.96c.06-.17,.24-.26,.41-.21,.17,.06,.26,.24,.21,.41l-2.93,8.96c-.04,.14-.17,.22-.31,.22Z"></path><path d="M107.28,271.54s-.07,0-.11-.02l-24.05-8.46c-.17-.06-.26-.24-.2-.41,.06-.17,.24-.26,.41-.2l24.05,8.46c.17,.06,.26,.24,.2,.41-.05,.13-.17,.22-.3,.22Z"></path><path class="e" d="M63.96,220.39c5.96-2.9,13.46,6.01,13.46,6.01,.29,.25-11.39,20.06-9.61,22.65,3.97,5.73,11.07,15.87,14.51,19.91,.88-.95,2.79-2.4,3.85-2.63,.17-.04,.32,.1,.27,.26-.23,.73-.85,2.69-1.34,4.04,2.98,1.69,8.79,3.27,8.28,4.97-.91,3.03-3.51,7.74-6.66,6.75-4.9-1.53-9.8-9.11-10.56-9.94-2.67-2.9-22.27-18.49-24.52-25.54-.99-3.09,7.66-24.22,12.31-26.48Z"></path><path d="M87.6,282.81c-.32,0-.64-.05-.95-.15-4.19-1.31-8.28-6.8-10.02-9.15-.31-.42-.56-.76-.68-.88-.65-.7-2.36-2.21-4.53-4.12-6.86-6.04-18.34-16.15-20.07-21.55-.58-1.82,1.69-8.42,4.05-13.78,1.18-2.68,5.28-11.56,8.42-13.09h0c6.03-2.93,13.33,5.48,13.83,6.07,.25,.22,.2,.31-1.78,4.05-1.53,2.87-3.84,7.22-5.54,10.98-2.6,5.73-2.52,7.26-2.24,7.66,3.86,5.57,10.76,15.42,14.26,19.62,.97-.96,2.7-2.23,3.77-2.46,.2-.04,.4,.02,.54,.17,.13,.14,.17,.33,.11,.5-.23,.72-.78,2.47-1.26,3.79,.9,.48,2.03,.97,3.13,1.43,2.95,1.26,5.5,2.34,5.06,3.78-.76,2.54-2.44,5.6-4.48,6.68-.54,.29-1.08,.43-1.63,.43Zm-21.07-62.67c-.82,0-1.64,.16-2.42,.54-1.95,.95-5.06,5.84-8.11,12.77-2.69,6.12-4.46,11.97-4.03,13.32,1.67,5.23,13.07,15.27,19.88,21.26,2.18,1.92,3.9,3.44,4.57,4.16,.14,.15,.37,.46,.72,.93,1.71,2.3,5.71,7.67,9.7,8.92,.68,.21,1.39,.14,2.08-.24,1.87-.99,3.47-3.96,4.17-6.3,.27-.89-2.49-2.06-4.7-3.01-1.21-.52-2.47-1.05-3.43-1.6l-.24-.13,.09-.26c.45-1.23,1.01-2.97,1.28-3.83-.97,.3-2.67,1.56-3.52,2.49l-.25,.27-.24-.28c-3.44-4.05-10.58-14.23-14.53-19.94-1.31-1.9,3.31-10.96,7.75-19.31,.81-1.53,1.59-2.98,1.77-3.43-.79-.89-5.81-6.35-10.55-6.35Z"></path><path d="M105,291.35s-.03,0-.04,0c-.18-.02-.3-.18-.28-.36l1.05-8.29,5.1-3.37v-4.54c0-.18,.14-.32,.32-.32s.32,.14,.32,.32v4.89l-5.15,3.4-1.01,7.99c-.02,.16-.16,.28-.32,.28Z"></path><path d="M142.2,214.25s6,14.74,5.21,18.22h-16.76l-1.19-16.47,12.75-1.76Z"></path><polygon points="81.14 224.42 74.6 235.35 56.96 224.41 67.6 209.71 81.14 224.42"></polygon><path class="f" d="M86.02,143.36v3.59h37.09v-3.59c0-6.83-3.73-12.8-9.27-15.99-2.73-1.57-5.9-2.47-9.28-2.47-3.67,0-7.09,1.06-9.97,2.89-1.14,.72-2.2,1.57-3.15,2.52-3.36,3.34-5.43,7.96-5.43,13.06Z"></path><path class="h" d="M94.61,127.7s14.73,5.04,18.98,19.48c.43,1.45,6.33,1.47,6.68-.46,1.84-10.25-6.41-19.44-6.41-19.44-2.73-1.58-5.9-2.48-9.28-2.48-3.67,0-7.09,1.06-9.97,2.9Z"></path><path class="f" d="M86.73,145.86h39.66c.63,0,1.15,.51,1.15,1.15v1.13c0,.63-.51,1.15-1.15,1.15h-39.66c-.63,0-1.15-.51-1.15-1.15v-1.13c0-.63,.51-1.15,1.15-1.15Z" transform="translate(213.13 295.16) rotate(180)"></path><path class="f" d="M121.05,186.97s6.33,11.26,6.73,26.41h-3.93s-1.32-20.4-6.21-26.25l3.41-.15Z"></path><path class="f" d="M87.78,186.97s6.65,11.59,7.05,26.41h-3.93s-1.18-19.37-6.07-25.1l2.95-1.31Z"></path><path d="M115.11,234.37h-4.58c-5.25,0-9.53-4.27-9.53-9.53v-3.82c0-.7,.57-1.28,1.28-1.28h21.09c.7,0,1.28,.57,1.28,1.28v3.82c0,5.25-4.27,9.53-9.53,9.53Zm-12.83-13.98c-.35,0-.63,.28-.63,.63v3.82c0,4.9,3.99,8.88,8.89,8.88h4.58c4.9,0,8.89-3.99,8.89-8.88v-3.82c0-.35-.28-.63-.63-.63h-21.09Z"></path></g><g><path class="e" d="M167.67,163.08s.56,15.15-.78,16.87c-1.34,1.73-8.36,5.66-8.36,5.66l20.24,25.11,18.02-24.81s-7.69-3.37-8.41-5.37c-1.01-2.77-.82-17.47-.82-17.47h-19.88Z"></path><path d="M178.78,211.26l-20.75-25.74,.33-.19c.07-.04,6.98-3.92,8.27-5.58,.93-1.2,.94-10.62,.71-16.67,0-.18,.13-.33,.31-.33,.18-.01,.33,.13,.33,.31,.06,1.56,.53,15.32-.85,17.08-1.21,1.56-6.7,4.74-8.13,5.56l19.74,24.49,17.54-24.15c-1.67-.75-7.54-3.51-8.22-5.39-1.01-2.79-.85-16.98-.84-17.59,0-.18,.15-.33,.33-.32,.18,0,.32,.15,.32,.33,0,.15-.17,14.68,.8,17.36,.56,1.53,6.14,4.26,8.24,5.18l.37,.16-18.5,25.47Z"></path><path d="M172.97,132.6c-3.18,.34-10.9,1.06-10.9,6.73,0,6.47,1.09,14.78,1.75,19.16,.26,1.73,1.74,3.01,3.49,3.01h19.57c1.79,0,3.3-1.34,3.5-3.12,.69-6,2.03-18.69,1.32-20.6-2.42-6.51-13.69-5.7-18.72-5.17Z"></path><path class="e" d="M173.23,168.18c5.55,.64,12.48-.41,14.4-2.33,1.13-1.13,1.58-5.59,1.71-10.68,0-.15,.09-.28,.21-.35,1.37-.79,3.36-2.47,3.3-4.99-.05-2.19-1.69-1.73-2.98-1.02-.23,.13-.51-.04-.51-.3-.1-6.14-.45-11.52-.45-11.52h-24.82s.05,5.47,.29,11.61c.01,.28-.28,.45-.52,.32-1.31-.76-3.12-1.38-3.17,.92-.07,2.86,2.49,4.64,3.81,5.26,.14,.06,.23,.2,.24,.35,.29,4.33,.7,8.07,1.3,9.4,.32,.72,.95,1.32,1.78,1.81l5.43,1.54Z"></path><path d="M176.74,168.69c-1.19,0-2.38-.06-3.54-.2-.18-.02-.3-.18-.28-.36,.02-.18,.18-.3,.36-.28,5.58,.65,12.32-.42,14.14-2.24,.63-.63,1.42-2.96,1.61-10.46,0-.26,.15-.5,.38-.62,.96-.55,3.2-2.11,3.14-4.71-.01-.63-.17-1.03-.45-1.19-.39-.22-1.12-.07-2.06,.44-.21,.11-.45,.11-.66,0-.2-.12-.33-.33-.33-.57-.09-5.24-.36-9.98-.43-11.2h-24.19c.01,1.27,.08,6.06,.28,11.27,0,.24-.11,.48-.32,.6-.21,.13-.47,.13-.68,0-1.02-.59-1.81-.78-2.23-.55-.29,.16-.44,.56-.46,1.2-.07,3.13,3.25,4.78,3.62,4.96,.24,.11,.4,.35,.42,.62,.42,6.26,.92,8.51,1.27,9.28,.28,.63,.84,1.19,1.65,1.66,.15,.09,.21,.29,.12,.44-.09,.15-.29,.21-.44,.12-.93-.54-1.57-1.2-1.91-1.95-.54-1.2-.99-4.4-1.33-9.51,0-.03-.02-.06-.05-.08-1.88-.88-4.06-2.87-3.99-5.56,.02-.87,.28-1.46,.79-1.74,.64-.36,1.61-.18,2.87,.55,0,0,.01,0,.03,0,.01,0,.01-.02,.01-.02-.24-6.07-.29-11.56-.29-11.62v-.32h25.45l.02,.3c0,.05,.35,5.46,.45,11.53,0,0,0,.02,.01,.02,.01,0,.02,0,.02,0,1.17-.64,2.08-.79,2.69-.43,.49,.29,.75,.87,.77,1.73,.07,2.94-2.4,4.67-3.46,5.28-.03,.02-.05,.05-.05,.08-.16,6.28-.75,9.84-1.8,10.9-1.58,1.58-6.3,2.62-11.13,2.62Z"></path><polygon class="g" points="168.69 189.05 190.87 190 188.45 214.31 164.71 214.31 168.69 189.05"></polygon><path class="f" d="M217.16,247.23s-14.6,4.3-23.57,0c-13.52-6.48-20.06,6.12-31.53,2.97-.71-.19-8.3-.54-16.7-1.19-9.23-.71-12.57-4.99-13.28-6.57-1.09-2.41-1.31-7.25-.31-9.85l10.99-43.99s15.76-7.88,17.44-7.59c2.09,.37,11.28,3.02,11.55,3.58,.94,1.94,5.14,19.39,6.27,19.07,.75-.21,5.42-18.27,6.18-18.87,3.26-2.58,10.21-4.44,10.88-4.26l14.4,8.06,15,44.6c1.9,4.82-2.71,11.64-7.31,14.02Z"></path><path d="M152.18,233.32s-.05,0-.08-.01c-.14-.04-.22-.19-.17-.33l4.86-15.56c.04-.14,.19-.22,.33-.17,.14,.04,.22,.19,.17,.33l-4.86,15.56c-.04,.11-.14,.19-.25,.19Z"></path><path class="f" d="M205.72,274.41v2.18l-.02,2.87h0l-.02,3.25v3.49h-.01l-.07,14.59c-1.37,.48-2.75,1-4.14,1.55,0,0-1.1,.26-3.11,.64-1.33,.26-3.06,.57-5.14,.9-4.43,.71-10.43,1.52-17.52,2.08-.02,0-.05,0-.07,0h-.02c-8.8,.7-19.27,1.01-30.45,.29v-33.26l6.77,.16,1.45,.03,10.61,.25,1.45,.03,4.86,.11,1.72,.04,5.65,.13,5.04,.12,1.56,.04,4.19,.1,1.45,.03,3.31,.08,5.84,.14h0l2.13,.05,1.45,.03h.04l3.06,.07Z"></path><path d="M193.59,239.66c-.1,0-.19-.05-.24-.14-.07-.13-.02-.29,.11-.36l19.44-10.2c.13-.07,.29-.02,.36,.11,.07,.13,.02,.29-.11,.36l-19.44,10.2s-.08,.03-.12,.03Z"></path><path d="M203.04,235.11c-.11,0-.22-.07-.25-.19l-6.89-21.8c-.04-.14,.03-.29,.17-.33,.14-.04,.29,.03,.33,.17l6.89,21.8c.04,.14-.03,.29-.17,.33-.03,0-.05,.01-.08,.01Z"></path><path d="M183.16,151.6h0c-.36,0-.64-.3-.64-.65v-.58c0-.36,.29-.64,.66-.64,.36,0,.64,.3,.64,.65v.58c0,.35-.3,.64-.65,.64Z"></path><path d="M171.65,151.6c-.35,0-.64-.28-.64-.64v-.58c0-.36,.28-.65,.63-.65h0c.35,0,.64,.28,.64,.64v.58c0,.36-.28,.65-.63,.65h0Z"></path><path d="M169.2,147.57c-.11,0-.22-.06-.28-.16-.09-.15-.04-.35,.11-.44,2.07-1.23,4.25-.65,4.35-.62,.17,.05,.27,.23,.22,.4-.05,.17-.22,.27-.4,.22-.03,0-2.02-.53-3.85,.56-.05,.03-.11,.05-.16,.05Z"></path><path d="M185.6,147.67c-.06,0-.11-.01-.16-.05-1.83-1.09-3.83-.56-3.85-.56-.17,.05-.35-.05-.4-.23-.05-.17,.05-.35,.22-.4,.09-.03,2.28-.61,4.35,.62,.15,.09,.2,.29,.11,.44-.06,.1-.17,.16-.28,.16Z"></path><polygon class="f" points="143.76 247.23 145.16 273 205.72 274.41 206.33 242.96 143.76 247.23"></polygon><path d="M149.38,249.48c-2.32,0-4.88-.19-7.62-.69-.14-.03-.24-.16-.21-.31,.03-.14,.16-.24,.31-.21,10.5,1.92,18.32-.76,19.54-1.21,.02-5.24,.93-9.16,1.18-10.16l-16.45-5.54c-.14-.05-.21-.2-.17-.34,.05-.14,.2-.21,.34-.17l16.93,5.7-.07,.24s-1.22,4.36-1.22,10.44v.18l-.16,.07c-.06,.03-4.94,2-12.38,2Z"></path><path d="M175.61,305.45c-.16,0-.3-.12-.32-.29l-1.1-11.47-3.56-.9-2.24-6.29c-.06-.17,.03-.35,.2-.41,.17-.06,.35,.03,.41,.2l2.12,5.97,3.67,.93,1.14,11.92c.02,.18-.11,.33-.29,.35-.01,0-.02,0-.03,0Z"></path><path class="e" d="M161.66,247.23l32.02-8.16s8.46-3.77,8.52-6.86l-3.17-9.75c-.81,.35-3.9,4.99-7.3,7.43-2.74,1.96-6,1.85-6,1.85l-22.6,3-1.47,12.49Z"></path><path d="M161.29,247.66l1.55-13.21,22.88-3.03h.03s3.19,.08,5.8-1.79c2.07-1.48,4-3.77,5.42-5.45,1.06-1.25,1.58-1.86,1.94-2.01l.32-.14,3.3,10.13v.05c-.06,3.26-8.36,6.99-8.71,7.15l-.05,.02-32.48,8.28Zm2.13-12.63l-1.38,11.78,31.54-8.04c2.3-1.03,8.17-4.16,8.3-6.51l-3.01-9.26c-.35,.34-.89,.98-1.41,1.6-1.44,1.7-3.4,4.03-5.53,5.56-2.69,1.93-5.82,1.92-6.17,1.91l-22.33,2.96Z"></path><path class="f" d="M158.29,234.82s-2.27,13.07-1.49,14.66c.78,1.59,6.54-.48,6.54-.48l1.36-12.68-6.41-1.5Z"></path><path d="M158.43,250.4c-.89,0-1.63-.2-1.91-.78-.81-1.64,1.22-13.51,1.46-14.86l.06-.34,7.02,1.64-1.41,13.17-.19,.07c-.68,.24-3.19,1.1-5.03,1.1Zm.12-15.19c-.9,5.22-1.99,13.05-1.46,14.13,.44,.89,3.68,.22,5.95-.58l1.31-12.2-5.8-1.35Z"></path><path class="e" d="M196.15,233.42s-25.17-3.32-29.35-3.74c-4.19-.42-3.42-2.82-6.98-3.24-3.56-.42-5.04-1.71-5.04-1.71l-2.6,8.32s13.41,4.55,15.09,5.39c1.67,.84,23.65,10.47,29.93,9.84,6.28-.63,8.16-1.46,8.16-1.46l-9.21-13.4Z"></path><path d="M196.56,248.63c-7.17,0-27.75-9.06-29.43-9.9-1.64-.82-14.91-5.33-15.05-5.37l-.3-.1,2.84-9.1,.37,.32s1.47,1.23,4.86,1.63c1.8,.21,2.58,.92,3.33,1.6,.8,.73,1.56,1.43,3.65,1.63,4.14,.41,29.11,3.71,29.36,3.74l.14,.02,9.51,13.83-.35,.16c-.08,.04-2,.86-8.26,1.49-.21,.02-.43,.03-.67,.03Zm-43.98-15.78c2.04,.69,13.28,4.53,14.83,5.3,1.65,.83,23.56,10.42,29.75,9.81,4.65-.47,6.88-1.05,7.69-1.31l-8.89-12.93c-2.04-.27-25.23-3.32-29.2-3.72-2.3-.23-3.21-1.06-4.02-1.8-.74-.67-1.37-1.25-2.97-1.44-2.64-.31-4.17-1.09-4.83-1.51l-2.37,7.6Z"></path><path class="f" d="M195.83,233.23l7.48-1.82s3.82,7.42,4.85,16.9c0,0-9.2,1.82-10.09,.91-.88-.91-3.11-10.07-2.25-15.99Z"></path><path d="M199.59,249.78c-.86,0-1.51-.1-1.74-.34-1.05-1.09-3.2-10.35-2.34-16.26l.03-.22,7.94-1.93,.12,.23c.04,.07,3.86,7.58,4.88,17.01l.03,.29-.29,.06c-1.64,.33-6.1,1.16-8.64,1.16Zm-3.47-16.29c-.76,5.76,1.38,14.66,2.19,15.5,.48,.47,5.25-.12,9.5-.94-.95-8.26-4.04-14.97-4.67-16.26l-7.02,1.71Z"></path><polygon class="f" points="172.25 184.83 163.58 188.42 153.54 180.54 160.74 179.67 172.25 184.83"></polygon><path d="M163.53,188.79l-10.8-8.48,8.06-.98,12.26,5.51-9.53,3.95Zm-9.18-8.02l9.28,7.28,7.8-3.23-10.74-4.82-6.34,.77Z"></path><polygon class="f" points="183.97 184.68 192.23 189.05 200.88 180.63 195.54 179.03 183.97 184.68"></polygon><path d="M192.29,189.44l-9.02-4.77,12.25-5.98,5.98,1.79-9.21,8.96Zm-7.6-4.75l7.49,3.96,8.09-7.87-4.69-1.41-10.89,5.32Z"></path><path d="M178.02,231.38c-.18,0-.33-.15-.33-.33v-27.38c0-.18,.15-.33,.33-.33s.33,.15,.33,.33v27.38c0,.18-.15,.33-.33,.33Z"></path><rect x="177.34" y="243.15" width=".64" height="31.63"></rect><path d="M177.26,157.69s-.05,0-.08,0c-.35-.07-2.08-.5-2.26-1.47-.14-.74-.06-.94,.9-3.4,.21-.54,.46-1.19,.77-1.98,.07-.19,.28-.28,.47-.21,.19,.07,.28,.28,.21,.47-.31,.79-.56,1.45-.77,1.98-.94,2.4-.96,2.48-.86,3.01,.07,.36,1.03,.75,1.7,.89,.2,.04,.32,.23,.28,.43-.04,.17-.19,.29-.35,.29Z"></path><path d="M180.94,160.38c.38,.56-1.55,2.47-3.79,2.37-3.65-.16-4.78-2.66-3.9-2.49,.35,.07,1.67,.82,3.86,.88,2.36,.06,3.58-1.13,3.83-.76Z"></path><path d="M166.49,137.54s16.66,4.81,24.2-1.05c7.53-5.86-4.44-6.1-11.64-5.37-7.2,.73-17.3,2.19-12.56,6.41Z"></path><path d="M169.96,133.83s-11.28-2.73-7.8,12.08c.6,2.54,.48,3.69,.78,1.62,.33-2.35,1.57-6.99,6.67-10.31,.99-.65,.36-3.39,.36-3.39Z"></path><rect x="144.4" y="269.09" width="61.92" height="7.5"></rect><rect class="f" x="151.92" y="268.13" width="1.45" height="9.13"></rect><rect class="f" x="163.98" y="268.28" width="1.45" height="9.13"></rect><rect class="f" x="188.45" y="268.28" width="1.45" height="9.13"></rect><rect class="f" x="201.17" y="268.44" width="1.45" height="9.13"></rect><rect class="g" x="170.29" y="268.28" width="13.96" height="9.43"></rect><rect x="172.01" y="269.73" width="10.69" height="6.55"></rect><path class="f" d="M194.07,136.04v3.35h-34.61v-3.35c0-6.37,3.48-11.94,8.65-14.92,2.55-1.47,5.5-2.31,8.66-2.31,3.42,0,6.61,.99,9.3,2.7,1.06,.68,2.05,1.46,2.94,2.35,3.13,3.12,5.07,7.43,5.07,12.18Z"></path><path class="h" d="M186.07,121.43l-4.49,17.97-.08,.32h-8.2l-.09-.32-5.1-18.36c2.55-1.47,5.5-2.32,8.66-2.32,3.42,0,6.61,.99,9.3,2.71Z"></path><path class="f" d="M158.34,138.12h36.86c.63,0,1.15,.51,1.15,1.15v.9c0,.63-.51,1.15-1.15,1.15h-36.86c-.63,0-1.15-.51-1.15-1.15v-.9c0-.63,.51-1.15,1.15-1.15Z"></path></g><g><path d="M263.53,294.79c-9.87-.68-19.31-.98-28.83-.2l.32-3.52,.85-9.3-3,11.83h0l-.3,1.18c-.26,.02-.52,.05-.78,.08l-4.44,5.22-4.82-3.87c-5.51,1.04-11.12,2.52-16.92,4.57-1.37,.48-2.75,1-4.14,1.55,0,0-1.1,.26-3.11,.64,2.14-6.72,4.09-12.89,5.73-18.21,.29-.92,.56-1.82,.83-2.69,.28-.9,.54-1.77,.8-2.62h0c.54-1.8,1.04-3.45,1.47-4.95,.81-2.76,1.43-4.99,1.82-6.58,.89-3.58,1.79-6.55,2.66-9.02,.19-.53,.37-1.03,.56-1.52h0c1.14-2.98,2.23-5.13,3.21-6.68,2.52-3.97,4.32-3.99,4.36-3.99h.39l32.69,.32s.15,.08,.41,.27c.16,.12,.37,.28,.61,.5,.35,.31,.79,.74,1.27,1.3,1,1.16,2.21,2.92,3.41,5.48,.29,.63,.59,1.31,.88,2.05,1.05,2.67,2.04,6.04,2.8,10.26,.11,.64,.22,1.46,.32,2.45h0c.06,.57,.11,1.19,.16,1.86,.36,4.73,.61,12.08,.77,21.04,.01,.83,.03,1.68,.04,2.54Z"></path><path d="M245.27,143.3s-7.62,1.55-14.5,7.92c-6.88,6.37-6.38,6.7-5.75,12.17,.64,5.48,.14,6.99-4.22,8.58-1.56,.57-2.71,1.38-3.73,3.16-1.02,1.78-.59,8.15-.59,8.15l46.86-.36s2.65-6.01,1.61-8.85c-1.89-5.17-6.28-5.88-4.63-10.96,.88-2.72,3.22-18.64-15.06-19.81Z"></path><path class="i" d="M214.71,258.38c-.16,0-.3-.12-.32-.28-.02-.18,.11-.34,.28-.36l13.22-1.54c.17-.02,.34,.11,.36,.28,.02,.18-.11,.34-.28,.36l-13.22,1.54s-.03,0-.04,0Z"></path><polygon class="e" points="248.46 280.72 237.62 293.39 235.32 296.08 235.32 296.08 234.17 297.42 229.41 302.98 224.26 298.86 212.32 289.33 206.25 284.48 205.41 283.81 200.2 279.65 198.1 277.98 197.49 277.5 199.15 275.49 199.15 275.49 199.72 274.8 201.43 272.73 202.98 270.85 203.48 270.25 203.69 269.99 206.47 266.63 212.63 259.16 213.2 258.47 215.46 255.73 215.9 255.19 219.29 257.85 221.74 259.77 237.65 272.25 238.97 273.28 248.46 280.72"></polygon><path d="M229.45,303.42l-32.42-25.88,18.82-22.8,33.07,25.93-19.46,22.75Zm-31.5-25.98l31.42,25.08,18.62-21.76-32.04-25.12-18,21.8Z"></path><path class="e" d="M211.02,265.9c-1.87,7.42-3.02,11.74-2.82,12.9,.29,1.63,3.19,7.04,3.21,8.34,.01,.79-3.24-1.97-3.4-2.06l-.58,1.33s-.92,.52-1.5,.08c-.5-.38-.55-1.33-1.05-1.6-.05-.02-1.12-.12-1.46-.3-.43-.23-.54-1.24-.8-1.6-.19-.27-1.16-.13-1.49-.49-.52-.57-.06-1.39-.42-1.81-.34-.39-1.13,.05-1.69-.67-.55-.7,3.36-4.06,3.55-5,.64-3.3,.74-19.64,4.47-24.97,3.73-5.33,7.04,3.76,3.99,15.84Z"></path><path d="M211.27,287.61c-.4,0-1.14-.43-3.1-1.99l-.04-.03-.46,1.05-.09,.05s-1.11,.62-1.86,.06c-.31-.23-.47-.61-.61-.93-.11-.25-.22-.51-.37-.62-.04,0-.09-.01-.15-.02-.53-.07-1.06-.15-1.34-.3-.37-.2-.54-.71-.69-1.15-.07-.21-.14-.42-.21-.53-.07-.04-.28-.07-.43-.09-.37-.05-.8-.11-1.05-.39-.37-.41-.36-.89-.35-1.28,0-.23,0-.44-.07-.54-.06-.07-.22-.08-.41-.09-.37-.03-.88-.07-1.3-.59-.46-.58,.38-1.57,1.91-3.27,.67-.75,1.51-1.67,1.57-1.99,.16-.82,.29-2.51,.45-4.64,.5-6.53,1.25-16.41,4.07-20.45,1.3-1.86,2.42-1.86,3.13-1.54,2.5,1.14,3.7,8.67,1.44,17.64l-.57,2.24c-1.46,5.75-2.42,9.56-2.25,10.53,.13,.73,.85,2.35,1.54,3.91,.85,1.91,1.66,3.72,1.67,4.48,0,.19-.09,.35-.24,.42-.06,.03-.13,.05-.21,.05Zm-3.42-2.98l.31,.17c.05,.03,.11,.07,.41,.31,1.44,1.14,2.14,1.61,2.48,1.77-.17-.8-.91-2.47-1.58-3.97-.74-1.67-1.45-3.25-1.59-4.06-.19-1.11,.68-4.55,2.26-10.8l.57-2.24c2.3-9.11,.92-15.98-1.08-16.9-.88-.4-1.75,.5-2.33,1.32-2.73,3.9-3.5,14.06-3.96,20.13-.16,2.15-.29,3.85-.46,4.71-.09,.47-.72,1.18-1.73,2.3-.71,.78-1.88,2.08-1.87,2.46,.23,.28,.51,.3,.82,.32,.29,.02,.61,.05,.84,.31,.25,.28,.24,.65,.23,.97,0,.33-.01,.61,.18,.83,.1,.11,.42,.15,.66,.19,.35,.05,.68,.1,.85,.33,.13,.18,.22,.44,.31,.72,.09,.28,.24,.71,.38,.79,.19,.1,.87,.2,1.12,.23,.23,.03,.27,.04,.34,.07,.36,.19,.53,.58,.69,.95,.12,.27,.24,.55,.41,.68,.31,.24,.85,.04,1.06-.06l.68-1.55Z"></path><path class="e" d="M266.07,233.86c-.23,.21,.22,.6-7.24,10.41-4.58,6.03-7.21,9.58-8.23,10.14-2.31,1.26-5.46,3.42-5.02,3.61l11.73,1.84s-.92-2.7-.31-3.42c2.16-2.53,15.37-18.12,17.19-24.29,1.82-6.17-8.12,1.71-8.12,1.71Z"></path><path d="M257.78,260.26l-12.34-1.95c-.14-.06-.23-.19-.24-.34,0-.18-.02-.46,1.85-1.76,1.03-.71,2.33-1.52,3.38-2.1,.86-.47,3.2-3.56,6.75-8.24l1.38-1.82c4.07-5.35,6.46-8.78,7.1-10.17,.05-.12,.09-.2,.18-.28l.02-.02c1.09-.86,6.6-5.1,8.34-3.92,.59,.4,.68,1.23,.29,2.56-1.73,5.87-13.65,20.17-17.26,24.41-.34,.4,.02,2.09,.37,3.11l.17,.51Zm-11.7-2.49l10.76,1.69c-.26-.9-.65-2.57-.09-3.23,3.59-4.22,15.43-18.42,17.13-24.18,.29-.98,.28-1.64-.03-1.84-1.05-.71-5.18,1.99-7.55,3.88-.01,.02-.02,.04-.04,.08-.66,1.44-3.07,4.9-7.17,10.3l-1.38,1.82c-3.86,5.08-5.98,7.88-6.96,8.41-1.87,1.02-3.96,2.44-4.67,3.08Z"></path><path class="e" d="M248.9,171.07s-.66,16.15-.04,17c2.11,2.91,8.36,5.47,9.79,5.85,1.43,.38-23.34,9.83-23.34,9.83l-14.05-9.01,6.38-2.32s4.22-.57,5.91-2.32c1.69-1.75,2.52-18.18,2.52-18.18l12.83-.86Z"></path><path d="M235.28,204.11l-14.74-9.45,7.06-2.56s4.13-.57,5.72-2.22c1.18-1.22,2.1-11.42,2.43-17.97v-.29l13.49-.9v.36c-.26,6.08-.51,16.03-.11,16.81,1.97,2.72,7.97,5.28,9.61,5.72,.21,.06,.29,.22,.3,.35,.02,.35,.04,.75-11.88,5.52-5.79,2.31-11.66,4.55-11.72,4.58l-.15,.06Zm-13.29-9.29l13.37,8.57c8-3.05,20.42-7.97,22.73-9.31-2.03-.69-7.48-3.07-9.48-5.82-.61-.85-.2-12.66-.04-16.85l-12.19,.81c-.14,2.65-.94,16.39-2.59,18.1-1.69,1.74-5.62,2.34-6.06,2.41l-5.74,2.09Z"></path><path class="e" d="M248.7,173.71c1.9-1.26,5.23-3.81,5.32-6.29,.09-2.49-2.75-2.2-3.61-1.8-.58,.26,.01-12.17,.01-12.17l-19.24-1.03s-2.85,10.69-2.16,17.55c.69,6.89,3.85,8.68,8.87,8.9,2.48,.11,4.44-.43,5.98-1.22l4.84-3.94Z"></path><path d="M238.52,179.2c-.21,0-.43,0-.65-.01-2.89-.13-4.82-.76-6.25-2.03-1.63-1.44-2.58-3.79-2.92-7.16-.69-6.84,2.14-17.56,2.17-17.67l.07-.25,19.82,1.06v.32c-.25,4.98-.38,10.52-.19,11.76,.7-.21,1.98-.36,2.89,.25,.43,.28,.92,.86,.88,1.96-.09,2.61-3.46,5.22-5.46,6.55-.15,.1-.35,.06-.45-.09-.1-.15-.06-.35,.09-.45,1.9-1.26,5.09-3.72,5.17-6.04,.02-.66-.17-1.12-.6-1.41-.74-.5-2.04-.33-2.56-.09-.12,.05-.25,.04-.35-.03-.22-.15-.46-.31-.3-6.49,.06-2.4,.16-4.8,.2-5.64l-18.66-1c-.42,1.66-2.7,11.04-2.09,17.19,.69,6.88,3.79,8.4,8.56,8.61,2.14,.1,4.1-.3,5.82-1.18,.16-.08,.35-.02,.43,.14,.08,.16,.02,.35-.14,.43-1.65,.84-3.49,1.26-5.49,1.26Z"></path><path class="e" d="M261.87,195.05c-1.58-1.4-7.85-3.1-7.85-3.1l-10.03,2.18-3.54-1.41-4.86-.3-8.35-1.08s-9.27,2.71-10.78,5.76c-5.18,10.49-17.67,76.42-17.67,76.42l11.18,1.33,9.06-40.27,.73,12.15,33.43,1.31,2.51-26.9,6.8,10.08-9.91,19.03,6.82,6.39,20.7-28.12s-11.12-27.16-18.26-33.47Z"></path><path d="M210.21,275.17l-11.76-1.4,.06-.31c.51-2.69,12.56-66.09,17.69-76.5,1.54-3.13,10.57-5.8,10.96-5.91l.06-.02h.06l8.35,1.09,4.88,.3,3.5,1.39,10.01-2.18,.07,.02c.26,.07,6.35,1.74,7.97,3.17,7.11,6.29,17.88,32.47,18.34,33.58l.06,.15-.1,.13-20.9,28.38-7.23-6.76,1.03-1.98h-.09l-33.69-1.33-.62-10.35-8.67,38.51Zm-11.07-1.91l10.61,1.26,9.46-42.04,.83,13.95,32.89,1.29,2.56-27.44,7.36,10.91-9.88,18.99,6.42,6.01,20.41-27.72c-.91-2.2-11.39-27.26-18.12-33.21h0c-1.43-1.26-6.98-2.83-7.66-3.02l-10.04,2.19-3.58-1.43-4.81-.29-8.31-1.08c-.78,.24-9.17,2.81-10.54,5.59-4.92,9.97-16.65,71.13-17.58,76.04Zm56.78-51.28l-2.42,25.91,8.67-16.65-6.25-9.26Z"></path><path d="M233.18,164.93s-.05,0-.07,0c-.29-.04-.5-.31-.46-.6l.08-.63c.04-.29,.31-.5,.6-.46,.29,.04,.5,.31,.46,.6l-.08,.63c-.04,.27-.27,.47-.53,.47Z"></path><path d="M241.73,165.31s-.05,0-.07,0c-.29-.04-.5-.31-.46-.6l.08-.63c.04-.29,.31-.5,.6-.46,.29,.04,.5,.31,.46,.6l-.08,.62c-.04,.27-.27,.47-.53,.47Z"></path><path d="M244.59,162.55c-.06,0-.12-.02-.17-.05-1.55-.96-3.26-.54-3.28-.53-.17,.05-.35-.06-.39-.23-.04-.17,.06-.35,.23-.39,.08-.02,2-.5,3.78,.61,.15,.09,.2,.29,.1,.44-.06,.1-.17,.15-.27,.15Z"></path><path d="M235.97,169.17c-.54,0-2.34-.53-2.64-.93-.12-.16-.12-.35-.01-.5,.7-.95,1.26-1.79,1.65-3.25,.33-1.25,.45-2,.39-2.35-.03-.2-.08-.22-.41-.34-.05-.02-.1-.04-.16-.06-.84-.31-2.61-.02-3.22,.12-.17,.04-.35-.07-.39-.24-.04-.17,.07-.35,.24-.39,.1-.02,2.4-.53,3.59-.09,.05,.02,.1,.04,.15,.05,.96,.33,1.13,.8,.43,3.46-.39,1.47-.96,2.38-1.62,3.29,.42,.23,1.58,.56,1.92,.6,.02,0,.05-.01,.07-.01,.18,0,.33,.13,.34,.3,0,.14-.09,.28-.22,.33-.03,0-.07,.01-.11,.01Z"></path><path class="i" d="M258.55,260.27s-.03,0-.05,0l-16.11-2.5c-.18-.03-.3-.19-.27-.37,.03-.18,.19-.29,.37-.27l16.11,2.5c.18,.03,.3,.19,.27,.37-.02,.16-.16,.27-.32,.27Z"></path><polygon class="e" points="258.18 192.91 252.02 187.75 238.73 192.61 242.76 197.77 258.18 192.91"></polygon><polygon class="e" points="224.27 192.27 228.85 187.75 238.73 192.61 234.78 197.1 224.27 192.27"></polygon><path d="M242.63,198.16l16.23-5.12-6.78-5.68-13.39,4.9-9.9-4.87-5.03,4.97,11.1,5.09,3.44-3.9c-.62,6.14-3.91,39.53-3.04,53.2,.01,.18,.16,.32,.34,.32h.02c.19-.01,.33-.17,.32-.36-.88-13.72,2.46-47.47,3.05-53.22l3.65,4.68Zm9.32-10.03l5.53,4.64-14.6,4.6-3.59-4.61,12.66-4.63Zm-17.24,8.6l-9.94-4.56,4.13-4.08,9.36,4.6-3.55,4.04Z"></path><path d="M233,170.63c-.31,.35,1.31,1.75,2.63,1.75,3.33,0,4.36-2.36,3.61-1.99-.28,.14-1.96,.89-3.61,.77-2.11-.15-2.27-.93-2.63-.53Z"></path><path d="M230.29,152.41s18,4.25,19.76,13.22c0,0,1.16-.27,1.92-.06,.98,.27,1.26,.67,1.26,.67l1.62-14.2-24.56,.36Z"></path><path class="f" d="M261.73,151.41v3.35h-34.61v-3.35c0-6.37,3.48-11.94,8.65-14.92,2.55-1.47,5.5-2.31,8.66-2.31,3.42,0,6.62,.99,9.3,2.7,1.06,.68,2.05,1.46,2.94,2.35,3.13,3.12,5.07,7.43,5.07,12.18Z"></path><path class="h" d="M253.73,136.8s-13.74,4.71-17.71,18.18c-.4,1.35-5.91,1.38-6.23-.43-1.72-9.57,5.98-18.14,5.98-18.14,2.55-1.47,5.5-2.32,8.66-2.32,3.42,0,6.62,.99,9.3,2.71Z"></path><path class="f" d="M224.14,153.75h36.86c.63,0,1.15,.51,1.15,1.15v.9c0,.63-.51,1.15-1.15,1.15h-36.86c-.63,0-1.15-.51-1.15-1.15v-.9c0-.63,.51-1.15,1.15-1.15Z"></path><path d="M219.05,234.87h0c-.16,0-.29-.14-.29-.3,.25-10.5,2.88-22.79,2.9-22.91,.03-.16,.19-.26,.35-.22,.16,.03,.26,.19,.22,.35-.03,.12-2.64,12.36-2.89,22.8,0,.16-.13,.29-.29,.29Z"></path></g></g></g></g></g></svg> 