<?xml version="1.0" encoding="UTF-8"?> <svg xmlns="http://www.w3.org/2000/svg" xmlns:xlink="http://www.w3.org/1999/xlink" viewBox="0 0 556.37 511.62"><defs><style>.h,.i,.j,.k,.l{fill:none;}.i{stroke-width:.19px;}.i,.m,.j,.k,.l{stroke-miterlimit:10;}.i,.j,.k,.l{stroke:#1d1d1b;stroke-linecap:round;}.n{fill:#005386;}.o{fill:#fff;}.p{fill:#ffb900;}.q{fill:#9ed9f7;}.r,.m{fill:#d2ecfc;}.s{fill:#20111d;}.t{fill:#29a9e1;}.u{mix-blend-mode:multiply;}.m{stroke:#005386;}.j{stroke-width:.31px;}.k{stroke-width:.16px;}.v{clip-path:url(#f);}.w{clip-path:url(#e);}.x{clip-path:url(#d);}.y{clip-path:url(#g);}.a`{isolation:isolate;}.l{stroke-width:.3px;}</style><clipPath id="d"><path class="h" d="M335.62,232.36s-31.04-17.58-62.85-20.95c-27.55-2.91-50.8-1.19-66.67,3.06-7.93,2.13-8.08,7.01-5.2,8.99,4.12,2.83,9.15,1.17,14.43-.14,16.61-4.11,36.19-3.96,57.39-1.87,24.33,2.4,46.78,13.52,51.03,16.07,4.25,2.55,14.12-4,11.86-5.16Z"></path></clipPath><clipPath id="e"><path class="h" d="M339.48,227.18l-17.26,23.03s42.46,38.33,43.4,39c.95,.67,24.3-8.78,24.3-8.78,0,0-5.57-17.23-6.9-18.12-1.33-.89-43.54-35.13-43.54-35.13Z"></path></clipPath><clipPath id="f"><path class="h" d="M256.36,207.92s35.63,1.8,64.28,16.01c24.82,12.31,43.52,26.23,54.64,38.32,5.56,6.05,3.06,10.25-.43,10.38-4.99,.18-8.35-3.92-12.11-7.85-11.82-12.38-28.42-22.74-47.44-32.34-21.83-11.02-46.74-13.67-51.7-13.79-4.96-.13-9.77-10.95-7.25-10.72Z"></path></clipPath><clipPath id="g"><path class="h" d="M295.05,225.18c-35.58-9.26-69.93-5.08-81.86-1.98-4.42,1.15-5.07-61.19-5.07-61.19l59.97-9.84,39.03,15.4s.74,17.32,1.45,18.37c.71,1.05-4.37,24.82-4.37,24.82l-9.14,14.43Z"></path></clipPath></defs><g class="a`"><g id="a"></g><g id="b"><g id="c"><g><g><g><path class="t" d="M216.6,19.13c11.93,19.07,6.14,44.19-12.92,56.12-19.07,11.93-44.2,6.14-56.13-12.92-11.93-19.07-6.14-44.19,12.92-56.12C179.54-5.72,204.67,.06,216.6,19.13h0Z"></path><path class="r" d="M211.93,22.05c10.32,16.49,5.31,38.22-11.18,48.54-16.49,10.32-38.22,5.31-48.54-11.18-10.32-16.49-5.31-38.22,11.18-48.54,16.49-10.32,38.22-5.31,48.54,11.18h0Z"></path><path class="s" d="M182.45,81.7c-3.18,.02-6.39-.33-9.57-1.06-10.66-2.45-19.73-8.91-25.53-18.19-5.8-9.27-7.65-20.25-5.19-30.92,2.46-10.66,8.91-19.73,18.19-25.53,.11-.07,.25-.04,.32,.07,.07,.11,.04,.25-.07,.32-18.93,11.84-24.69,36.87-12.85,55.8,5.74,9.17,14.7,15.55,25.24,17.98,10.54,2.43,21.39,.6,30.56-5.13,.11-.07,.25-.04,.32,.07,.07,.11,.04,.25-.07,.32-6.51,4.07-13.86,6.2-21.35,6.25Z"></path><path class="s" d="M200.76,70.82c-.08,0-.16-.04-.2-.11-.07-.11-.04-.25,.07-.32,16.35-10.23,21.33-31.86,11.1-48.22-4.96-7.92-12.7-13.44-21.81-15.54-9.11-2.1-18.49-.52-26.41,4.43-.11,.07-.25,.04-.32-.07-.07-.11-.04-.25,.07-.32,8.03-5.02,17.53-6.62,26.76-4.49,9.23,2.13,17.08,7.72,22.1,15.75,10.37,16.57,5.32,38.49-11.25,48.86l-.12,.04Z"></path></g><g><path class="r" d="M160.83,27.76c1.52-.94,3.05-1.86,4.55-2.81,.43-.27,.7-.25,1.01,.17,1.23,1.67,3.14,1.92,5,.78,1.22-.75,2.44-1.51,3.67-2.25,4.11-2.47,8.54-3.41,13.28-2.74,5.27,.74,9.61,3.19,12.96,7.33,2.95,3.65,4.48,7.84,4.46,12.54-.03,6.73-2.76,12.17-8.08,16.29-2.95,2.29-6.33,3.54-10.03,3.95-3.68,.41-7.21-.15-10.54-1.69-3.4-1.57-6.22-3.88-8.3-7.05-4.44-6.79-8.53-13.79-12.85-20.66-.29-.47-.24-.73,.24-1.01,1.55-.92,3.08-1.88,4.61-2.83Z"></path><path class="t" d="M160.83,27.76c1.52-.94,3.05-1.86,4.55-2.81,.43-.27,.7-.25,1.01,.17,1.23,1.67,3.14,1.92,5,.78,1.22-.75,2.44-1.51,3.67-2.25,4.11-2.47,8.54-3.41,13.28-2.74,5.27,.74,9.61,3.19,12.96,7.33,2.95,3.65,4.48,7.84,4.46,12.54-.03,6.73-2.76,12.17-8.08,16.29-2.95,2.29-6.33,3.54-10.03,3.95-3.68,.41-7.21-.15-10.54-1.69-3.4-1.57-6.22-3.88-8.3-7.05-4.44-6.79-8.53-13.79-12.85-20.66-.29-.47-.24-.73,.24-1.01,1.55-.92,3.08-1.88,4.61-2.83Zm-.94,7.96c-.02,.3,.12,.43,.2,.57,3.01,4.9,6.02,9.8,9.05,14.68,.68,1.1,1.47,2.14,2.37,3.08,3.08,3.24,6.85,5.26,11.27,5.86,5.3,.72,10.17-.51,14.45-3.79,4.19-3.21,6.67-7.46,7.38-12.67,.72-5.34-.6-10.2-3.95-14.43-3.02-3.82-6.96-6.19-11.8-7.01-4.66-.79-9.02,.01-13.08,2.42-1.25,.74-2.48,1.52-3.72,2.28-2.23,1.37-4.41,1.18-6.03-.41-.26-.26-.5-.22-.77-.04-.95,.6-1.9,1.21-2.88,1.76-.49,.28-.44,.53-.13,.89,2.07,2.4,4.67,3.55,7.85,3.4,1.64-.08,3.14-.65,4.55-1.46,1.73-1,3.33-2.21,5.16-3.02,3.7-1.63,7.45-1.71,11.2-.28,3.33,1.26,5.84,3.51,7.54,6.64,2.12,3.92,2.41,7.99,.84,12.16-1.31,3.47-3.63,6.09-6.94,7.79-3.89,2-7.9,2.2-11.98,.71-3.34-1.22-5.77-3.55-7.62-6.52-1.89-3.02-3.75-6.06-5.6-9.1-.25-.41-.53-.65-1.03-.73-.9-.14-1.77-.39-2.62-.74-1.29-.53-2.53-1.16-3.72-2.05Zm11.63,8.47c.93,1.37,1.89,3.19,3.09,4.86,1.67,2.32,3.81,3.99,6.5,4.94,3.94,1.39,7.78,1.06,11.38-1.01,3.6-2.06,5.81-5.21,6.61-9.31,.67-3.45,0-6.69-1.79-9.65-1.33-2.2-3.19-3.93-5.56-5.04-4.39-2.06-8.69-1.9-12.91,.5-1.51,.86-2.94,1.87-4.5,2.66-2.31,1.18-4.71,1.51-7.22,.93-2.36-.54-4.31-1.79-5.81-3.7-.24-.31-.44-.44-.81-.2-1,.63-2.01,1.25-3.02,1.86-.3,.18-.34,.35-.13,.65,.58,.83,1.22,1.6,1.99,2.26,4.62,3.91,9.77,4.87,15.45,2.68,2.02-.78,3.78-2.04,5.6-3.19,2.47-1.55,5.07-2.02,7.89-1.17,2.25,.68,3.95,2.07,5.11,4.05,1.23,2.11,1.55,4.4,.94,6.83-1.46,5.84-8.27,8.67-13.42,5.56-1.48-.9-2.58-2.15-3.48-3.59-1.31-2.08-2.59-4.18-3.87-6.28-.25-.41-.51-.56-1-.43-1.23,.32-2.48,.41-3.75,.37-.15,0-.34-.07-.44,.07-.13,.18,.05,.32,.13,.46,.93,1.52,1.86,3.03,3,4.88Zm5.42-2.04c.06,.1,.12,.2,.18,.3,.79,1.22,1.39,2.57,2.34,3.66,2.77,3.2,7.57,3.79,10.98,1.07,2.52-2,3.52-4.65,2.96-7.78-.59-3.28-2.65-5.37-5.82-6.26-2.29-.64-4.47-.22-6.5,1.09-2,1.29-4,2.6-6.23,3.49-.45,.18-.38,.45-.18,.78,.76,1.22,1.5,2.44,2.25,3.66Z"></path><path class="j" d="M194.34,43.14c.61-2.43,.3-4.72-.94-6.83-1.16-1.98-2.86-3.37-5.11-4.05-.31-.09-.62-.16-.92-.23"></path><path class="j" d="M199.4,46.34c1.57-4.17,1.28-8.24-.84-12.16-1.7-3.13-4.22-5.38-7.54-6.64"></path><path class="j" d="M163.29,43.47c1.53,2.49,3.08,4.97,4.66,7.42"></path><path class="j" d="M198.46,56.43c4.81-4.05,7.29-9.27,7.31-15.67,.01-2.83-.55-5.47-1.63-7.93"></path></g><g class="u"><path class="q" d="M190.57,6.55c1.71,10.34,.31,19.97-2.73,28.59,.54-.04-3.19,7.76-3.29,7.78-6,12.15-14.78,21.72-21.16,27.68,5.7,3.56,12.3,5.41,18.98,5.36,6.3-.05,12.66-1.78,18.39-5.37,13.95-8.73,19.68-25.62,14.87-40.59-.88-2.73-2.1-5.4-3.7-7.95h0l-.05-.09v-.02c-.05-.06-.08-.12-.12-.17h0c-.04-.07-.08-.13-.12-.19h0c-5.05-7.8-12.68-12.95-21.06-15.03h0Z"></path></g><g><path class="s" d="M186.46,70.77c.01,.11-.07,.22-.18,.25-.07,.02-7.35,1.58-13.22-2.3-.11-.07-.14-.22-.07-.32,.07-.11,.22-.14,.32-.07,5.7,3.78,12.79,2.25,12.86,2.24,.13-.03,.25,.05,.28,.18v.03Z"></path><path class="s" d="M186.62,66.64c.01,.11-.07,.22-.18,.25-.07,.02-7.35,1.58-13.22-2.3-.11-.07-.14-.22-.07-.32,.07-.11,.22-.14,.32-.07,5.7,3.78,12.79,2.25,12.86,2.24,.13-.03,.25,.05,.28,.18v.03Z"></path></g><g><path class="s" d="M180.54,9.67c-.02-.11,.05-.23,.16-.26,.07-.02,7.2-2.18,13.36,1.22,.11,.06,.15,.21,.09,.32-.06,.11-.21,.15-.32,.09-5.99-3.3-12.93-1.2-13-1.18-.12,.04-.25-.03-.29-.15v-.03Z"></path><path class="s" d="M180.72,13.79c-.02-.11,.05-.23,.16-.26,.07-.02,7.2-2.18,13.36,1.22,.11,.06,.15,.21,.09,.32-.06,.11-.2,.15-.32,.09-5.99-3.3-12.93-1.21-13-1.18-.12,.04-.25-.03-.29-.15v-.03Z"></path></g></g><g><g><path class="t" d="M539.94,98.63c-17.63,12.61-42.15,8.53-54.76-9.1-12.61-17.64-8.53-42.15,9.1-54.76,17.63-12.61,42.15-8.53,54.76,9.1,12.61,17.63,8.53,42.15-9.1,54.76h0Z"></path><path class="r" d="M536.86,94.31c-15.25,10.9-36.45,7.38-47.36-7.87-10.9-15.25-7.38-36.45,7.87-47.36,15.25-10.9,36.45-7.38,47.36,7.87,10.9,15.25,7.38,36.45-7.87,47.36h0Z"></path><path class="s" d="M477.72,69.49c-.21-3.06-.06-6.17,.45-9.27,1.73-10.4,7.41-19.51,15.98-25.64,8.58-6.13,19.03-8.56,29.43-6.83,10.4,1.73,19.51,7.41,25.64,15.98,.07,.1,.05,.24-.05,.31-.1,.07-.24,.05-.31-.05-12.51-17.51-36.94-21.57-54.44-9.05-8.48,6.06-14.09,15.06-15.8,25.35-1.71,10.28,.69,20.62,6.75,29.1,.07,.1,.05,.24-.05,.31-.1,.07-.24,.05-.31-.05-4.3-6.02-6.78-12.96-7.28-20.17Z"></path><path class="s" d="M489.27,86.46c0-.08,.03-.15,.09-.2,.1-.07,.24-.05,.31,.05,10.81,15.13,31.92,18.63,47.04,7.82,7.33-5.24,12.18-13.02,13.65-21.9,1.48-8.89-.59-17.81-5.83-25.14-.07-.1-.05-.24,.05-.31,.1-.07,.24-.05,.31,.05,5.31,7.42,7.41,16.47,5.91,25.48-1.5,9-6.41,16.89-13.84,22.19-15.33,10.96-36.71,7.4-47.67-7.93l-.04-.12Z"></path></g><g><path class="r" d="M528.33,45.49c.99,1.41,1.97,2.82,2.98,4.21,.29,.4,.28,.66-.1,.98-1.53,1.28-1.66,3.13-.45,4.86,.79,1.13,1.6,2.26,2.38,3.39,2.62,3.8,3.78,8.01,3.43,12.61-.4,5.12-2.49,9.44-6.28,12.9-3.34,3.05-7.27,4.77-11.79,5.03-6.48,.38-11.87-1.93-16.15-6.8-2.38-2.7-3.78-5.87-4.4-9.42-.61-3.51-.28-6.94,1-10.24,1.31-3.36,3.37-6.22,6.29-8.4,6.27-4.67,12.76-9.02,19.11-13.58,.43-.31,.69-.27,.99,.17,.98,1.44,1.99,2.85,2.99,4.27Z"></path><path class="t" d="M528.33,45.49c.99,1.41,1.97,2.82,2.98,4.21,.29,.4,.28,.66-.1,.98-1.53,1.28-1.66,3.13-.45,4.86,.79,1.13,1.6,2.26,2.38,3.39,2.62,3.8,3.78,8.01,3.43,12.61-.4,5.12-2.49,9.44-6.28,12.9-3.34,3.05-7.27,4.77-11.79,5.03-6.48,.38-11.87-1.93-16.15-6.8-2.38-2.7-3.78-5.87-4.4-9.42-.61-3.51-.28-6.94,1-10.24,1.31-3.36,3.37-6.22,6.29-8.4,6.27-4.67,12.76-9.02,19.11-13.58,.43-.31,.69-.27,.99,.17,.98,1.44,1.99,2.85,2.99,4.27Zm-7.71-.43c-.29,0-.4,.14-.53,.23-4.53,3.19-9.07,6.37-13.59,9.58-1.02,.72-1.97,1.54-2.82,2.46-2.93,3.16-4.65,6.91-4.97,11.19-.38,5.14,1.1,9.75,4.5,13.67,3.33,3.84,7.58,5.98,12.62,6.35,5.18,.38,9.78-1.19,13.65-4.66,3.49-3.13,5.54-7.06,6.04-11.77,.48-4.53-.55-8.67-3.1-12.44-.79-1.16-1.61-2.29-2.42-3.44-1.45-2.07-1.39-4.17,.03-5.82,.23-.27,.18-.49,0-.75-.63-.88-1.27-1.76-1.86-2.66-.3-.46-.53-.39-.87-.07-2.19,2.13-3.14,4.71-2.8,7.75,.18,1.58,.81,2.98,1.67,4.29,1.06,1.6,2.33,3.07,3.21,4.79,1.79,3.46,2.08,7.07,.93,10.76-1.02,3.27-3.03,5.83-5.94,7.65-3.65,2.28-7.55,2.8-11.65,1.53-3.41-1.05-6.07-3.13-7.91-6.22-2.16-3.62-2.59-7.47-1.39-11.48,.98-3.28,3.08-5.76,5.82-7.72,2.79-2,5.61-3.96,8.42-5.93,.38-.26,.59-.55,.64-1.03,.08-.87,.27-1.73,.56-2.57,.44-1.27,.97-2.5,1.75-3.7Zm-7.46,11.69c-1.27,.98-2.96,2-4.49,3.26-2.13,1.74-3.61,3.9-4.36,6.55-1.1,3.87-.56,7.55,1.64,10.88,2.2,3.34,5.35,5.28,9.35,5.81,3.36,.44,6.43-.39,9.17-2.29,2.04-1.41,3.59-3.3,4.52-5.64,1.72-4.34,1.31-8.47-1.25-12.39-.92-1.41-1.97-2.72-2.83-4.17-1.27-2.15-1.73-4.44-1.32-6.89,.38-2.31,1.46-4.25,3.22-5.81,.28-.25,.4-.45,.15-.79-.67-.92-1.32-1.86-1.97-2.79-.19-.28-.35-.31-.63-.09-.76,.61-1.47,1.27-2.05,2.05-3.49,4.67-4.1,9.68-1.67,15.02,.87,1.9,2.19,3.52,3.4,5.2,1.64,2.29,2.25,4.76,1.6,7.52-.52,2.2-1.75,3.93-3.59,5.16-1.96,1.31-4.14,1.75-6.52,1.31-5.7-1.05-8.83-7.44-6.14-12.58,.78-1.48,1.92-2.61,3.24-3.57,1.92-1.38,3.87-2.74,5.81-4.09,.38-.26,.5-.53,.35-.98-.38-1.16-.54-2.36-.58-3.58,0-.15,.05-.33-.09-.42-.18-.12-.31,.07-.44,.16-1.41,.98-2.81,1.97-4.52,3.18Zm2.28,5.09c-.09,.06-.18,.13-.27,.19-1.13,.83-2.39,1.49-3.38,2.47-2.91,2.86-3.2,7.5-.38,10.63,2.07,2.3,4.68,3.11,7.66,2.38,3.12-.76,5.01-2.87,5.68-5.97,.48-2.24-.05-4.31-1.43-6.19-1.36-1.85-2.74-3.69-3.72-5.78-.2-.42-.46-.34-.76-.12-1.13,.8-2.26,1.59-3.39,2.38Z"></path><path class="l" d="M515.52,78.64c2.37,.44,4.56,0,6.52-1.31,1.84-1.23,3.07-2.96,3.59-5.16,.07-.3,.12-.6,.16-.9"></path><path class="l" d="M512.74,83.7c4.1,1.27,8,.75,11.65-1.53,2.91-1.82,4.93-4.37,5.94-7.65"></path><path class="l" d="M513.36,48.8c-2.3,1.62-4.6,3.26-6.86,4.93"></path><path class="l" d="M502.98,83.39c4.18,4.39,9.35,6.46,15.51,6.11,2.72-.16,5.23-.85,7.53-2.04"></path></g><g class="u"><path class="q" d="M550.5,72.85c-9.85,2.26-19.19,1.49-27.66-.93,.07,.52-7.66-2.61-7.68-2.71-12.04-5.05-21.77-12.93-27.88-18.72-3.08,5.69-4.47,12.15-4.03,18.57,.42,6.05,2.46,12.07,6.25,17.37,9.22,12.9,25.81,17.41,39.93,11.9,2.58-1.01,5.07-2.34,7.43-4.03h0l.08-.06h.02c.05-.05,.11-.09,.16-.13h0c.06-.05,.11-.09,.17-.13h0c7.2-5.32,11.7-12.97,13.21-21.15h0Z"></path></g><g><path class="s" d="M488.48,72.7c-.11,.02-.22-.05-.25-.16-.02-.07-1.96-6.98,1.43-12.85,.06-.11,.2-.14,.31-.08,.11,.06,.14,.2,.08,.31-3.29,5.71-1.41,12.44-1.39,12.5,.03,.12-.03,.24-.15,.28h-.03Z"></path><path class="s" d="M492.46,72.61c-.11,.02-.22-.05-.25-.16-.02-.07-1.96-6.98,1.43-12.85,.06-.11,.2-.14,.31-.08,.11,.06,.14,.2,.08,.31-3.3,5.71-1.41,12.44-1.39,12.5,.03,.12-.03,.24-.15,.28h-.03Z"></path></g><g><path class="s" d="M546.9,63.38c.11-.03,.22,.03,.26,.14,.03,.07,2.52,6.8-.38,12.93-.05,.11-.19,.16-.3,.11-.11-.05-.16-.19-.11-.3,2.82-5.96,.39-12.51,.37-12.57-.04-.12,.01-.25,.13-.29h.03Z"></path><path class="s" d="M542.95,63.8c.11-.03,.22,.03,.26,.14,.03,.07,2.52,6.8-.38,12.93-.05,.11-.19,.16-.3,.11-.11-.05-.16-.19-.11-.3,2.82-5.96,.39-12.51,.37-12.57-.04-.12,.01-.25,.13-.29h.03Z"></path></g></g><g><g><path class="t" d="M391.45,79.69c-4.4,13.1-18.59,20.16-31.7,15.76-13.1-4.4-20.16-18.6-15.76-31.7,4.4-13.1,18.6-20.16,31.7-15.76,13.1,4.4,20.16,18.59,15.76,31.7h0Z"></path><path class="r" d="M388.24,78.61c-3.81,11.33-16.08,17.43-27.42,13.63-11.33-3.81-17.44-16.08-13.63-27.42,3.81-11.33,16.08-17.44,27.42-13.63,11.33,3.81,17.43,16.08,13.63,27.42h0Z"></path><path class="s" d="M348.4,87.88c-1.25-1.5-2.34-3.16-3.23-4.96-2.99-6.02-3.46-12.85-1.32-19.22,2.14-6.37,6.64-11.53,12.66-14.53,6.02-2.99,12.85-3.46,19.22-1.32,.07,.02,.12,.11,.09,.18-.03,.08-.11,.12-.18,.09-13.01-4.37-27.15,2.66-31.52,15.67-2.12,6.3-1.65,13.05,1.31,19,2.96,5.95,8.06,10.4,14.36,12.51,.07,.02,.12,.11,.09,.18-.03,.08-.11,.12-.18,.09-4.47-1.5-8.35-4.17-11.3-7.7Z"></path><path class="s" d="M360.71,92.33s-.04-.09-.03-.14c.02-.08,.11-.12,.18-.09,11.24,3.78,23.46-2.3,27.23-13.54,1.83-5.45,1.43-11.28-1.13-16.42-2.56-5.14-6.96-8.98-12.41-10.81-.07-.02-.12-.11-.09-.18,.03-.08,.11-.12,.18-.09,5.52,1.85,9.98,5.74,12.57,10.96,2.59,5.21,3,11.12,1.14,16.64-3.83,11.39-16.21,17.54-27.6,13.72l-.06-.04Z"></path></g><g><path class="r" d="M365.59,56.56c1.04,.36,2.07,.72,3.11,1.06,.3,.1,.39,.24,.32,.55-.31,1.24,.31,2.24,1.58,2.68,.83,.29,1.67,.57,2.5,.86,2.77,.99,4.95,2.73,6.48,5.24,1.71,2.79,2.24,5.81,1.57,9.02-.58,2.83-1.98,5.18-4.21,7.01-3.21,2.61-6.86,3.44-10.89,2.52-2.24-.51-4.15-1.62-5.79-3.22-1.63-1.59-2.74-3.48-3.31-5.67-.58-2.23-.58-4.47,.11-6.69,1.49-4.76,3.22-9.43,4.8-14.16,.11-.32,.25-.4,.58-.28,1.04,.38,2.09,.73,3.14,1.09Z"></path><path class="t" d="M365.59,56.56c1.04,.36,2.07,.72,3.11,1.06,.3,.1,.39,.24,.32,.55-.31,1.24,.31,2.24,1.58,2.68,.83,.29,1.67,.57,2.5,.86,2.77,.99,4.95,2.73,6.48,5.24,1.71,2.79,2.24,5.81,1.57,9.02-.58,2.83-1.98,5.18-4.21,7.01-3.21,2.61-6.86,3.44-10.89,2.52-2.24-.51-4.15-1.62-5.79-3.22-1.63-1.59-2.74-3.48-3.31-5.67-.58-2.23-.58-4.47,.11-6.69,1.49-4.76,3.22-9.43,4.8-14.16,.11-.32,.25-.4,.58-.28,1.04,.38,2.09,.73,3.14,1.09Zm-4.15,2.66c-.15,.11-.16,.22-.19,.32-1.15,3.34-2.31,6.68-3.44,10.03-.26,.75-.44,1.53-.54,2.32-.34,2.73,.18,5.31,1.61,7.64,1.72,2.8,4.21,4.63,7.44,5.38,3.16,.74,6.15,.26,8.89-1.44,2.82-1.74,4.61-4.27,5.31-7.51,.63-2.93,.23-5.72-1.27-8.34-1.44-2.52-3.52-4.28-6.25-5.27-.84-.31-1.69-.58-2.53-.88-1.52-.52-2.28-1.63-2.16-3.02,.02-.23-.09-.32-.28-.38-.66-.22-1.31-.43-1.96-.68-.33-.13-.42,0-.47,.29-.33,1.92,.13,3.61,1.45,5.05,.68,.75,1.53,1.24,2.47,1.59,1.15,.43,2.35,.72,3.45,1.27,2.22,1.12,3.72,2.87,4.5,5.21,.7,2.07,.61,4.15-.21,6.17-1.03,2.54-2.86,4.27-5.45,5.14-2.16,.73-4.31,.65-6.41-.26-2.47-1.07-4.13-2.89-5.01-5.41-.72-2.06-.56-4.13,.12-6.16,.7-2.08,1.42-4.14,2.14-6.21,.1-.28,.1-.5-.06-.77-.28-.48-.51-.99-.67-1.53-.25-.82-.43-1.65-.48-2.57Zm.51,8.83c-.29,.98-.78,2.14-1.1,3.36-.45,1.7-.41,3.37,.19,5.01,.88,2.41,2.53,4.11,4.92,5.01,2.38,.9,4.74,.73,7-.49,1.9-1.03,3.18-2.61,3.89-4.61,.53-1.49,.62-3.05,.23-4.6-.73-2.89-2.49-4.87-5.27-5.94-1-.38-2.03-.67-3.02-1.1-1.46-.64-2.55-1.65-3.26-3.07-.66-1.34-.83-2.75-.51-4.2,.05-.24,.04-.38-.22-.47-.69-.23-1.38-.47-2.06-.71-.2-.07-.3-.03-.36,.19-.16,.6-.29,1.21-.3,1.83-.06,3.72,1.5,6.54,4.75,8.38,1.16,.66,2.45,1,3.7,1.42,1.7,.57,2.94,1.62,3.63,3.29,.56,1.33,.56,2.68,.07,4.01-.52,1.41-1.49,2.45-2.88,3.11-3.34,1.59-7.35-.55-7.87-4.21-.15-1.05,.01-2.06,.34-3.05,.48-1.43,.97-2.86,1.47-4.29,.1-.28,.06-.46-.18-.64-.63-.46-1.16-1.02-1.64-1.64-.06-.07-.1-.19-.2-.18-.14,0-.13,.15-.17,.24-.36,1.03-.71,2.07-1.15,3.33Zm3.08,1.78c-.02,.07-.05,.13-.07,.2-.27,.85-.68,1.66-.83,2.54-.44,2.56,1.15,5.07,3.77,5.64,1.93,.42,3.58-.14,4.85-1.63,1.33-1.56,1.52-3.35,.7-5.21-.59-1.34-1.64-2.21-3.05-2.66-1.39-.45-2.79-.88-4.08-1.6-.26-.14-.36,0-.44,.22-.28,.83-.57,1.67-.86,2.5Z"></path><path class="i" d="M371.36,78.48c1.39-.66,2.36-1.7,2.88-3.11,.49-1.32,.48-2.68-.07-4.01-.08-.18-.16-.36-.25-.53"></path><path class="i" d="M371.81,82.13c2.59-.88,4.41-2.61,5.45-5.14,.83-2.03,.91-4.1,.21-6.17"></path><path class="i" d="M359.09,63.86c-.58,1.7-1.16,3.4-1.71,5.11"></path><path class="i" d="M366.65,85.62c3.8,.71,7.25-.15,10.3-2.64,1.35-1.1,2.39-2.4,3.13-3.87"></path></g><g class="u"><path class="q" d="M387.27,62.42c-4.24,4.85-9.36,7.94-14.64,9.86,.23,.24-4.93,1.51-4.98,1.47-8.11,1.89-16.08,1.46-21.4,.75,.53,4.09,2.23,7.95,4.86,11.1,2.48,2.97,5.78,5.32,9.72,6.64,9.59,3.22,19.84-.65,25.08-8.77,.96-1.48,1.75-3.11,2.33-4.86h0l.02-.06h0c.01-.05,.03-.09,.04-.13h0s.03-.09,.04-.13h0c1.73-5.44,1.2-11.07-1.08-15.87h0Z"></path></g><g><path class="s" d="M355.16,85.51c-.05,.05-.13,.06-.19,.01-.04-.03-3.62-2.87-4.06-7.18,0-.08,.05-.15,.13-.16,.08,0,.15,.05,.16,.13,.43,4.18,3.92,6.95,3.95,6.98,.06,.05,.07,.14,.02,.2h-.01Z"></path><path class="s" d="M357.18,83.98c-.05,.05-.13,.06-.19,.01-.04-.03-3.62-2.87-4.06-7.18,0-.08,.05-.15,.13-.16,.08,0,.15,.05,.16,.13,.43,4.18,3.92,6.95,3.95,6.98,.06,.05,.07,.14,.02,.2h-.01Z"></path></g><g><path class="s" d="M381.87,58.87c.05-.05,.13-.07,.19-.03,.04,.03,3.84,2.57,4.63,6.82,.01,.08-.04,.15-.11,.17-.08,.01-.15-.04-.17-.12-.77-4.13-4.47-6.61-4.51-6.64-.07-.04-.08-.13-.04-.2v-.02Z"></path><path class="s" d="M379.98,60.56c.05-.05,.13-.07,.19-.03,.04,.03,3.84,2.57,4.63,6.82,.01,.08-.04,.15-.12,.17-.08,.01-.15-.04-.17-.12-.77-4.13-4.47-6.61-4.51-6.64-.07-.04-.08-.13-.04-.2v-.02Z"></path></g></g><g><g><path class="t" d="M288.35,107.29c-1.45,11.57-12,19.78-23.58,18.34-11.57-1.45-19.78-12-18.34-23.58,1.45-11.57,12-19.78,23.58-18.34,11.57,1.45,19.78,12,18.34,23.58h0Z"></path><path class="r" d="M285.52,106.93c-1.25,10.01-10.38,17.11-20.39,15.86-10.01-1.25-17.11-10.38-15.86-20.39,1.25-10.01,10.38-17.11,20.39-15.86,10.01,1.25,17.11,10.38,15.86,20.39h0Z"></path><path class="s" d="M254.13,121.27c-1.29-1.03-2.46-2.22-3.5-3.56-3.48-4.48-5.01-10.05-4.31-15.68,.7-5.63,3.56-10.65,8.04-14.13,4.48-3.48,10.05-5.01,15.68-4.31,.07,0,.11,.07,.11,.14,0,.07-.07,.11-.14,.11-11.49-1.44-22,6.74-23.44,18.23-.7,5.57,.82,11.07,4.26,15.5,3.44,4.43,8.4,7.25,13.97,7.95,.07,0,.11,.07,.11,.14,0,.07-.07,.11-.14,.11-3.95-.49-7.6-2.05-10.63-4.48Z"></path><path class="s" d="M265.06,122.89s-.05-.07-.04-.11c0-.07,.07-.11,.14-.11,9.93,1.24,19.01-5.83,20.25-15.75,.6-4.81-.71-9.56-3.68-13.39-2.98-3.83-7.26-6.26-12.07-6.86-.07,0-.11-.07-.1-.14,0-.07,.07-.11,.14-.11,4.87,.61,9.22,3.08,12.23,6.96,3.01,3.88,4.34,8.7,3.73,13.57-1.26,10.06-10.47,17.22-20.53,15.96l-.06-.03Z"></path></g><g><path class="r" d="M263.11,92.5c.92,.12,1.83,.25,2.75,.36,.26,.03,.37,.13,.35,.4-.05,1.07,.63,1.8,1.76,1.95,.74,.1,1.48,.19,2.21,.3,2.46,.35,4.55,1.43,6.24,3.25,1.88,2.02,2.82,4.43,2.81,7.19,0,2.43-.77,4.62-2.31,6.5-2.22,2.7-5.09,3.99-8.58,3.91-1.94-.05-3.7-.65-5.33-1.7-1.61-1.04-2.85-2.42-3.68-4.13-.85-1.74-1.23-3.6-1.03-5.55,.44-4.18,1.09-8.34,1.6-12.51,.04-.28,.14-.37,.43-.33,.92,.14,1.85,.25,2.78,.37Z"></path><path class="t" d="M263.11,92.5c.92,.12,1.83,.25,2.75,.36,.26,.03,.37,.13,.35,.4-.05,1.07,.63,1.8,1.76,1.95,.74,.1,1.48,.19,2.21,.3,2.46,.35,4.55,1.43,6.24,3.25,1.88,2.02,2.82,4.43,2.81,7.19,0,2.43-.77,4.62-2.31,6.5-2.22,2.7-5.09,3.99-8.58,3.91-1.94-.05-3.7-.65-5.33-1.7-1.61-1.04-2.85-2.42-3.68-4.13-.85-1.74-1.23-3.6-1.03-5.55,.44-4.18,1.09-8.34,1.6-12.51,.04-.28,.14-.37,.43-.33,.92,.14,1.85,.25,2.78,.37Zm-2.98,2.89c-.11,.11-.09,.21-.1,.3-.39,2.96-.79,5.91-1.17,8.87-.09,.67-.11,1.34-.06,2.01,.18,2.31,1.03,4.36,2.61,6.05,1.89,2.03,4.26,3.12,7.05,3.21,2.73,.08,5.13-.82,7.11-2.68,2.04-1.91,3.1-4.3,3.14-7.1,.04-2.53-.77-4.77-2.45-6.68-1.61-1.84-3.63-2.95-6.05-3.31-.75-.11-1.49-.2-2.24-.3-1.35-.18-2.16-.97-2.29-2.14-.02-.19-.13-.25-.3-.27-.58-.07-1.16-.14-1.73-.23-.29-.05-.35,.07-.34,.32,.04,1.64,.72,2.96,2.04,3.94,.69,.51,1.47,.77,2.31,.9,1.02,.17,2.06,.2,3.07,.48,2.02,.56,3.56,1.75,4.6,3.56,.92,1.6,1.2,3.32,.86,5.14-.43,2.27-1.65,4.01-3.64,5.17-1.66,.97-3.45,1.26-5.34,.86-2.22-.47-3.9-1.7-5.05-3.64-.94-1.58-1.15-3.32-.93-5.12,.23-1.83,.48-3.66,.73-5.49,.03-.25,0-.43-.17-.63-.32-.35-.59-.74-.81-1.16-.34-.64-.64-1.3-.82-2.04Zm1.9,7.22c-.08,.86-.29,1.9-.35,2.97-.09,1.48,.23,2.85,1,4.11,1.13,1.85,2.78,2.97,4.9,3.32,2.12,.35,4.04-.19,5.71-1.58,1.4-1.17,2.19-2.69,2.44-4.46,.19-1.32,0-2.62-.58-3.85-1.09-2.26-2.87-3.61-5.35-4.03-.89-.15-1.79-.21-2.68-.4-1.31-.28-2.39-.94-3.21-1.99-.77-.99-1.15-2.13-1.12-3.39,0-.2-.03-.32-.26-.35-.61-.07-1.22-.16-1.82-.24-.18-.03-.25,.03-.26,.22-.04,.52-.03,1.04,.06,1.56,.58,3.09,2.33,5.16,5.33,6.14,1.07,.35,2.19,.42,3.29,.55,1.5,.19,2.7,.85,3.56,2.11,.68,1.01,.91,2.13,.73,3.3-.2,1.25-.82,2.28-1.86,3.06-2.5,1.87-6.17,.78-7.22-2.16-.3-.85-.33-1.71-.23-2.58,.15-1.27,.33-2.53,.5-3.79,.03-.25-.02-.39-.26-.5-.6-.27-1.13-.65-1.63-1.08-.06-.05-.11-.14-.2-.12-.11,.03-.09,.15-.1,.23-.12,.92-.24,1.83-.39,2.95Zm2.85,.95c0,.06-.02,.12-.02,.18-.08,.75-.28,1.49-.26,2.24,.07,2.19,1.8,4,4.06,4.03,1.67,.02,2.94-.72,3.74-2.16,.84-1.51,.69-3.03-.29-4.43-.71-1.01-1.72-1.55-2.97-1.69-1.23-.14-2.46-.26-3.65-.64-.24-.08-.3,.06-.33,.26-.09,.74-.19,1.47-.29,2.21Z"></path><path class="k" d="M271.54,109.66c1.04-.78,1.66-1.8,1.86-3.06,.18-1.18-.05-2.29-.73-3.3-.09-.14-.19-.27-.3-.39"></path><path class="k" d="M272.53,112.6c2-1.16,3.21-2.89,3.64-5.17,.34-1.82,.07-3.54-.86-5.14"></path><path class="k" d="M258.95,99.62c-.2,1.5-.39,3.01-.56,4.51"></path><path class="k" d="M268.84,116.35c3.26-.05,5.97-1.34,8.07-3.91,.93-1.14,1.57-2.38,1.94-3.72"></path></g><g class="u"><path class="q" d="M282.01,93.71c-2.7,4.72-6.41,8.13-10.46,10.6,.23,.16-3.83,2.07-3.87,2.05-6.39,2.92-13.06,3.9-17.57,4.2,1.13,3.3,3.17,6.2,5.88,8.37,2.55,2.04,5.67,3.43,9.15,3.86,8.47,1.06,16.3-3.86,19.27-11.45,.54-1.39,.92-2.86,1.12-4.41h0v-.05h0v-.12h.01s0-.08,.01-.12h0c.52-4.79-.86-9.36-3.55-12.94h0Z"></path></g><g><path class="s" d="M259.33,118.18s-.1,.07-.15,.04c-.03-.02-3.47-1.77-4.56-5.26-.02-.06,.02-.13,.08-.15,.06-.02,.13,.02,.15,.08,1.05,3.38,4.4,5.09,4.44,5.11,.06,.03,.08,.1,.05,.16h0Z"></path><path class="s" d="M260.74,116.58s-.1,.07-.15,.04c-.03-.02-3.47-1.77-4.56-5.26-.02-.06,.02-.13,.08-.15,.06-.02,.13,.02,.15,.08,1.06,3.39,4.4,5.09,4.44,5.11,.06,.03,.08,.1,.05,.16h0Z"></path></g><g><path class="s" d="M276.95,91.68c.03-.05,.09-.08,.15-.05,.04,.01,3.61,1.48,4.97,4.87,.02,.06,0,.13-.07,.16-.06,.02-.13,0-.16-.07-1.33-3.29-4.8-4.72-4.84-4.73-.06-.03-.09-.1-.07-.16h0Z"></path><path class="s" d="M275.67,93.39c.03-.05,.09-.08,.15-.05,.04,.01,3.61,1.48,4.97,4.87,.02,.06,0,.13-.07,.16-.06,.02-.13,0-.16-.07-1.33-3.29-4.8-4.72-4.84-4.73-.06-.03-.09-.1-.07-.16h0Z"></path></g></g></g><g><g><path class="t" d="M358.96,230.08l-40.79,8.35-16.9,43.21,13.17,6.96s3.88-6.17,21.65-36.11c0,0,39.31,3.04,45.61-3.88,9.12-10.02,5.99-26.33,5.99-26.33l2.23-5.61-26.77-15.72-1.63,10.04s-46.55,6.71-54.73,14.85c-2.96,2.95-17.76,49.03-17.76,49.03l13.05,6.58s15.46-37.64,16.54-38.47c8.55-6.51,40.97-5.43,40.97-5.43l-.63-7.46Z"></path><g><path class="o" d="M125.86,350.55c9.54-63.66-9.72-98.86-78.32-67.86-68.61,31.01-53.35,57.16-7.99,43.78-8.12,27,10.74,29.68,32.99,15.93-9.37,17.66,39.1,16.21,39.1,16.21,5.83-1.04,14.22-8.06,14.22-8.06Z"></path><path class="n" d="M38.46,339.48c-.29-3.47,.31-7.76,1.82-12.79l.4-1.35-1.35,.4c-15.58,4.6-28.92,4.73-34.81,.34-2.25-1.68-3.24-3.9-2.95-6.59,1.08-10,18.38-23.49,46.28-36.1,29.19-13.19,50.67-14.9,63.85-5.08,14.42,10.75,18.94,34.92,13.45,71.84-.98,.8-5.1,4.05-9.22,6.1,.1,.53,.2,1.05,.3,1.55,4.95-2.38,9.85-6.44,10.12-6.67l.22-.19,.04-.28c5.65-37.69,.94-62.44-14-73.58-13.65-10.18-35.65-8.52-65.38,4.91C18.41,295.02,1.22,308.63,.06,319.32c-.35,3.22,.88,5.98,3.55,7.98,6.19,4.61,19.14,4.7,34.82,.28-1.5,5.42-1.81,9.58-1.41,12.78,.25,.99,1.65,.5,1.43-.88Z"></path><path class="n" d="M42.67,314.07c-.21-.16-.41-.33-.58-.5-1.32-1.35-2.17-3.82,1.06-8.06,.26-.34,.75-.39,1.08-.12h0c.32,.26,.36,.73,.11,1.06-2.06,2.71-2.46,4.75-1.17,6.06,3.06,3.12,14.03,2.09,17.09,.67,.33-.15,.71-.08,.93,.21,0,0,.44,.5,.03,.87-2.76,2.11-14.04,3.19-18.55-.17Z"></path><path class="n" d="M88.73,322.39c-.97-.72-1.43-1.93-1.38-3.6,.01-.45,.4-.8,.85-.75h0c.38,.05,.68,.38,.67,.77-.04,1.23,.25,2.05,.88,2.44,2,1.25,7.42-1.19,10.8-3.24,.35-.22,.82-.12,1.04,.23h0c.23,.36,.13,.84-.24,1.06-2.28,1.38-9.2,5.24-12.4,3.24-.08-.05-.15-.1-.22-.15Z"></path><path class="n" d="M27.21,314.6c-.64-.48-1.19-1.05-1.57-1.74-1.01-1.81-.77-4.05,.71-6.69,.21-.37,.7-.49,1.06-.26h0c.35,.22,.45,.67,.25,1.03-1.19,2.13-1.42,3.86-.69,5.17,1.5,2.69,6.55,3.2,8.43,3.3,.4,.02,.71,.35,.71,.75h0c0,.44-.36,.79-.8,.77-1.69-.08-5.62-.48-8.11-2.34Z"></path></g><g><path class="r" d="M303.8,422.81s18.3,73.39-3.21,76.2c-14.3,1.87-42.75-56.33-42.75-56.33l45.96-19.87Z"></path><path class="r" d="M123.49,386.37s-45.36,60.52-26.63,71.47c12.45,7.28,61.27-35.31,61.27-35.31l-34.64-36.16Z"></path><path class="r" d="M160.39,230.23c-13.55-29.52-51.91-35.17-53.96-35.5-1.95,41.22,8.52,61.05,8.52,61.05,8.83-9.79,45.45-25.56,45.45-25.56Z"></path><path class="n" d="M417.6,336.77l.31-3.09c6.41,.64,10.68-2.21,13.15-4.72-.48-.39-.92-.8-1.34-1.2-3.65-3.6-5.19-7.86-3.93-10.85,.61-1.44,2.43-3.83,7.76-3.71,1.97,.04,3.54,1,4.4,2.68,1.57,3.05,.62,8.05-2.38,12.45,4.18,2.42,9.91,3.62,15.91,.97l1.25,2.84c-7.28,3.21-14.18,1.63-19.13-1.36-2.86,3.07-8.06,6.79-16.02,5.99Zm16.37-20.42c-.15-.03-.31-.05-.49-.05-1.5-.03-4.13,.16-4.83,1.82-.74,1.76,.59,4.81,3.25,7.43,.35,.34,.73,.68,1.13,1.02,2.56-3.78,3.03-7.59,2.17-9.26-.27-.53-.66-.84-1.22-.95Z"></path><path class="r" d="M420.08,369.01c-14.9,73.73-96,111.61-188.75,92.87-92.75-18.74-157.41-86.08-142.51-159.81,14.9-73.73,102.17-118.3,194.92-99.56,92.75,18.74,151.23,92.77,136.33,166.5Z"></path><path class="n" d="M231.18,462.65c-45.66-9.23-85.45-30.37-112.04-59.52-27.2-29.82-38.23-65.76-31.07-101.2,4.34-21.49,14.68-40.78,30.73-57.32,15.29-15.76,35.51-28.37,58.47-36.47l.52,1.46c-47.54,16.78-79.68,50.54-88.19,92.63-7.06,34.94,3.84,70.4,30.7,99.85,26.37,28.92,65.86,49.89,111.2,59.05,72.54,14.66,139.72-5.86,171.16-52.27l1.29,.87c-15.63,23.06-40,40.23-70.48,49.64-30.67,9.47-66.03,10.6-102.28,3.28Z"></path><path class="q" d="M187.76,342.59c-3.32,16.41-22.19,26.44-42.16,22.41-19.97-4.04-33.47-20.61-30.15-37.02,3.32-16.41,22.19-26.44,42.16-22.41,19.97,4.04,33.47,20.61,30.15,37.02Z"></path><path class="n" d="M119.16,348.86c-4.31-6.52-5.9-13.99-4.47-21.04,3.4-16.8,22.72-27.13,43.08-23.02,4.63,.94,9.01,2.55,13.01,4.79l-.76,1.35c-3.86-2.16-8.08-3.72-12.55-4.62-19.52-3.94-38.02,5.84-41.25,21.8-1.34,6.64,.17,13.7,4.25,19.87l-1.3,.86Z"></path><path class="n" d="M137.7,290.57c-.76,3.74-4.4,6.15-8.13,5.4-3.74-.76-6.15-4.4-5.4-8.13,.76-3.74,4.4-6.15,8.13-5.4,3.74,.76,6.15,4.4,5.4,8.13Z"></path><path class="n" d="M196.48,302.45c-.76,3.74-4.4,6.15-8.13,5.4-3.74-.76-6.15-4.4-5.4-8.13,.76-3.74,4.4-6.15,8.13-5.4,3.74,.76,6.15,4.4,5.4,8.13Z"></path><g><path class="n" d="M142.3,333.41c-.43,2.15-2.53,3.54-4.68,3.1s-3.54-2.53-3.1-4.68c.43-2.15,2.53-3.54,4.68-3.1,2.15,.43,3.54,2.53,3.1,4.68Z"></path><path class="n" d="M168.68,338.74c-.43,2.15-2.53,3.54-4.68,3.1-2.15-.43-3.54-2.53-3.1-4.68,.43-2.15,2.53-3.54,4.68-3.1,2.15,.43,3.54,2.53,3.1,4.68Z"></path></g><path class="n" d="M252.76,303.37l-.16-1.34c.09-.01,9.17-1.2,18.04-8.94,8.14-7.1,17.76-21.34,17.52-48.88-1.85-.45-8.87-1.95-18.32-1.42-10.15,.57-25.26,3.68-39.64,15.23l-.84-1.05c14.68-11.79,30.11-14.95,40.47-15.52,11.23-.62,18.87,1.51,19.19,1.6l.48,.14v.5c.38,28.45-9.6,43.16-18.03,50.49-9.18,7.98-18.32,9.16-18.71,9.21Z"></path><path class="r" d="M182.17,398.23s-45.36,60.52-26.63,71.47c12.45,7.28,61.27-35.31,61.27-35.31l-34.64-36.16Z"></path><path class="r" d="M362.48,434.66s18.3,73.39-3.21,76.2c-14.3,1.87-42.75-56.33-42.75-56.33l45.96-19.87Z"></path><path class="n" d="M298.55,499.69c-5.14-1.04-11.94-7.72-20.28-19.91l1.28-.88c11.44,16.75,17.7,19.77,20.93,19.34,9.19-1.2,10.3-17.1,9.63-30.23l1.55-.08c1.04,20.05-2.66,30.77-10.97,31.85-.68,.09-1.39,.06-2.14-.09Z"></path><path class="n" d="M155.08,470.32c-3.39-2.53-4.93-6.3-4.7-11.54,.28-6.31,3.1-14.57,8.64-25.25l1.38,.71c-9.59,18.5-11.03,29.89-4.39,34.83l-.93,1.25Z"></path><path class="n" d="M98.26,459.27c-1.93-.39-3.48-1.44-4.6-3.13-2.92-4.37-2.17-11.75-.96-15.63l1.48,.46c-1.08,3.47-1.83,10.42,.77,14.31,1.03,1.54,2.5,2.41,4.38,2.58,16.17,1.46,50.27-29.21,50.62-29.52l1.04,1.15c-1.42,1.28-34.96,31.44-51.8,29.91-.32-.03-.63-.07-.92-.13Z"></path><path class="n" d="M357.91,511.48c-8.42-1.7-19.58-17.84-20.05-18.53l1.28-.88c.11,.16,11.28,16.31,19.07,17.88,.04,0,.09,.02,.13,.02,1.28,.23,2.35,.04,3.27-.6,8.83-6.15,9.5-26.28,2.18-65.28l1.53-.29c7.55,40.21,6.71,60.2-2.82,66.84-1.25,.87-2.75,1.16-4.43,.85-.05,0-.1-.02-.15-.03Z"></path><g><path class="m" d="M335.62,232.36s-31.04-17.58-62.85-20.95c-27.55-2.91-50.8-1.19-66.67,3.06-7.93,2.13-8.08,7.01-5.2,8.99,4.12,2.83,9.15,1.17,14.43-.14,16.61-4.11,36.19-3.96,57.39-1.87,24.33,2.4,46.78,13.52,51.03,16.07,4.25,2.55,14.12-4,11.86-5.16Z"></path><g class="x"><path class="n" d="M335.62,235.03s-31.04-17.58-62.85-20.95c-27.55-2.91-50.8-1.19-66.67,3.06-7.93,2.13-8.08,7.01-5.2,8.99,4.12,2.83,9.15,1.17,14.43-.14,16.61-4.11,36.19-3.96,57.39-1.87,24.33,2.4,46.78,13.52,51.03,16.07,4.25,2.55,14.12-4,11.86-5.16Z"></path></g></g><g class="w"><g><path class="m" d="M256.36,207.92s35.63,1.8,64.28,16.01c24.82,12.31,43.52,26.23,54.64,38.32,5.56,6.05,3.06,10.25-.43,10.38-4.99,.18-8.35-3.92-12.11-7.85-11.82-12.38-28.42-22.74-47.44-32.34-21.83-11.02-46.74-13.67-51.7-13.79-4.96-.13-9.77-10.95-7.25-10.72Z"></path><g class="v"><path class="n" d="M254.93,210.17s35.63,1.8,64.28,16.01c24.82,12.31,43.52,26.23,54.64,38.32,5.56,6.05,3.06,10.25-.43,10.38-4.99,.18-8.35-3.92-12.11-7.85-11.82-12.38-28.42-22.74-47.44-32.34-21.83-11.02-46.74-13.67-51.7-13.79-4.96-.13-9.77-10.95-7.25-10.72Z"></path></g></g></g></g><g><path class="o" d="M245.25,356.51c36.13-53.28,74.14-66.12,103.58,3.17,29.44,69.29,.5,78.19-23.79,37.6-12.33,25.35-28.01,14.55-35.05-10.64-5.08,19.34-39.74-14.58-39.74-14.58-3.58-4.72-5-15.56-5-15.56Z"></path><path class="n" d="M355.64,377.68h0c-.4,.13-.61,.56-.48,.95,7.45,23.11,6.17,35.84,1.7,40.23-2.97,2.91-7.01,1.99-9.88,.71-6.71-3.01-14.47-11.27-21.29-22.67l-.72-1.21-.61,1.26c-5.55,11.42-12.21,16.1-18.75,13.17-6.01-2.69-11.43-11.32-14.89-23.68l-.75-2.7-.71,2.71c-.63,2.4-1.78,4.02-3.41,4.8-2.31,1.11-5.71,.67-10.09-1.3-2.21-.99-4.52-2.31-6.8-3.78-.33-.21-.76-.15-1,.15h0c-.29,.35-.21,.88,.17,1.13,2.33,1.5,4.71,2.85,7,3.88,4.81,2.16,8.64,2.59,11.37,1.28,1.46-.7,2.61-1.89,3.41-3.55,3.6,11.61,9.04,19.73,15.08,22.44,4.18,1.87,12.26,2.63,20.12-12.65,6.89,11.2,14.4,19.02,21.26,22.09,4.66,2.09,8.77,1.73,11.57-1.01,5.98-5.87,5.38-20.96-1.33-41.77-.13-.4-.56-.62-.95-.49Z"></path><path class="n" d="M281.6,374.99c-1.73-.78-3.32-2.66-4.76-5.64-.18-.38-.01-.85,.38-1.02h0c.38-.17,.81,0,.99,.37,1.64,3.39,3.44,5.17,5.24,5.17,3.09,0,6.04-5.08,6.92-7.04l.82-1.84,.6,1.92c.03,.1,3.01,9.53,8.02,10.9,.35,.1,.56,.46,.51,.82h0c-.06,.46-.52,.76-.97,.63-4.4-1.26-7.25-7.24-8.42-10.22-1.31,2.32-4.07,6.34-7.49,6.35-.63,0-1.25-.14-1.85-.4Z"></path><path class="n" d="M325.27,393.07c-2.3-1.03-4.3-3.13-5.43-5.91-.16-.4,.06-.85,.47-.99h0c.39-.13,.79,.08,.95,.45,1.67,4.08,5.45,6.43,8.87,5.39,4.09-1.23,7.5-7.7,3.88-21.87-.1-.4,.13-.82,.53-.93h0c.41-.11,.83,.14,.94,.55,3.89,15.19,.04,22.2-4.91,23.7-1.77,.53-3.62,.35-5.3-.41Z"></path><path class="n" d="M315.39,367.86c-.77-.35-1.47-.89-2.03-1.59-.28-.35-.18-.86,.2-1.08l.07-.04c.3-.17,.69-.11,.9,.16,.93,1.19,2.43,1.75,3.74,1.34,1.6-.5,2.48-2.32,2.42-4.93,0-.39,.27-.72,.66-.76h.08c.4-.04,.77,.27,.78,.68,.09,3.35-1.19,5.74-3.49,6.46-1.1,.34-2.28,.23-3.34-.24Z"></path></g><g><path class="o" d="M429.7,102.64s9.75-3.01,8.73-4.12c-1.02-1.11-9.6,2.31-9.69,2.12-.16-.32,4.38-2.31,3.99-3.31-.54-1.39-5.87,2.34-9.06,4.6-3.19,2.26-9.45,2.08-9.45,2.08l5.2,7.03s3.23-2.11,4.53-1.43c1.3,.67,9.11,3.93,7.5,1.92-1.12-1.41-2.6-2.8-3.38-3.5-.19-.17-.08-.5,.18-.51,2.58-.15,11.22-.77,10.36-2.08-1-1.55-8.52-.23-8.51-.41,.02-.62,8.76-.9,9.97-2.71,1.73-2.6-10.55,.37-10.55,.37l.18-.04Z"></path><path class="n" d="M419.36,111.38l-5.64-7.62,.51,.02c.06,0,6.21,.16,9.3-2.03,4.52-3.21,7.78-5.27,8.98-4.91,.22,.07,.38,.21,.46,.42,.3,.77-1.05,1.65-2.85,2.72l-.1,.06,.33-.11c4.7-1.56,7.56-2.32,8.26-1.55,.13,.14,.17,.31,.12,.48-.21,.77-2.74,1.86-5.09,2.73,.27-.05,.54-.1,.81-.14,4.7-.78,5.63-.33,5.91,.08,.13,.18,.21,.49-.09,.94-.73,1.09-3.68,1.63-6.35,2.03,2.39-.14,4.35-.01,4.89,.82,.12,.18,.13,.38,.04,.56-.55,1.09-6.07,1.64-10.59,1.91,0,0-.03,0-.04,.03-.01,.03,0,.05,.01,.05,.79,.7,2.27,2.1,3.41,3.53,.11,.13,.43,.54,.18,.85-.15,.18-.46,.56-3.89-.69-1.73-.63-3.52-1.41-4.09-1.71-.96-.5-3.42,.86-4.29,1.42l-.19,.13Zm-4.65-7.11l4.77,6.45c.78-.48,3.34-1.96,4.58-1.32,1.58,.82,6.62,2.79,7.35,2.53-.02-.04-.05-.12-.15-.24-1.11-1.4-2.58-2.77-3.35-3.47-.16-.15-.22-.37-.15-.58,.07-.21,.26-.35,.48-.36,5.77-.34,9.86-1,10.18-1.64,0-.01,.01-.03-.01-.07-.67-1.04-5.34-.56-7.1-.37-1.2,.12-1.25,.12-1.37,.02l-.08-.08v-.12c.02-.4,.53-.51,3.12-.89,2.47-.36,6.21-.91,6.89-1.95,.08-.12,.17-.29,.1-.39-.56-.8-6.23,.14-10.19,1.09h0s-.02,0-.04,.01c-.05,.01-.1,.02-.16,.04-.13,.03-.27-.05-.3-.18-.03-.13,.05-.27,.18-.3,0,0,.07-.02,.18-.04,.19-.06,2.31-.72,4.4-1.51,4.17-1.58,4.22-2.16,4.22-2.19h0c-.63-.69-5.8,1.03-7.75,1.68-.49,.16-.91,.3-1.21,.4-.44,.14-.66,.2-.78-.01-.16-.32,.18-.53,1.34-1.22,.84-.5,2.81-1.67,2.64-2.11-.03-.06-.07-.1-.14-.12-1.22-.36-6.36,3.28-8.55,4.84-2.73,1.94-7.53,2.12-9.1,2.13Z"></path><path class="o" d="M476.74,138.09s9.31-4.19,9.28-2.69c-.03,1.5-8.73,4.62-8.68,4.82,.09,.35,4.81-1.17,5.18-.16,.51,1.4-5.95,2.13-9.84,2.55-3.89,.41-8.46,4.69-8.46,4.69l-.75-8.71s3.82-.56,4.35-1.92c.53-1.37,4.23-8.98,4.36-6.4,.09,1.8-.1,3.82-.22,4.86-.03,.26,.27,.43,.47,.26,2.04-1.59,8.92-6.84,9.15-5.29,.27,1.82-6.24,5.81-6.11,5.94,.43,.45,7.16-5.12,9.27-4.56,3.01,.81-8.16,6.7-8.16,6.7l.16-.09Z"></path><path class="n" d="M464.02,147.83l-.81-9.45,.23-.03c1.02-.15,3.76-.76,4.15-1.77,.24-.61,1.06-2.37,1.94-3.99,1.75-3.21,2.23-3.13,2.46-3.09,.4,.06,.42,.58,.43,.76,.09,1.82-.1,3.85-.22,4.9,0,0,0,.03,.02,.05,.03,.02,.05,0,.05,0,3.57-2.79,8.07-6.03,9.21-5.58,.19,.07,.31,.23,.34,.44,.15,.98-1.24,2.37-3.13,3.85,2.27-1.46,4.84-3.02,6.1-2.68,.53,.14,.67,.43,.69,.65,.06,.49-.34,1.44-4.38,3.97-.24,.15-.47,.29-.7,.43,2.34-.91,4.96-1.76,5.62-1.32,.15,.1,.23,.26,.23,.44-.02,1.04-2.67,2.37-7.22,4.3-.11,.05-.22,.09-.32,.14,.04,0,.07-.01,.11-.02,2.05-.39,3.65-.62,3.93,.15,.08,.21,.05,.42-.07,.61-.66,1.06-4.47,1.67-9.98,2.26-3.77,.4-8.27,4.59-8.32,4.63l-.37,.35Zm-.28-9.03l.69,7.99c1.18-1.03,4.9-4.07,8.23-4.42,2.68-.28,8.94-.95,9.61-2.03,.04-.07,.05-.12,.02-.18-.16-.45-2.42-.02-3.38,.16-1.32,.25-1.72,.32-1.81-.03-.06-.24,.15-.33,.57-.52,.28-.13,.69-.3,1.17-.5,1.89-.8,6.9-2.93,6.93-3.86,0-.01,0-.02,0-.02-.01-.02-.41-.43-4.62,1.15-2.09,.79-4.12,1.69-4.3,1.77-.1,.05-.16,.08-.16,.09-.12,.06-.27,.02-.33-.1s-.02-.27,.1-.33c.05-.02,.09-.05,.14-.07,.01,0,.02-.01,.03-.02h0c3.6-1.92,8.47-4.96,8.36-5.93-.01-.12-.19-.19-.33-.23-1.2-.32-4.36,1.74-6.46,3.1-2.19,1.43-2.65,1.68-2.93,1.39l-.08-.08v-.12c.02-.16,.06-.19,1.04-.89,1.44-1.03,5.26-3.76,5.08-4.98,0-.05-.02-.05-.03-.06-.66-.26-4.17,1.95-8.72,5.51-.17,.13-.4,.16-.6,.05-.19-.11-.3-.32-.27-.53,.12-1.03,.31-3.03,.22-4.82,0-.16-.03-.24-.04-.28-.71,.29-3.19,5.11-3.84,6.76-.51,1.3-3.41,1.89-4.31,2.04Z"></path><path class="n" d="M429.6,133.16c-4.92,.22-5.28,4.79-5.28,5.96-1.64-4.21-4.75-7.89-8.47-9.75l-.03-.06s4.13-3.12,.41-7.38c-3.3-3.78-15.85,.95-10.71,7.25-9.27,3.75-8.33,14.12-8.33,14.12,0,0-4.09,18.93,11.34,17.13,12.24-1.43,16.88-7.86,17.03-14.61,.55,.15,1.14,.31,1.79,.47,14.8,3.57,7.91-13.37,2.26-13.11Z"></path><path class="o" d="M411.69,154.48s-7.46,12.27-7.35,13.2c.39,3.17,5.47,16.05,6.42,16.96,.94,.91-23.7-10.6-23.7-10.6l-6.74-9.64,5.34-1.24s3.83,.15,5.9-.48c2.07-.63,9.78-13.05,9.78-13.05l10.34,4.86Z"></path><path class="n" d="M386.9,174.24l-.04-.05-6.95-9.94,5.73-1.33h.03s3.81,.14,5.82-.47c1.62-.5,7.51-9.51,9.64-12.95l.12-.19,10.79,5.07-.14,.23c-2.82,4.65-7.31,12.3-7.31,13.05,.41,3.32,5.53,16.02,6.34,16.81,.14,.13,.12,.28,.06,.36-.15,.22-.19,.28-4.11-1.44-1.98-.87-4.72-2.11-8.15-3.68-5.83-2.67-11.72-5.42-11.78-5.45l-.06-.03Zm-6.16-9.68l6.49,9.29c8.19,3.83,20.2,9.35,22.98,10.42-1.55-2.73-5.76-13.68-6.11-16.56-.11-.91,5.33-9.98,7.24-13.12l-9.9-4.65c-1.2,1.93-7.78,12.36-9.8,12.97-2,.61-5.54,.51-5.95,.49l-4.96,1.15Z"></path><path class="o" d="M410.4,156.44c2.02-.16,5.7-.71,6.84-2.6,1.14-1.89-1.19-2.89-2.03-2.95-.56-.04,5.25-9.46,5.25-9.46l-14.51-9.08s-6.82,7.08-9.23,12.72c-2.43,5.66-.74,8.4,3.06,10.73,1.88,1.16,3.63,1.58,5.17,1.63l5.46-.98Z"></path><path class="n" d="M400.35,156.41c-.24-.12-.47-.26-.7-.4-2.18-1.34-3.41-2.65-3.97-4.25-.64-1.81-.37-4.03,.81-6.79,2.41-5.61,9.21-12.72,9.28-12.79l.14-.14,14.89,9.31-.13,.21c-1.9,3.07-4.85,8.05-5.21,9.12,.65,.13,1.73,.6,2.16,1.43,.2,.4,.34,1.04-.16,1.87-1.19,1.97-4.92,2.55-7.03,2.72-.14,.01-.25-.09-.27-.23-.01-.14,.09-.25,.23-.27,2.02-.16,5.58-.7,6.65-2.49,.31-.51,.35-.98,.14-1.39-.39-.75-1.5-1.16-1.98-1.19-.1,0-.19-.07-.23-.15-.1-.19-.21-.42,2.55-5.14,1.1-1.87,2.23-3.72,2.61-4.33l-14.14-8.84c-.98,1.04-6.86,7.41-9.05,12.5-2.43,5.66-.57,8.26,2.97,10.43,1.63,1,3.33,1.53,5.05,1.59,.14,0,.24,.12,.24,.25,0,.14-.12,.24-.25,.24-1.56-.05-3.1-.48-4.59-1.26Z"></path><path class="n" d="M401.76,143.49s-.04-.02-.06-.04c-.22-.16-.27-.47-.1-.69l.33-.45c.16-.22,.47-.27,.69-.1,.22,.16,.27,.47,.1,.69l-.33,.45c-.15,.2-.41,.26-.63,.14Z"></path><path class="n" d="M408.24,147.46s-.04-.02-.06-.04c-.22-.16-.27-.47-.1-.69l.33-.45c.16-.22,.47-.27,.69-.1,.22,.16,.27,.47,.1,.69l-.33,.45c-.15,.2-.41,.26-.63,.14Z"></path><path class="n" d="M412.01,146.01c-.05-.03-.1-.07-.13-.12-.98-1.65-2.81-2.14-2.83-2.15-.18-.05-.28-.23-.23-.4,.05-.18,.23-.28,.4-.23,.09,.02,2.11,.57,3.23,2.45,.09,.16,.04,.36-.11,.45-.1,.06-.22,.06-.32,0Z"></path><path class="n" d="M399.35,147.75c-.39,.15,.34,1.91,1.39,2.44,2.64,1.33,4.4-.14,3.66-.14-.28,0-1.91-.07-3.17-.83-1.61-.97-1.44-1.64-1.88-1.47Z"></path><path class="n" d="M402.97,147.83s-.03-.01-.04-.02c-.83-.65-1.79-1.53-1.63-2.03,.09-.28,.36-.4,.77-.57,.53-.23,1.42-.61,2.64-1.65,.1-.09,.26-.08,.35,.03,.09,.1,.08,.26-.03,.35-1.28,1.09-2.21,1.49-2.76,1.73-.23,.1-.45,.19-.49,.26,.03,.21,.7,.91,1.46,1.5,.11,.08,.13,.24,.04,.35-.07,.1-.21,.12-.31,.07Zm-1.2-1.9h0Z"></path><path class="n" d="M405.78,141.44s-.07-.04-.1-.08c-1.33-1.54-2.7-1.58-2.71-1.58-.18,0-.33-.15-.32-.33,0-.18,.15-.33,.33-.32,.07,0,1.68,.04,3.2,1.81,.12,.14,.1,.35-.03,.46-.11,.09-.25,.1-.37,.04Z"></path><polygon class="o" points="304.35 280.74 296.27 296.61 305.28 300.4 314.94 285.12 304.35 280.74"></polygon><path class="n" d="M295.93,296.74l8.3-16.31,11.06,4.57-9.92,15.71-9.45-3.97Zm8.54-15.68l-7.86,15.43,8.57,3.6,9.39-14.86-10.1-4.18Z"></path><path class="t" d="M387.7,222.29l2.23-5.61-26.77-15.72-1.25,7.7c.31,.96,.52,1.94,.59,2.91,.54,7.91-4.72,13.49-11.98,14.76-3.21,.56-25.96,9.01-27.88,9.3-4.68,9.89-21.38,46.67-21.35,46.03l13.17,6.96s3.88-6.17,21.65-36.11c0,0,39.31,3.04,45.61-3.88,9.12-10.02,5.99-26.33,5.99-26.33Z"></path><path class="p" d="M297.68,292.85s-12-8.93-15.34-3.48c-3.34,5.45-2.79,5.28-2.79,5.28l22.56,11.92,3.85-6.44s-8.99-2.96-8.27-7.28Z"></path><rect class="n" x="290.27" y="286.88" width="1.47" height="26.51" transform="translate(-110.34 417.12) rotate(-62.14)"></rect><path class="n" d="M302.71,278.93c-.11-.06,19.72-43.69,19.72-43.69l.1-.03,42.77-13.74c.13-.04,.27,.03,.31,.16,.04,.13-.03,.27-.16,.31l-42.67,13.71-19.73,43.18c-.06,.12-.2,.18-.33,.12h-.01Z"></path><path class="p" d="M467.13,146.22l2.38-1.11-3.86-8.28-2.62,1.22c-1.03-1.31-2.88-1.75-4.41-.93-9.72,5.2-33.95,8.76-53.08,31.59-2.73,3.26-15.68,.34-15.74-6.07-.07-6.7-4.83-9.68,.68-23.6,3.36-8.51,13.5-16.97,27.02-24.91,1.09-.64,3.99-1.19,3.44-3.22l1.93-.48-3.06-8.02-1.59,.53c-.38-.77-1.8-1.74-2.65-1.39-8.07,3.38-34.61,16.33-39.62,34.3,0,0-3.53,17.97-1.46,26.84,1.3,5.55-18.31,37.79-18.87,42.8-.07,.64,1.31,1.68,2.16,2.4l-.96,2.34,32.32,13.23,.86-2.65c.88,.24,1.99,.51,2.55,.21,9.57-5.12,22.43-39.13,22.43-39.13,0,0,17.21-20.33,49.99-30.53,2.07-.64,2.9-3.13,2.16-5.14Z"></path><path class="n" d="M399.73,138.66s4.15-5.25,9.54-2.69c2.84,1.35,6.02,3.58,6.98,5.79,.92,2.13-.56,8.76-.56,8.76l7.73-10.33-16.52-10.64-7.17,9.1Z"></path></g></g><g class="y"><g><g><path class="t" d="M294.94,211.62c-7.39,21.24-30.61,32.47-51.85,25.08-21.24-7.39-32.47-30.61-25.08-51.85,7.39-21.24,30.61-32.47,51.85-25.08,21.24,7.39,32.47,30.61,25.08,51.85h0Z"></path><path class="r" d="M289.74,209.81c-6.39,18.37-26.47,28.08-44.84,21.69-18.37-6.39-28.08-26.47-21.69-44.84,6.39-18.37,26.47-28.08,44.84-21.69,18.37,6.39,28.08,26.47,21.69,44.84h0Z"></path><path class="s" d="M224.77,224.19c-2.01-2.47-3.75-5.19-5.17-8.12-4.76-9.85-5.41-20.96-1.81-31.3,3.6-10.33,11-18.65,20.85-23.41,9.85-4.76,20.96-5.41,31.3-1.81,.12,.04,.19,.17,.14,.3-.04,.12-.18,.19-.3,.14-21.09-7.34-44.21,3.85-51.55,24.93-3.55,10.21-2.92,21.2,1.79,30.94,4.71,9.74,12.93,17.06,23.14,20.61,.12,.04,.19,.17,.14,.3-.04,.12-.18,.19-.3,.14-7.25-2.52-13.51-6.92-18.24-12.73Z"></path><path class="s" d="M244.72,231.65c-.05-.06-.07-.15-.04-.22,.04-.12,.18-.19,.3-.14,18.22,6.34,38.2-3.32,44.54-21.54,3.07-8.83,2.52-18.32-1.55-26.73-4.07-8.41-11.17-14.74-20-17.81-.12-.04-.19-.17-.14-.3,.04-.12,.18-.19,.3-.14,8.94,3.11,16.14,9.52,20.26,18.05,4.12,8.53,4.68,18.15,1.57,27.09-6.43,18.46-26.68,28.26-45.14,21.83l-.1-.07Z"></path></g><g><path class="r" d="M253.29,173.55c1.68,.6,3.36,1.21,5.04,1.79,.48,.16,.64,.39,.5,.89-.53,2.01,.47,3.65,2.53,4.39,1.35,.48,2.71,.95,4.05,1.45,4.49,1.66,8,4.52,10.46,8.63,2.73,4.57,3.54,9.49,2.4,14.7-1,4.59-3.31,8.4-6.98,11.33-5.27,4.2-11.21,5.47-17.76,3.91-3.63-.87-6.72-2.71-9.36-5.35-2.62-2.61-4.39-5.72-5.28-9.28-.9-3.63-.87-7.28,.3-10.88,2.51-7.71,5.41-15.29,8.06-22.95,.18-.52,.42-.64,.94-.45,1.69,.63,3.39,1.22,5.09,1.82Z"></path><path class="t" d="M253.29,173.55c1.68,.6,3.36,1.21,5.04,1.79,.48,.16,.64,.39,.5,.89-.53,2.01,.47,3.65,2.53,4.39,1.35,.48,2.71,.95,4.05,1.45,4.49,1.66,8,4.52,10.46,8.63,2.73,4.57,3.54,9.49,2.4,14.7-1,4.59-3.31,8.4-6.98,11.33-5.27,4.2-11.21,5.47-17.76,3.91-3.63-.87-6.72-2.71-9.36-5.35-2.62-2.61-4.39-5.72-5.28-9.28-.9-3.63-.87-7.28,.3-10.88,2.51-7.71,5.41-15.29,8.06-22.95,.18-.52,.42-.64,.94-.45,1.69,.63,3.39,1.22,5.09,1.82Zm-6.79,4.25c-.25,.17-.26,.36-.31,.52-1.93,5.42-3.87,10.83-5.78,16.25-.43,1.22-.74,2.49-.92,3.77-.59,4.43,.19,8.64,2.49,12.46,2.76,4.58,6.77,7.61,12,8.89,5.12,1.25,10,.53,14.5-2.18,4.61-2.78,7.58-6.86,8.78-12.12,1.08-4.75,.47-9.3-1.92-13.59-2.3-4.12-5.66-7.02-10.08-8.68-1.36-.51-2.74-.98-4.11-1.47-2.47-.88-3.68-2.7-3.46-4.96,.04-.37-.14-.52-.45-.63-1.06-.37-2.13-.73-3.17-1.14-.53-.21-.69-.01-.78,.46-.58,3.11,.16,5.87,2.27,8.24,1.09,1.23,2.47,2.04,3.99,2.63,1.86,.72,3.81,1.21,5.59,2.13,3.58,1.86,6,4.74,7.24,8.56,1.1,3.38,.92,6.75-.46,10.04-1.73,4.11-4.72,6.89-8.95,8.27-3.52,1.15-7.02,.98-10.43-.53-4-1.78-6.66-4.78-8.06-8.89-1.14-3.37-.84-6.72,.31-10.02,1.17-3.36,2.38-6.72,3.59-10.07,.16-.45,.18-.82-.08-1.26-.45-.79-.81-1.63-1.06-2.51-.39-1.34-.67-2.7-.73-4.18Zm.68,14.38c-.49,1.59-1.31,3.47-1.85,5.45-.76,2.75-.72,5.47,.22,8.16,1.38,3.94,4.04,6.73,7.91,8.24,3.86,1.51,7.7,1.27,11.4-.67,3.11-1.64,5.22-4.18,6.4-7.43,.88-2.42,1.07-4.94,.45-7.49-1.14-4.71-3.96-7.97-8.47-9.75-1.62-.64-3.3-1.13-4.9-1.84-2.37-1.06-4.12-2.73-5.25-5.04-1.06-2.18-1.31-4.48-.75-6.85,.09-.38,.06-.62-.35-.76-1.12-.38-2.23-.78-3.34-1.19-.33-.12-.48-.05-.59,.3-.28,.97-.49,1.96-.51,2.97-.16,6.05,2.32,10.66,7.58,13.72,1.87,1.09,3.96,1.67,5.99,2.37,2.76,.96,4.75,2.68,5.85,5.41,.88,2.17,.87,4.38,.05,6.52-.88,2.29-2.46,3.96-4.74,5.01-5.46,2.52-11.94-1.02-12.74-6.98-.23-1.72,.06-3.36,.61-4.96,.8-2.32,1.63-4.64,2.48-6.95,.16-.45,.11-.75-.29-1.05-1.02-.76-1.87-1.68-2.64-2.69-.09-.12-.16-.31-.33-.3-.22,0-.22,.24-.28,.4-.6,1.68-1.2,3.35-1.93,5.4Zm4.98,2.95c-.04,.11-.08,.22-.12,.33-.46,1.38-1.13,2.69-1.39,4.12-.75,4.16,1.79,8.27,6.04,9.24,3.13,.71,5.83-.17,7.92-2.57,2.19-2.51,2.53-5.43,1.24-8.46-.93-2.19-2.63-3.62-4.92-4.38-2.26-.75-4.53-1.49-6.62-2.67-.42-.24-.59-.01-.72,.35-.47,1.35-.96,2.7-1.44,4.05Z"></path><path class="j" d="M262.28,209.31c2.28-1.05,3.86-2.73,4.74-5.01,.82-2.14,.83-4.34-.05-6.52-.12-.3-.26-.58-.4-.86"></path><path class="j" d="M262.96,215.26c4.23-1.38,7.23-4.16,8.95-8.27,1.38-3.29,1.55-6.66,.46-10.04"></path><path class="j" d="M242.58,185.32c-.98,2.75-1.94,5.51-2.87,8.28"></path><path class="j" d="M254.5,220.84c6.17,1.22,11.79-.12,16.8-4.12,2.21-1.77,3.92-3.86,5.16-6.24"></path></g><g class="u"><path class="q" d="M288.45,183.46c-6.99,7.81-15.37,12.75-23.99,15.78,.37,.4-8.05,2.37-8.13,2.31-13.23,2.93-26.19,2.09-34.83,.84,.79,6.67,3.49,12.98,7.71,18.15,3.98,4.88,9.32,8.75,15.7,10.97,15.54,5.41,32.29-.7,40.96-13.83,1.58-2.39,2.89-5.02,3.88-7.86h0l.03-.1v-.02c.03-.07,.05-.13,.07-.2h0c.02-.08,.05-.15,.07-.22h0c2.92-8.82,2.15-17.99-1.48-25.83h0Z"></path></g><g><path class="s" d="M235.81,220.47c-.08,.08-.21,.09-.31,.01-.06-.05-5.84-4.74-6.48-11.75-.01-.13,.08-.24,.21-.25,.13-.01,.24,.08,.25,.21,.63,6.81,6.25,11.38,6.31,11.43,.1,.08,.12,.23,.04,.33l-.02,.02Z"></path><path class="s" d="M239.13,218.01c-.08,.08-.21,.09-.31,.01-.06-.05-5.84-4.74-6.48-11.75-.01-.13,.08-.24,.21-.25,.13-.01,.24,.08,.25,.21,.63,6.81,6.25,11.38,6.31,11.43,.1,.08,.12,.23,.04,.33l-.02,.02Z"></path></g><g><path class="s" d="M279.73,177.59c.08-.09,.21-.1,.31-.04,.06,.04,6.21,4.25,7.42,11.18,.02,.13-.06,.25-.19,.27-.13,.02-.25-.06-.27-.19-1.18-6.73-7.16-10.83-7.22-10.87-.11-.07-.14-.22-.06-.32l.02-.03Z"></path><path class="s" d="M276.63,180.31c.08-.09,.21-.1,.31-.04,.06,.04,6.21,4.25,7.42,11.18,.02,.13-.06,.25-.19,.27-.13,.02-.25-.06-.27-.19-1.18-6.74-7.16-10.83-7.22-10.87-.11-.07-.14-.22-.06-.32l.02-.03Z"></path></g></g></g></g></g></g></g></svg> 