<?xml version="1.0" encoding="utf-8"?>
<!-- Generator: Adobe Illustrator 16.0.0, SVG Export Plug-In . SVG Version: 6.00 Build 0)  -->
<!DOCTYPE svg PUBLIC "-//W3C//DTD SVG 1.1//EN" "http://www.w3.org/Graphics/SVG/1.1/DTD/svg11.dtd">
<svg version="1.1" id="Capa_1" xmlns="http://www.w3.org/2000/svg" xmlns:xlink="http://www.w3.org/1999/xlink" x="0px" y="0px"
	 width="874.456px" height="1090.819px" viewBox="103.113 413.265 874.456 1090.819"
	 enable-background="new 103.113 413.265 874.456 1090.819" xml:space="preserve">
<linearGradient id="SVGID_1_" gradientUnits="userSpaceOnUse" x1="400.1653" y1="1089.666" x2="-237.0296" y2="1726.8618" gradientTransform="matrix(2.1094 0 0 2.1094 241.8454 -1965.5703)">
	<stop  offset="0.0023" style="stop-color:#FFC599"/>
	<stop  offset="0.992" style="stop-color:#FFE8DC;stop-opacity:0"/>
</linearGradient>
<path fill="url(#SVGID_1_)" d="M903.656,786.609c-17.719-17.719-37.969-31.43-60.539-41.766
	c-59.063-26.789-105.681-74.672-131.625-134.156c-48.305-109.898-158.203-186.68-285.82-186.891
	c-167.484,0.211-306.281,133.523-312.609,300.586c-2.742,71.508,18.773,137.953,56.742,191.953
	c48.305,68.344,60.75,155.672,35.859,235.617c-35.438,113.695-22.992,221.273,44.297,288.563
	c117.914,117.914,359.859,67.078,540.422-113.484C970.735,1146.469,1021.571,904.523,903.656,786.609L903.656,786.609z"/>
<g>
	<path opacity="0.3" fill="#FFC599" enable-background="new    " d="M686.814,1347.042H352.835
		c-21.244,0-38.483-17.239-38.483-38.482V654.183c0-21.243,17.239-38.482,38.483-38.482h333.979
		c21.244,0,38.482,17.239,38.482,38.482v654.377C725.296,1329.803,708.058,1347.042,686.814,1347.042L686.814,1347.042z"/>
	<path opacity="0.3" fill="#FFC599" enable-background="new    " d="M869.823,1172.739H484.302c-9.577,0-17.413-7.836-17.413-17.413
		V909.979c0-9.577,7.836-17.413,17.413-17.413h385.347c9.577,0,17.413,7.836,17.413,17.413v245.348
		C887.237,1165.077,879.401,1172.739,869.823,1172.739z"/>
	<path fill="#FF9D33" d="M686.814,1310.475H352.835c-21.244,0-38.483-17.238-38.483-38.482V617.616
		c0-21.244,17.239-38.483,38.483-38.483h333.979c21.244,0,38.482,17.239,38.482,38.483v654.376
		C725.296,1293.236,708.058,1310.475,686.814,1310.475L686.814,1310.475z"/>
	<path fill="#EAFAFF" d="M314.352,669.854h410.944v549.725H314.352V669.854z"/>
	<path opacity="0.4" fill="#30ABE0" enable-background="new    " d="M725.296,892.565v280.174H484.302
		c-9.577,0-17.413-7.836-17.413-17.413V909.979c0-9.577,7.836-17.413,17.413-17.413H725.296z"/>
	<path opacity="0.4" fill="#30ABE0" enable-background="new    " d="M428.406,1173.609H365.72c-4.875,0-8.707-3.831-8.707-8.706
		c0-4.876,3.831-8.707,8.707-8.707h62.687c4.875,0,8.707,3.831,8.707,8.707C437.113,1169.778,433.282,1173.609,428.406,1173.609z"/>
	<path opacity="0.4" fill="#30ABE0" enable-background="new    " d="M428.406,1138.436H365.72c-4.875,0-8.707-3.831-8.707-8.707
		c0-4.875,3.831-8.706,8.707-8.706h62.687c4.875,0,8.707,3.831,8.707,8.706C437.113,1134.604,433.282,1138.436,428.406,1138.436z"/>
	<g>
		<path fill="#D04D2E" d="M554.998,633.113h-70.522c-4.875,0-8.706-3.831-8.706-8.706c0-4.876,3.831-8.707,8.706-8.707h70.522
			c4.875,0,8.706,3.831,8.706,8.707C563.704,629.282,559.874,633.113,554.998,633.113z"/>
		<path fill="#D04D2E" d="M484.302,1253.013v22.114c0,4.875,3.831,8.706,8.707,8.706h53.458c4.875,0,8.706-3.831,8.706-8.706
			v-22.114c0-4.876-3.831-8.707-8.706-8.707h-53.458C488.307,1244.306,484.302,1248.311,484.302,1253.013z"/>
		<path fill="#D04D2E" d="M657.386,1272.688h-28.731c-4.875,0-8.706-3.83-8.706-8.706s3.831-8.706,8.706-8.706h28.731
			c4.876,0,8.706,3.83,8.706,8.706S662.262,1272.688,657.386,1272.688z"/>
		<path fill="#D04D2E" d="M410.993,1272.688h-28.731c-4.875,0-8.707-3.83-8.707-8.706s3.831-8.706,8.707-8.706h28.731
			c4.876,0,8.707,3.83,8.707,8.706S415.869,1272.688,410.993,1272.688z"/>
	</g>
	<path fill="#FFC599" d="M869.823,1141.396H484.302c-9.577,0-17.413-7.836-17.413-17.413V878.635
		c0-9.577,7.836-17.413,17.413-17.413h385.347c9.577,0,17.413,7.836,17.413,17.413v245.347
		C887.237,1133.734,879.401,1141.396,869.823,1141.396z"/>
	<path opacity="0.8" fill="#DC672F" enable-background="new    " d="M466.889,906.844h420.173v56.94H466.889V906.844z"/>
	<path fill="#FFFFFF" d="M592.958,1099.953h-74.005c-4.875,0-8.706-3.831-8.706-8.707c0-4.875,3.831-8.706,8.706-8.706h74.005
		c4.876,0,8.706,3.831,8.706,8.706C601.664,1096.122,597.659,1099.953,592.958,1099.953z"/>
	<path fill="#D04D2E" d="M539.153,1010.103h-20.199c-4.875,0-8.706-3.831-8.706-8.706c0-4.876,3.831-8.707,8.706-8.707h20.199
		c4.875,0,8.706,3.831,8.706,8.707C547.859,1006.271,543.854,1010.103,539.153,1010.103z"/>
	<path fill="#FFFFFF" d="M702.659,1099.953h-74.005c-4.875,0-8.706-3.831-8.706-8.707c0-4.875,3.831-8.706,8.706-8.706h74.005
		c4.876,0,8.706,3.831,8.706,8.706C711.365,1096.122,707.361,1099.953,702.659,1099.953z"/>
	<path fill="#FFFFFF" d="M655.645,1064.779H518.953c-4.875,0-8.706-3.831-8.706-8.707c0-4.875,3.831-8.706,8.706-8.706h136.691
		c4.876,0,8.706,3.831,8.706,8.706C664.351,1060.948,660.346,1064.779,655.645,1064.779z"/>
	<path fill="#FFFFFF" d="M835.694,1027.516c-2.264,0-4.527-0.871-6.094-2.612c-3.482-3.482-3.482-8.881,0-12.363l17.412-17.413
		c3.483-3.482,8.881-3.482,12.363,0c3.482,3.483,3.482,8.881,0,12.363l-17.412,17.413
		C840.047,1026.645,837.957,1027.516,835.694,1027.516z"/>
	<path fill="#FFFFFF" d="M794.077,1027.516c-2.264,0-4.527-0.871-6.095-2.612c-3.482-3.482-3.482-8.881,0-12.363l17.413-17.413
		c3.482-3.482,8.88-3.482,12.363,0c3.482,3.483,3.482,8.881,0,12.363l-17.413,17.413
		C798.43,1026.645,796.166,1027.516,794.077,1027.516z"/>
	<path fill="#FFFFFF" d="M752.286,1027.516c-2.264,0-4.527-0.871-6.095-2.612c-3.482-3.482-3.482-8.881,0-12.363l17.413-17.413
		c3.482-3.482,8.881-3.482,12.363,0c3.482,3.483,3.482,8.881,0,12.363l-17.413,17.413
		C756.814,1026.645,754.55,1027.516,752.286,1027.516z"/>
	<path fill="#FFFFFF" d="M710.669,1027.516c-2.264,0-4.527-0.871-6.095-2.612c-3.482-3.482-3.482-8.881,0-12.363l17.413-17.413
		c3.483-3.482,8.881-3.482,12.363,0c3.482,3.483,3.482,8.881,0,12.363l-17.413,17.413
		C715.023,1026.645,712.933,1027.516,710.669,1027.516z"/>
	<path fill="#127BC0" d="M869.823,852.516H734.002v-73.831V644.78v-27.164c0-25.945-21.243-47.189-47.188-47.189H352.835
		c-25.945,0-47.189,21.244-47.189,47.189v27.164v253.88v373.332c0,25.945,21.244,47.189,47.189,47.189h333.979
		c25.945,0,47.188-21.244,47.188-47.189v-121.891h135.821c14.452,0,26.119-11.666,26.119-26.119V878.635
		C895.943,864.183,884.276,852.516,869.823,852.516L869.823,852.516z M734.002,761.272v-99.08 M352.835,587.84h333.979
		c16.368,0,29.776,13.408,29.776,29.776v43.532H323.058v-43.532C323.058,601.248,336.467,587.84,352.835,587.84z M686.814,1301.769
		H352.835c-16.368,0-29.776-13.408-29.776-29.776v-43.532H716.59v43.532C716.59,1288.36,703.182,1301.769,686.814,1301.769z
		 M878.53,1123.982c0,4.876-3.831,8.707-8.706,8.707H725.296c-4.876,0-8.706,3.83-8.706,8.706l0,0v69.651H323.058V889.954
		c0-4.875,0-59.03,0-59.03l-17.413-168.731v7.835v93.682c-3.309,1.219-5.572,4.354-5.572,8.184s2.438,6.965,5.572,8.184v51.194
		c0,4.875,3.831,8.707,8.706,8.707c4.876,0,8.707-3.831,8.707-8.707V678.909H716.59v173.955H484.302
		c-14.453,0-26.12,11.667-26.12,26.119v245.348c0,14.452,11.667,26.119,26.12,26.119h181.616c4.876,0,8.707-3.831,8.707-8.706
		c0-4.876-3.831-8.707-8.707-8.707H484.302c-4.876,0-8.707-3.83-8.707-8.706V878.635c0-4.875,3.831-8.707,8.707-8.707h385.347
		c4.876,0,8.707,3.831,8.707,8.707L878.53,1123.982z"/>
	<path fill="#D04D2E" d="M618.032,978.063h-99.079c-4.875,0-8.706-3.831-8.706-8.706v-11.318c0-4.876,3.831-8.707,8.706-8.707
		h99.079c4.876,0,8.707,3.831,8.707,8.707v11.318C626.74,974.231,622.908,978.063,618.032,978.063z"/>
</g>
</svg>
