<?xml version="1.0" encoding="utf-8"?>
<!-- Generator: Adobe Illustrator 16.0.0, SVG Export Plug-In . SVG Version: 6.00 Build 0)  -->
<!DOCTYPE svg PUBLIC "-//W3C//DTD SVG 1.1//EN" "http://www.w3.org/Graphics/SVG/1.1/DTD/svg11.dtd">
<svg version="1.1" id="Capa_1" xmlns="http://www.w3.org/2000/svg" xmlns:xlink="http://www.w3.org/1999/xlink" x="0px" y="0px"
	 width="1080px" height="963.837px" viewBox="0 475.876 1080 963.837" enable-background="new 0 475.876 1080 963.837"
	 xml:space="preserve">
<linearGradient id="SVGID_1_" gradientUnits="userSpaceOnUse" x1="372.8523" y1="-1517.9077" x2="-87.1479" y2="-837.9077" gradientTransform="matrix(2.1094 0 0 -2.1094 241.8454 -1427.0977)">
	<stop  offset="0.0023" style="stop-color:#FFC599"/>
	<stop  offset="0.992" style="stop-color:#FFE8DC;stop-opacity:0"/>
</linearGradient>
<path fill="url(#SVGID_1_)" d="M981.492,764.039c-31.43-36.492-51.891-81-61.594-128.039
	c-8.227-40.078-25.523-74.672-52.734-101.883c-124.031-124.031-405.634-43.453-629.016,179.93
	C14.766,937.43-65.812,1219.031,58.219,1343.063c58.852,58.852,153.563,71.719,260.508,44.719
	c62.227-15.609,127.617-9.07,186.258,16.875c48.938,21.727,102.938,34.172,159.68,35.016
	c222.961,3.164,408.586-174.234,415.125-396.984C1082.953,936.164,1045.406,838.5,981.492,764.039L981.492,764.039z"/>
<g>
	<path fill="#FCD6B4" d="M558.563,1334.414l-30.375,16.031c-4.852,2.531-10.758,2.531-15.609,0l-30.375-16.031
		c-167.273-87.961-270.422-250.172-270.422-425.883V801.375c0-8.438,6.328-15.82,14.766-16.664
		c57.586-6.117,103.57-47.461,110.742-99.563c1.266-8.438,8.227-14.555,16.664-14.555h332.859c8.438,0,15.398,6.328,16.664,14.555
		c7.383,52.313,53.156,93.445,110.742,99.563c8.438,0.844,14.766,8.227,14.766,16.664v107.156
		C828.774,1084.242,725.836,1246.453,558.563,1334.414z"/>
	<path opacity="0.3" fill="#FFC599" enable-background="new    " d="M814.008,784.711c-57.586-6.117-103.57-47.461-110.742-99.563
		c-1.266-8.438-8.227-14.555-16.664-14.555h-22.57c3.164,72.352,54.844,123.82,110.742,129.727
		c8.438,0.844,14.766,8.227,14.766,16.664v107.156c0,175.5-102.938,337.922-270.422,425.883l-3.586,1.898
		c4.219,1.266,8.648,0.844,12.445-1.266l30.374-16.031c167.274-87.961,270.423-250.172,270.423-425.883V801.586
		C828.774,792.938,822.446,785.555,814.008,784.711z"/>
	<path fill="#EAFAFF" d="M508.992,1291.383c-75.938-39.867-139.008-97.242-182.461-165.797
		c-43.031-67.711-65.813-144.703-65.813-222.539v-60.961c0-8.859,5.273-16.664,13.5-20.039
		c45.141-17.93,81.633-51.469,101.461-93.234c3.586-7.383,11.18-12.234,19.406-12.234h250.383c8.227,0,15.82,4.641,19.406,12.234
		c19.828,41.977,56.32,75.305,101.461,93.234c8.227,3.164,13.5,11.18,13.5,20.039v60.961c0,77.836-22.781,154.828-65.813,222.539
		c-43.453,68.555-106.523,125.93-182.461,165.797l-1.266,0.633c-6.328,3.375-13.711,3.375-20.039,0L508.992,1291.383z"/>
	<path fill="#30ABE0" d="M613.828,1086.984H426.305c-9.914,0-17.93-8.016-17.93-17.93V951.563c0-9.914,8.016-17.93,17.93-17.93
		h187.523c9.914,0,17.93,8.016,17.93,17.93v117.703C631.758,1078.969,623.742,1086.984,613.828,1086.984z"/>
	<path fill="#EAFAFF" d="M511.735,1018.852v23.414c0,4.641,3.586,8.227,8.227,8.227s8.227-3.586,8.227-8.227v-23.414
		c6.539-3.164,10.969-9.703,10.969-17.297c0-10.547-8.649-19.195-19.196-19.195c-10.546,0-19.194,8.648-19.194,19.195
		C500.766,1009.148,505.406,1015.688,511.735,1018.852z"/>
	<path fill="#F38230" d="M504.352,1300.242L504.352,1300.242l1.266,0.633c4.641,2.32,9.703,3.586,14.766,3.586
		s10.125-1.266,14.766-3.586l1.266-0.633c77.414-40.711,141.75-99.141,186.258-169.172c44.086-69.398,67.289-148.289,67.289-228.023
		v-60.961c0-13.078-7.805-24.469-19.828-29.32c-43.031-17.086-77.203-48.305-96.188-88.172c-5.063-10.758-16.242-17.93-28.477-17.93
		H395.086c-12.023,0-23.203,6.961-28.477,17.93c-18.984,39.867-53.156,71.297-96.188,88.172
		c-12.023,4.852-19.828,16.242-19.828,29.32v60.961c0,79.734,23.203,158.625,67.289,228.023
		C362.391,1201.102,426.938,1259.531,504.352,1300.242z M270.633,903.047v-60.961c0-4.852,2.742-9.07,7.172-10.758
		c47.672-18.984,85.641-53.789,106.734-98.297c1.898-4.008,5.906-6.539,10.336-6.539h250.594c4.43,0,8.438,2.531,10.336,6.539
		c21.094,44.508,59.063,79.313,106.734,98.297c4.43,1.688,7.172,5.906,7.172,10.758v60.961c0,75.938-22.148,151.242-64.125,217.266
		c-42.609,67.078-104.414,123.188-178.664,162.211l-1.266,0.633c-3.375,1.688-7.383,1.688-10.758,0l-1.267-0.633
		c-74.249-39.023-136.054-95.133-178.663-162.211C292.781,1054.078,270.633,978.984,270.633,903.047z"/>
	<path fill="#FCC139" d="M819.914,997.758c-5.484-1.266-10.758,2.109-12.023,7.594c-30.375,134.578-122.977,251.227-254.18,320.203
		l-30.375,16.031c-1.898,1.055-4.219,1.055-6.328,0l-30.375-16.031c-131.414-68.977-224.016-186.047-254.391-320.836
		c-1.266-5.484-6.539-8.859-12.023-7.594s-8.859,6.539-7.594,12.023c31.641,140.484,128.039,262.406,264.516,334.125l30.375,16.031
		c3.797,2.109,8.227,3.164,12.445,3.164s8.648-1.055,12.445-3.164l30.375-16.031c136.266-71.719,232.664-193.219,264.305-333.492
		C828.774,1004.297,825.399,999.023,819.914,997.758z"/>
	<path fill="#FCC139" d="M815.063,774.797c-53.367-5.695-95.345-43.031-102.094-91.125c-1.898-13.289-13.289-23.203-26.578-23.203
		H353.742c-13.289,0-24.68,9.914-26.578,23.203c-6.75,47.883-48.727,85.43-102.094,91.125c-13.5,1.477-23.625,12.867-23.625,26.578
		v107.156c0,15.609,0.844,31.43,2.32,46.828c0.633,5.063,4.852,9.07,9.914,9.07c0.422,0,0.633,0,1.055,0
		c5.484-0.633,9.492-5.484,8.859-10.969c-1.477-14.766-2.32-29.953-2.32-44.719V801.586c0-3.375,2.531-6.328,5.906-6.75
		c62.438-6.539,111.586-51.047,119.602-108.211c0.422-3.586,3.375-6.117,6.75-6.117h332.859c3.375,0,6.328,2.531,6.75,6.117
		c8.016,57.164,57.164,101.461,119.602,108.211c3.164,0.422,5.906,3.375,5.906,6.75v107.156c0,14.766-0.844,29.742-2.32,44.297
		c-0.633,5.484,3.375,10.336,8.859,10.969s10.336-3.375,10.969-8.859c1.477-15.398,2.32-31.008,2.32-46.406V801.586
		C838.899,787.664,828.563,776.273,815.063,774.797z"/>
	<path fill="#127BC0" d="M613.828,1095.211c14.344,0,26.156-11.813,26.156-26.156V951.563c0-14.344-11.813-26.156-26.156-26.156
		h-13.5v-39.234c0-44.297-36.07-80.367-80.367-80.367s-80.367,36.07-80.367,80.367v39.234h-13.5
		c-14.344,0-26.156,11.813-26.156,26.156v117.703c0,14.344,11.813,26.156,26.156,26.156L613.828,1095.211L613.828,1095.211z
		 M456.258,886.172c0-35.227,28.688-63.914,63.914-63.914s63.914,28.688,63.914,63.914v39.234H456.469L456.258,886.172
		L456.258,886.172z M416.602,1069.055V951.563c0-5.273,4.43-9.703,9.703-9.703h187.523c5.273,0,9.703,4.43,9.703,9.703v117.703
		c0,5.273-4.43,9.703-9.703,9.703H426.305C420.821,1078.758,416.602,1074.539,416.602,1069.055z"/>
</g>
</svg>
