<?xml version="1.0" encoding="utf-8"?>
<!-- Generator: Adobe Illustrator 24.0.3, SVG Export Plug-In . SVG Version: 6.00 Build 0)  -->
<svg version="1.1" id="Capa_1" xmlns="http://www.w3.org/2000/svg" xmlns:xlink="http://www.w3.org/1999/xlink" x="0px" y="0px"
	 viewBox="0 0 523.2 520" style="enable-background:new 0 0 523.2 520;" xml:space="preserve">
<style type="text/css">
	.st0{fill:url(#SVGID_1_);}
	.st1{opacity:0.2;fill:#FFC599;enable-background:new    ;}
	.st2{fill:#30ABE0;}
	.st3{fill:#FCD6B4;}
	.st4{fill:#127BC0;}
	.st5{fill:#FCBC90;}
	.st6{fill:#FFC599;}
	.st7{fill:#FF9D33;}
	.st8{fill:#FFAB66;}
	.st9{fill:#F38230;}
	.st10{fill:none;stroke:#F38230;stroke-width:7;stroke-linecap:round;stroke-miterlimit:10;}
</style>
<g>
	<g>
		
			<linearGradient id="SVGID_1_" gradientUnits="userSpaceOnUse" x1="428.7036" y1="24.1773" x2="83.4248" y2="-573.8633" gradientTransform="matrix(1 0 0 -1 0 -27.9486)">
			<stop  offset="2.300000e-03" style="stop-color:#FFC599"/>
			<stop  offset="0.992" style="stop-color:#FFE8DC;stop-opacity:0"/>
		</linearGradient>
		<path class="st0" d="M469.4,46.1C434,7,370.7-3.6,324.5,21.9c-37.1,20.5-182.1,90.7-222.2,109.7C74.2,145,46.2,164,35.4,193.2
			c-13,35.3,3.5,75.5,28.6,103.5s58.1,47.6,86.8,72s54.4,56.5,56.5,94.1c0.8,14.7-1.7,31.1,7.1,42.9c9.2,12.5,27,14.4,42.5,14.2
			c26.4-0.4,53.1-3.9,77.1-14.6c24.1-10.7,45.4-29.1,55.9-53.3c22.8-52.8-10-117.4,13.1-170c15.8-36,53.8-56.8,76.1-89.2
			C509.1,149.3,504.9,85.3,469.4,46.1L469.4,46.1z"/>
	</g>
	<g>
		<g>
			<path class="st1" d="M297.8,315.7v-22.3c0-2,1.2-3.9,3-4.8c25.7-12.2,48.5-24.2,56.1-55c0.6-2.4,2.8-4.1,5.2-4.1
				c7,0.1,11.9,0.3,15.7,0.4c3,0.1,5.5-2.4,5.5-5.4c-0.1-16.4-0.3-33.7,1.5-39.7c0.4-1.3,0.3-2.6-0.2-3.8l-4.9-10.9
				c-0.3-0.7-0.4-1.4-0.5-2.1C378.7,105.4,327.8,54.8,265,54.8s-113.8,50.6-114.3,113.3c0,0.7-0.1,1.3-0.4,2l-5,12.3
				c-0.3,0.6-0.4,1.3-0.4,2c0,26.5-0.3,32.4-0.4,39.7c0,3,2.4,5.5,5.4,5.4c5.8-0.1,11.4-0.2,19.6-0.2c2.5,0,4.6,1.7,5.2,4.1
				c7.5,30.9,29,42.8,54.6,55.2c1.8,0.9,3,2.8,3,4.8v17.5c0,2.7-2,4.9-4.7,5.3C165.2,324.3,117,377.7,117,442.3v56.5
				c0,8.5,6.9,15.3,15.3,15.3h265.3c8.5,0,15.3-6.9,15.3-15.3v-56.5C413,376.1,362.4,321.7,297.8,315.7L297.8,315.7z"/>
			<g>
				<g>
					<path class="st2" d="M413,488.6H117v-71.8c0-70.2,56.9-127.2,127.2-127.2h41.7c70.2,0,127.2,56.9,127.2,127.2L413,488.6z"/>
					<path class="st3" d="M117,424.1h59.3v64.5H117V424.1z"/>
					<path class="st3" d="M353.7,424.1H413v64.5h-59.3V424.1z"/>
					<path class="st4" d="M117,424.1h59.3v21H117V424.1z"/>
					<path class="st4" d="M353.7,424.1H413v21h-59.3V424.1z"/>
					<g>
						<path class="st4" d="M176.3,424.1v-30.8c0-4.6-3.8-8.4-8.4-8.4s-8.4,3.8-8.4,8.4v30.8H176.3z"/>
						<path class="st4" d="M370.4,424.1v-30.8c0-4.6-3.8-8.4-8.4-8.4s-8.4,3.8-8.4,8.4v30.8H370.4z"/>
					</g>
				</g>
				<path class="st5" d="M297.8,245.2v48.3c0,18.1-14.7,32.8-32.8,32.8s-32.8-14.7-32.8-32.8v-48.3H297.8z"/>
				<path class="st6" d="M297.8,245.2v48.3c-10.3,4.1-21.3,6.4-32.8,6.4s-22.5-2.2-32.8-6.4v-48.3H297.8z"/>
				<g>
					<path class="st7" d="M378.3,190.1v29c0,3.1-2.5,5.7-5.7,5.7H155.3c-3.1,0-5.7-2.5-5.7-5.7v-29c0-3.1,2.5-5.7,5.7-5.7h217.3
						C375.8,184.4,378.3,186.9,378.3,190.1L378.3,190.1z"/>
					<path class="st7" d="M379.3,185.4v-41.8c0-63.1-51.2-114.3-114.3-114.3S150.7,80.4,150.7,143.6v41.8L379.3,185.4L379.3,185.4z"
						/>
					<g>
						<circle class="st8" cx="365" cy="179" r="25.6"/>
						<circle class="st8" cx="165" cy="179" r="25.6"/>
					</g>
					<ellipse class="st3" cx="265" cy="179" rx="91.3" ry="104.4"/>
					<path class="st7" d="M301.9,65.4h-77.4c-34.3,0-62.1,27.8-62.1,62.1s72.7,24.8,138-21.6c0,0,15.7,22.3,63.4,28.2v-6.6
						C363.9,93.2,336.1,65.4,301.9,65.4L301.9,65.4z"/>
					<path class="st9" d="M302.9,279.7c26.8-13,47-39.2,54.9-70.9c2.4,0.6,4.8,0.9,7.3,0.9c16.9,0,30.6-13.7,30.6-30.6
						s-13.7-30.6-30.6-30.6c-2.5,0-4.9,0.3-7.3,0.9c-1-3.9-2.1-7.8-3.5-11.6c2.9,0.5,5.9,1,9.1,1.4c2.7,0.3,5.2-1.6,5.6-4.3
						c0.3-2.7-1.6-5.2-4.3-5.6c-44.6-5.5-59.8-26-60-26.2c-0.8-1.1-1.9-1.8-3.2-2c-1.3-0.2-2.7,0.1-3.7,0.9
						c-50.6,36-105.4,28-126.6,22.8c-2.7-0.6-5.4,1-6,3.7s1,5.4,3.7,6c2.3,0.5,4.9,1.1,7.8,1.7c-1.6,4.3-3,8.7-4.1,13.2
						c-2.4-0.6-4.8-0.9-7.3-0.9c-3.2,0-6.4,0.5-9.3,1.5v-6.3c0-60.3,49.1-109.3,109.3-109.3c26.1,0,51.4,9.4,71.2,26.3
						c19.6,16.8,32.6,40,36.7,65.3c0.4,2.7,3,4.6,5.7,4.1c2.7-0.4,4.6-3,4.1-5.7c-4.5-27.6-18.7-53-40.1-71.3
						c-21.6-18.5-49.2-28.7-77.7-28.7c-65.8,0-119.3,53.5-119.3,119.3v11.7c-6.9,5.6-11.3,14.2-11.3,23.7
						c0,16.9,13.7,30.6,30.6,30.6c2.5,0,4.9-0.3,7.3-0.9c7.9,31.7,28.1,57.9,54.9,70.9v6c-31.1,4-59.6,18.9-80.8,42.2
						c-22.1,24.4-34.3,55.9-34.3,88.9v71.8c0,2.8,2.2,5,5,5s5-2.2,5-5v-71.8c0-30.5,11.3-59.6,31.7-82.1
						c19.3-21.3,45.3-34.9,73.5-38.9c1.2,19.8,17.7,35.5,37.7,35.5s36.5-15.7,37.7-35.5c28.2,3.9,54.2,17.6,73.5,38.9
						c20.5,22.5,31.7,51.7,31.7,82.1v71.8c0,2.8,2.2,5,5,5s5-2.2,5-5v-71.8c-0.1-33-12.3-64.6-34.4-88.9l0,0
						c-21.2-23.3-49.8-38.2-80.8-42.2V279.7 M365,158.4c11.4,0,20.6,9.2,20.6,20.6s-9.2,20.6-20.6,20.6c-1.8,0-3.6-0.3-5.3-0.7
						c1.1-6.5,1.6-13.1,1.6-19.9c0-6.8-0.5-13.4-1.6-19.9C361.5,158.7,363.2,158.4,365,158.4L365,158.4z M165,199.6
						c-11.4,0-20.6-9.2-20.6-20.6s9.2-20.6,20.6-20.6c1.8,0,3.6,0.3,5.3,0.7c-1.1,6.5-1.6,13.2-1.6,19.9c0,6.8,0.6,13.4,1.6,19.9
						C168.6,199.4,166.8,199.6,165,199.6L165,199.6z M292.8,283.7v9.7c0,15.4-12.5,27.9-27.8,27.9l0,0c-15.3,0-27.8-12.5-27.8-27.8
						v-9.7c3.2,1.1,6.4,2,9.8,2.7c0.4,0.1,0.7,0.1,1.1,0.1c2.3,0,4.4-1.6,4.9-3.9c0.6-2.7-1.1-5.4-3.8-5.9
						c-40.8-8.8-70.4-49.8-70.4-97.7c0-14.5,2.6-28.4,7.8-41.4c6.9,0.9,14.7,1.5,23.4,1.5c25.9,0,58.4-5.6,89.8-26.7
						c5.5,5.6,18.6,16.1,42.8,22.6c5.9,13.7,8.9,28.5,8.9,43.9c0,47.9-29.7,89-70.6,97.7c-2.7,0.6-4.4,3.2-3.9,5.9
						c0.5,2.4,2.6,4,4.9,4c0.3,0,0.7,0,1-0.1C286.3,285.8,289.6,284.8,292.8,283.7"/>
					<path class="st4" d="M383.7,327.9c-21.2-23.3-49.7-38.2-80.7-42.2c-1.6,0-0.1-6-0.1-6s-7.8,3.8-10.1,4l0,9.7
						c0,15.4-12.5,27.9-27.8,27.9s-27.8-12.5-27.8-27.8l0-9.7l-9.8-4.1c0,0.1,0,4.3,0,6c0,0-3.5,0.5-3.9,0.6
						c-29.6,4.7-56.6,19.3-76.9,41.6c-22.1,24.4-34.3,55.9-34.3,88.9v71.8c0,2.8,2.2,5,5,5c2.8,0,5-2.2,5-5v-71.8
						c0-30.5,11.3-59.6,31.7-82.1c19.3-21.3,45.3-34.9,73.5-38.9c1.2,19.8,17.7,35.5,37.7,35.5s36.5-15.7,37.7-35.5
						c28.2,3.9,54.2,17.6,73.5,38.9c20.5,22.5,31.7,51.7,31.7,82.1v71.8c0,2.8,2.2,5,5,5s5-2.2,5-5v-71.8
						C418,383.8,405.8,352.2,383.7,327.9z"/>
					<path class="st4" d="M303,285.7c0-1.7-0.1-6-0.1-6l-10.1,4"/>
					<path class="st4" d="M302.9,279.7c-6.5,3-6.5,3-10.1,4"/>
				</g>
			</g>
		</g>
		<path class="st10" d="M294.9,212.9c0,17.1-13.9,31-31,31s-31-13.9-31-31"/>
	</g>
</g>
</svg>
