<?xml version="1.0" encoding="UTF-8"?> <svg xmlns="http://www.w3.org/2000/svg" viewBox="0 0 421.7 304.14"><defs><style>.d{fill:#005386;}.e{fill:#fff;}.f{fill:#ffb900;}.g{fill:#d2ecfc;}.h{fill:#29a9e1;}</style></defs><g id="a"></g><g id="b"><g id="c"><g><path class="e" d="M39.23,303.48S-55.49,107.53,49.44,47.01c51.89-29.92,106.98,14.32,176.18-27.56,20.76-12.56,79.81-31.96,129.97-8.27,73.97,34.92,95.01,184.7,15.46,291.53l-331.83,.77Z"></path><g><path class="h" d="M323.87,178.56l-221.27-.43c-1.22,0-2.22-1.42-2.22-3.16v-.37c0-1.74,1-3.16,2.22-3.16l221.27,.43c1.22,0,2.22,1.42,2.22,3.16v.37c0,1.74-1,3.16-2.22,3.16Z"></path><path d="M102.6,178.53c-1.44,0-2.61-1.6-2.61-3.56v-.37c0-1.96,1.17-3.56,2.61-3.56l221.26,.43c1.44,0,2.61,1.6,2.61,3.56v.37c0,1.96-1.17,3.56-2.61,3.56h0l-221.27-.43Zm-1.82-3.93v.37c0,1.5,.83,2.77,1.82,2.77l221.27,.43c.99,0,1.82-1.27,1.82-2.77v-.37c0-1.5-.83-2.77-1.82-2.77l-221.27-.43c-.99,0-1.82,1.27-1.82,2.77Z"></path><polygon class="h" points="92.78 303.74 86.08 303.74 116.96 178.19 123.65 178.19 92.78 303.74"></polygon><path d="M116.59,178.1l.07-.28h7.46l-30.99,126.02-.07,.28h-7.46l30.99-126.02Zm6.58,.46h-5.93l-30.69,124.81h5.93l30.69-124.81Z"></path><polygon class="h" points="323.04 303.74 329.74 303.74 311.27 178.56 304.57 178.56 323.04 303.74"></polygon><path d="M304.11,178.17h7.5l18.58,125.97h-7.5l-18.58-125.97Zm6.81,.79h-5.9l18.35,124.39h5.9l-18.35-124.39Z"></path></g><g><polygon class="h" points="245.48 165.19 220.99 165.19 226.21 140.41 250.7 140.41 245.48 165.19"></polygon><path d="M225.88,140.02h25.3l-5.39,25.57h-25.3l5.39-25.57Zm24.32,.79h-23.68l-5.05,23.98h23.68l5.05-23.98Z"></path><rect class="e" x="231.75" y="121.13" width=".99" height="3.64" transform="translate(100.49 350.31) rotate(-87.81)"></rect><path class="g" d="M295.03,146.3h-117.01c-3.95,0-7.15-3.2-7.15-7.15l18.64-81.06c.56-4.35,3.2-7.15,7.15-7.15h117.01c3.95,0,7.15,3.2,7.15,7.15l-18.64,81.06c-.93,3.97-3.2,7.15-7.15,7.15Z"></path><path d="M170.47,139.14v-.04l18.64-81.09c.6-4.61,3.49-7.48,7.54-7.48h117.01c4.16,0,7.55,3.39,7.55,7.55v.05l-18.65,81.11c-1.11,4.74-3.86,7.46-7.54,7.46h-117.01c-4.16,0-7.55-3.39-7.55-7.55ZM313.67,51.32h-117.01c-3.69,0-6.22,2.55-6.76,6.81v.02l-18.64,81.04c.02,3.71,3.05,6.72,6.76,6.72h117.01c4.49,0,6.17-4.29,6.77-6.85l18.63-81.02c-.02-3.71-3.05-6.72-6.76-6.72Z"></path><polygon class="h" points="295.38 134.06 178.78 134.06 197.42 57.38 314.02 57.38 295.38 134.06"></polygon><path d="M197.04,57.29l.07-.3h117.41l-18.83,77.47h-117.41l18.76-77.16Zm116.48,.49h-115.78l-18.45,75.89h115.79l18.45-75.89Z"></path><polygon class="d" points="216.8 128.39 217.94 128.39 225.57 128.42 226.22 128.42 251.51 128.52 262.65 128.56 263.42 128.57 264.68 128.57 264.75 128.57 268.09 128.59 268.1 128.59 268.97 128.59 269.45 128.59 275.46 128.61 275.62 128.61 277.36 128.62 280.49 128.63 280.94 128.63 280.99 128.64 286.16 128.65 289.63 128.67 306.38 63.05 233.55 62.77 218.04 123.54 217.18 126.88 216.8 128.39"></polygon><rect class="d" x="207.91" y="165.09" width="50.6" height="6.56"></rect><path d="M207.51,164.7h51.39v7.35h-51.39v-7.35Zm50.6,.79h-49.8v5.76h49.8v-5.76Z"></path><rect class="d" x="248.37" y="39.72" width="17.2" height="6.56"></rect><path d="M247.98,39.32h17.99v7.35h-17.99v-7.35Zm17.2,.79h-16.41v5.77h16.41v-5.77Z"></path><path d="M239.95,140.32c0,1.58-1.28,2.87-2.87,2.87s-2.87-1.28-2.87-2.87,1.28-2.87,2.87-2.87,2.87,1.28,2.87,2.87Z"></path><path d="M216.29,128.78l9.93,.04,63.72,.24,.08-.3,16.87-66.11-73.64-.28-.08,.3-16.87,66.1Zm73.03-.51l-35.66-.14,16.67-64.82,35.54,.14-16.55,64.83Zm-72.01-.28l16.55-64.82,35.66,.14-16.67,64.82-35.54-.14Z"></path><rect x="225.14" y="95.33" width="72.9" height=".79"></rect><polygon class="h" points="259.83 46.27 258.9 50.92 253.12 50.92 253.97 46.27 259.83 46.27"></polygon><path d="M253.64,45.88h6.67l-1.09,5.44h-6.59l1-5.44Zm5.71,.79h-5.05l-.71,3.86h4.99l.77-3.86Z"></path><path d="M255.1,43.17c0,1.05,.85,1.9,1.9,1.9s1.9-.85,1.9-1.9-.85-1.9-1.9-1.9-1.9,.85-1.9,1.9Z"></path><path d="M201.66,65.82h22.58c.22,0,.4-.18,.4-.4s-.18-.4-.4-.4h-22.58c-.22,0-.4,.18-.4,.4s.18,.4,.4,.4Z"></path><path d="M207.43,70.59h11.04c.22,0,.4-.18,.4-.4s-.18-.4-.4-.4h-11.04c-.22,0-.4,.18-.4,.4s.18,.4,.4,.4Z"></path><path d="M192.67,117.93c0-4.6,3.74-8.34,8.34-8.34s8.34,3.74,8.34,8.34-3.74,8.34-8.34,8.34-8.34-3.74-8.34-8.34Zm.79,0c0,4.16,3.39,7.55,7.55,7.55s7.55-3.39,7.55-7.55-3.39-7.55-7.55-7.55-7.55,3.39-7.55,7.55Z"></path><path class="f" d="M200.91,115.46c1.77,.04,3.91,.55,4.94,1.19,1.31,.81,1.29,2.08,1.22,3.05-.03,.5-.49,.81-.97,.66l-2-.53c-.4-.12-.67-.54-.62-.95l.24-1.13c0-.08-.06-.16-.14-.15-.52,.03-4.78,.01-5.3-.06-.08-.01-.15,.06-.12,.15l.23,1.1c.12,.47-.16,.91-.62,.97l-1.84,.46c-.45,.05-.88-.3-.95-.76-.33-2.26,.74-3.12,1.61-3.41,.57-.19,2.8-.62,4.32-.59Z"></path></g><g><path class="f" d="M291.43,162.89c1.55,2.46,3.91,3.85,6.54,3.85,.15,0,.31,0,.46-.02,2.11,2.86,5.51,4.72,9.34,4.72h0c6.41,0,11.6-5.19,11.6-11.6v-7.04h-23.2v3.12c-1.11-.7-2.6-1.4-3.86-1.19-.76,.13-1.35,.56-1.76,1.28-.96,1.69-.6,4.52,.88,6.88Zm-.19-6.49c.29-.51,.68-.8,1.2-.89,1.18-.2,2.7,.65,3.73,1.36v2.97c0,2.24,.64,4.33,1.73,6.1-2.32-.02-4.42-1.27-5.8-3.47-1.31-2.09-1.67-4.64-.86-6.07Z"></path><path class="e" d="M312.09,168.53c.09,0,.17-.02,.25-.07,5.33-2.94,4.69-11.89,4.66-12.27-.02-.29-.27-.51-.57-.48-.29,.02-.51,.28-.48,.57,0,.09,.61,8.65-4.12,11.27-.25,.14-.35,.46-.21,.72,.1,.17,.28,.27,.46,.27Z"></path><path d="M302,150.95c.1,0,.2-.04,.28-.11,2.14-2.13,2.88-3,2.84-5.62-.04-2.43-1.17-3.48-2.28-4.49-.76-.7-1.47-1.35-1.83-2.48-.83-2.59,2.72-5.27,2.76-5.3,.18-.13,.21-.38,.08-.55-.13-.18-.38-.21-.55-.08-.17,.12-4.04,3.04-3.04,6.17,.42,1.32,1.25,2.08,2.05,2.82,1.02,.94,1.99,1.83,2.02,3.92,.04,2.32-.55,3.01-2.61,5.05-.15,.15-.16,.4,0,.56,.08,.08,.18,.12,.28,.12Z"></path><path d="M312.31,150.95c.1,0,.2-.04,.28-.11,2.14-2.13,2.88-3,2.84-5.62-.04-2.43-1.18-3.48-2.28-4.49-.76-.7-1.47-1.35-1.83-2.48-.83-2.59,2.72-5.27,2.76-5.3,.18-.13,.21-.38,.08-.55-.13-.18-.38-.21-.55-.08-.17,.12-4.04,3.04-3.04,6.17,.42,1.32,1.25,2.08,2.05,2.82,1.02,.94,1.99,1.83,2.02,3.92,.04,2.32-.55,3.01-2.61,5.05-.15,.15-.16,.4,0,.56,.08,.08,.18,.12,.28,.12Z"></path><path d="M306.8,148.86c.1,0,.2-.04,.28-.12,2.14-2.13,2.88-3,2.84-5.62-.04-2.43-1.18-3.48-2.28-4.49-.76-.7-1.47-1.35-1.83-2.48-.83-2.59,2.72-5.27,2.76-5.3,.18-.13,.21-.38,.08-.55-.13-.18-.38-.21-.55-.08-.17,.12-4.04,3.04-3.04,6.17,.42,1.32,1.25,2.08,2.05,2.82,1.02,.94,1.99,1.83,2.02,3.92,.04,2.32-.55,3.01-2.61,5.05-.15,.15-.16,.4,0,.56,.08,.08,.18,.12,.28,.12Z"></path></g><g><path d="M239.27,98.97c1.1,.05,3.78,.12,3.9,2.07,.14,2.23-.05,5.11-.18,6.63-.05,.6-.53,1.07-1.13,1.11l-6.73,.43c-.62,.04-1.17-.39-1.27-1-.37-2.05-.94-6.43-.74-7.11,.69-2.29,4.41-2.22,6.16-2.14Z"></path><path class="e" d="M241.77,109.34s.14,5.22,.64,5.79c.5,.56,3,1.76,3,1.76l-7.9,5.72-5.29-3.47s2.59-2.63,2.8-3.33c.28-.97-.1-6.03-.1-6.03l6.84-.44Z"></path><path d="M237.53,123.09l8.66-6.27-.6-.29c-.94-.45-2.55-1.3-2.88-1.67-.25-.37-.48-3.16-.54-5.54,0-.22-.18-.4-.41-.38-.22,0-.39,.19-.38,.41,.04,1.61,.2,5.43,.74,6.04,.39,.44,1.73,1.16,2.54,1.56l-7.14,5.18-4.66-3.06c.83-.85,2.37-2.51,2.56-3.15,.3-1.01-.05-5.65-.09-6.17-.02-.22-.21-.38-.42-.36-.22,.02-.38,.21-.36,.42,.15,1.93,.31,5.23,.12,5.89-.11,.38-1.49,1.93-2.7,3.16l-.34,.34,5.92,3.89Z"></path><path class="e" d="M239.17,111.27c-1.9,.34-4.3,.14-5.01-.48-.41-.36-.67-1.89-.82-3.64,0-.05-.25-6.27-.25-6.27l8.54-.55s.1,1.88,.16,4c0,.09,.11,.15,.19,.1,.43-.29,1.04-.54,1.11,.25,.09,.98-.76,1.65-1.19,1.89-.05,.03-.07,.07-.07,.13,0,1.5-.06,2.79-.24,3.26-.1,.26-.3,.48-.57,.66l-1.83,.65Z"></path><path d="M237.22,111.83c.69,0,1.4-.06,2.02-.17,.21-.04,.36-.24,.32-.46-.04-.21-.25-.36-.46-.32-1.94,.35-4.15,.08-4.68-.39-.07-.06-.44-.52-.69-3.37,0-.1-.15-3.68-.23-5.86l7.76-.5c.03,.66,.1,2.07,.14,3.59,0,.19,.11,.36,.28,.44,.17,.09,.37,.08,.52-.03,.25-.17,.41-.21,.46-.22,.01,.02,.03,.07,.03,.17,.08,.9-.88,1.45-.99,1.51-.17,.1-.28,.28-.28,.47,0,2.23-.14,2.92-.21,3.12-.06,.17-.2,.33-.42,.47-.18,.12-.23,.37-.11,.55,.12,.18,.37,.23,.55,.11,.36-.24,.6-.53,.72-.85,.11-.29,.25-.94,.26-3.26,.67-.41,1.35-1.2,1.27-2.2-.04-.51-.28-.72-.47-.81-.24-.11-.51-.1-.84,.04-.06-1.91-.15-3.54-.15-3.56l-.02-.4-9.33,.6,.02,.39c.16,4.13,.25,6.25,.25,6.29,.26,2.94,.65,3.63,.96,3.9,.58,.51,1.93,.75,3.32,.75Z"></path><path d="M241.83,106.54s-.24,.27-.73,.82c-.57,.64-6.26,.68-6.68,.5-.91-.39-.73-1.17-1.05-1.08-.4,.11,.31,4.1,.77,4.63,.46,.54,4.59,.47,6.77-.12,1.81-.49,.93-4.75,.93-4.75Z"></path><path d="M241.67,100.77s-6.26,2.25-9.29,.19c-3.03-2.06,1.55-2.44,4.32-2.34,2.77,.1,6.67,.41,4.96,2.15Z"></path><path class="e" d="M251.64,128.46c-1.65-4.6-4.49-10.95-7.66-11.88-.11-.03-2.62,.56-4.44,.9-.41-.39-1.02-.44-1.84-.05,0,0,0,0-.01,0-.08,.04-3.49-.67-3.6-.68-1.35-.17-9.68,9.43-10.77,11.67,0,.01,28.33,.05,28.33,.05Z"></path><path d="M251.64,128.85s-7.08,0-14.16-.02c-3.54,0-7.08-.01-9.74-.02-1.33,0-2.43,0-3.21,0h-.9c-.38,0-.71,0-.71-.4v-.09l.04-.08c.93-1.92,9.39-12.12,11.17-11.89,.04,0,.14,.02,.81,.16,.76,.15,2.29,.46,2.68,.52,.99-.45,1.64-.27,2.04,.02,.82-.16,1.77-.36,2.55-.53,1.74-.37,1.75-.37,1.9-.33,3.29,.97,6.13,7.13,7.92,12.13l.19,.53h-.56Zm-9.28-11.56c-.84,.18-1.88,.4-2.75,.56l-.2,.04-.15-.14c-.11-.11-.45-.43-1.4,.02l-.08,.04h-.03c-.18,.03-.64-.06-2.98-.53-.4-.08-.7-.14-.73-.15-1.04,.07-8.15,7.83-10.06,10.88,3.87,.01,23.49,.04,27.09,.04-2.37-6.45-4.9-10.37-7.14-11.09-.21,.03-.9,.18-1.57,.32Z"></path><polygon class="f" points="234.59 128 237.72 128.01 238.02 120.11 239.49 118.46 237.56 117.31 235.63 118.46 236.64 119.94 234.59 128"></polygon><polygon class="e" points="237.57 117.17 240.79 119.33 245.28 116.72 243.13 115.58 237.57 117.17"></polygon><polygon class="e" points="237.57 117.17 235.06 119.02 232.23 117.47 233.64 116.19 237.57 117.17"></polygon><path d="M235.1,119.49l2.48-1.84,3.2,2.14,5.31-3.09-2.92-1.54-5.61,1.6-4.03-1.01-1.97,1.79,3.54,1.94Zm3.4-2.17l4.59-1.31,1.38,.73-3.65,2.13-2.31-1.54Zm-1.84,.04l-1.62,1.2-2.12-1.16,.84-.76,2.91,.73Z"></path></g><g><path class="e" d="M278.19,76.72s.6,5.24,.16,5.81c-.44,.57-3,1.6-3,1.6l4.53,9.14h8.18l1.44-6.71s-4.25-3.28-4.51-3.94c-.36-.92-.43-5.8-.43-5.8l-6.38-.09Z"></path><path d="M288.4,93.68l1.56-7.29-.2-.16c-2-1.55-4.19-3.38-4.38-3.77-.24-.61-.38-3.79-.4-5.65,0-.22-.19-.41-.41-.4-.22,0-.4,.19-.4,.41,0,.51,.08,4.98,.46,5.94,.26,.66,3.05,2.88,4.44,3.96l-1.31,6.15h-7.6l-4.23-8.53c.8-.34,2.37-1.05,2.76-1.56,.47-.61,.15-4.09-.08-6.1-.03-.22-.23-.38-.45-.36-.22,.03-.38,.23-.36,.45,.27,2.34,.44,5.12,.23,5.53-.22,.28-1.63,.98-2.81,1.45l-.41,.16,4.84,9.76h8.76Z"></path><path d="M279.71,66.4c-1.15,.11-3.95,.35-3.9,2.29,.06,2.21,.53,5.05,.81,6.55,.11,.59,.66,1.03,1.29,1.03l7.1,.02c.65,0,1.19-.45,1.24-1.06,.19-2.05,.57-6.38,.29-7.04-.94-2.23-5.02-1.96-6.84-1.79Z"></path><path class="e" d="M284.51,77.73c.37-.37,.49-1.85,.49-3.54,0-.05,.03-.09,.07-.12,.46-.26,1.04-.75,1-1.59-.04-.73-.51-.64-.94-.41-.08,.04-.17-.01-.18-.1-.09-2.04-.26-3.82-.26-3.82l-8.44-.03s.07,1.82,.2,3.85c0,.09,.49,4.95,.7,5.39,.12,.24,.33,.44,.62,.6,0,0,.55,.42,3.62,.43l3.12-.67Z"></path><path d="M281.39,78.81c.22,0,.41-.18,.41-.41,0-.23-.18-.41-.41-.41-2.63,0-3.31-.32-3.39-.36l-.03-.02c-.23-.13-.38-.27-.46-.43-.17-.43-.62-4.72-.66-5.24-.09-1.43-.16-2.76-.18-3.41l7.64,.03c.05,.63,.16,1.97,.22,3.43,0,.18,.11,.34,.27,.44,.16,.09,.35,.09,.51,0,.17-.09,.27-.11,.31-.12,.01,.03,.03,.08,.03,.19,.02,.5-.24,.9-.79,1.21-.17,.1-.28,.28-.28,.47,0,2.8-.33,3.22-.37,3.25-.16,.16-.16,.42,0,.58,.16,.16,.42,.16,.58,0,.28-.28,.6-.95,.61-3.67,.73-.46,1.1-1.12,1.06-1.88-.02-.42-.17-.71-.44-.86-.2-.11-.43-.13-.7-.05-.09-1.85-.24-3.42-.24-3.43l-.03-.37-9.24-.03,.02,.42s.07,1.85,.2,3.87c0,.05,.48,4.99,.75,5.54,.15,.3,.41,.56,.77,.77,.21,.14,1.03,.48,3.83,.49h0Z"></path><path class="f" d="M272.73,85.47c1.02-.68,1.92-1.2,2.65-1.54l-.11-.05,1.85-1.91,4.13,1.91h0l5.43-2.14,2.05,1.64c2.29,1.36,6.62,6.25,9.18,12.34h-31.51c1.1-2.98,3.4-8.29,6.33-10.26Z"></path><path d="M279.17,95.67c-.03,.22,.12,.42,.34,.44,.02,0,.03,0,.05,0,.2,0,.37-.15,.39-.34,.63-4.83,1.28-9.16,1.55-10.96l1.32,1.61,7.26-2.48-3.33-2.66-5.49,2.16-4.23-1.95-2.44,2.53,5.18,2.23,.87-1.04c-.31,2.03-.9,6.04-1.47,10.46Zm-1.96-13.23l3.4,1.57-1.06,1.27-3.59-1.54,1.25-1.3Zm4.69,1.6l4.71-1.85,1.85,1.47-5.37,1.84-1.19-1.46Z"></path><path d="M277.74,69.06c-1.01-.09-2.9-.54-2.68-2.58,.23-2.05,.6-1.29,.6-1.29,0,0,.41,.47,.56,.49,.16,.02-.17,.13,.39-1.56,0,0,1.5-.25,2.13,.74,.63,.99,1.1,.46,1.35-.02,.21-.41,.83,.15,.95,.58,.22,.48,2.52,.31,3.19,.68,1.06,.59,1.43,.84,1.38,2.31,0,.28-.48,3.02-.48,3.02l-.82-2.91s-4.93,.69-6.58,.55Z"></path></g><g><path d="M246.12,65.41s-3.42-.11-5.16,2.86c-.46,.78-.44,.93-.2,1.79,.1,.36-.53,.79-.51,1.29,0,.28,.18,.67,.16,.97-.02,.42-.43,.6-.49,1.03-.04,.27,.37,.53,.31,.8-.06,.28-.59,.47-.66,.73-.1,.35,.16,.6,.16,.94,0,.4-.31,.5-.69,.73-.28,.17,0,1.06-.16,1.23-.15,.15-.59,.41-.64,.57-.13,.37,.15,.64,.11,.84-.07,.31-.66,.42-.76,.7-.09,.27,.14,.71,.21,1.03,.05,.27-.46,.53-.49,.73-.07,.59,.12,.96,.14,1.15,.02,.26-.64,.77-.62,1.09,.29,6.91,18.62,5.59,18.42,.73-.01-.3-.66-.5-.45-.86,.14-.25,.27-.44,.37-.73,.11-.31-.54-.59-.67-.88-.21-.45,.63-.7,.39-1.55-.19-.66-.82-.52-.77-1.05,.04-.42,.49-.97,.41-1.32-.24-1.07-1.16-1.16-.83-1.48,.36-.35,.59-.51,.45-1.26-.06-.32-.54-1.01-.54-1.01,.05-.57,.66-.89,.44-1.78-.31-1.27-.74-.32-.62-2.28,.02-.35-.6-5.87-7.28-5.01Z"></path><path class="e" d="M249.09,75.92s-.24,5.94-.01,6.25c.78,1.07,3.08,2.01,3.6,2.15,.52,.14-7.96,5.54-7.96,5.54l-5-4.07,1.69-1.52s1.42-.71,2.04-1.36c.62-.64,.93-6.69,.93-6.69l4.72-.31Z"></path><path d="M239.11,85.81l2.07-1.87,.05-.02c.38-.19,1.46-.79,1.93-1.27,.33-.4,.68-3.65,.82-6.43l.02-.35,5.51-.37-.02,.44c-.11,2.63-.16,5.56-.06,6.05,.71,.92,2.8,1.81,3.35,1.96,.17,.04,.29,.18,.31,.34,.05,.31,.1,.65-8.16,5.91l-.24,.15-5.57-4.54Zm9.64-3.41c-.09-.12-.3-.41-.08-6.06l-3.93,.26c-.11,2.01-.4,5.95-1.02,6.59-.6,.62-1.83,1.27-2.1,1.41l-1.3,1.18,4.42,3.6c2.98-1.9,6.17-4.02,7.25-4.88-.94-.37-2.56-1.17-3.24-2.1Z"></path><path class="e" d="M248.56,77.35c.7-.46,2.38-1.86,2.41-2.77,.03-.91-1.01-.81-1.33-.66-.21,.1,0-4.48,0-4.48l-7.08-.38s-1.05,3.93-.8,6.46c.25,2.54,1.44,2.96,3.26,3.27l3.52-1.44Z"></path><path d="M245.04,79.18c.19,0,.36-.14,.39-.33,.04-.22-.11-.42-.32-.46-1.83-.32-2.71-.71-2.94-2.92-.2-2.02,.47-5.04,.71-6l6.36,.34c-.19,4.18-.03,4.29,.17,4.43l.18,.12,.22-.09c.13-.06,.5-.1,.67,.01,.03,.02,.1,.07,.1,.28-.02,.61-1.34,1.86-2.24,2.46-.18,.12-.23,.37-.11,.55,.12,.18,.37,.23,.55,.11,.03-.02,2.54-1.74,2.59-3.09,.01-.42-.14-.76-.45-.96-.28-.19-.65-.23-.97-.19-.03-.73,.02-2.43,.09-3.98l.02-.39-7.79-.42-.08,.31c-.04,.16-1.06,4.03-.81,6.6,.28,2.83,1.73,3.3,3.59,3.62,.02,0,.05,0,.07,0Z"></path><path d="M241.75,68.89s.49,.03,1.36,.36c.2,.08,.33,.71,.55,.81,.25,.11,.71-.17,.99-.05,.28,.13,.41,.52,.7,.67,.23,.12,.63,0,.86,.12,.38,.22,.47,.65,.83,.9,.23,.16,.89,.16,1.08,.36,.37,.36,.37,.94,.51,1.08,.49,.48,.69,.27,.91,.83,0,0,.4-.18,.69-.16,.37,.03,.5,.16,.5,.16l-.41-5.24-8.57,.16Z"></path><path class="h" d="M228.81,95.72h27.86c.46-4.73,.4-9.05-1.03-10.51-1.24-1.28-2.34-1.41-2.94-1.41-1.82,0-9.79,7.38-12.04,.09-.32-1.05-2.79,.26-3.48,.81-1.98,1.57-6.48,7.82-8.36,11.01Z"></path><path d="M228.47,95.52c1.92-3.27,6.42-9.51,8.46-11.12,.46-.37,2.43-1.56,3.49-1.24,.31,.09,.53,.31,.62,.62,.45,1.45,1.13,2.34,2.08,2.72,2.01,.81,4.88-.79,6.97-1.96,1.18-.66,2.03-1.13,2.6-1.13h0c1.16,0,2.24,.51,3.23,1.53,1.34,1.38,1.71,4.92,1.14,10.83l-.03,.36h-28.91l.35-.6Zm26.88-10.03c-.84-.87-1.71-1.29-2.66-1.29h0c-.36,0-1.31,.52-2.22,1.03-2.23,1.24-5.29,2.95-7.65,2-1.18-.47-2.03-1.56-2.55-3.22-.01-.05-.03-.07-.1-.09-.57-.17-2.15,.62-2.76,1.1-1.79,1.42-5.85,6.97-7.91,10.31h26.8c.61-6.68-.17-9.04-.95-9.84Z"></path></g><g><path d="M278.11,102.28c4.84-2.9-1.58-5.91-3.15-4.34-1.21,1.21-.52,2.47-.11,3-1.14-.14-2.28,.06-3.23,.72-4.2,2.9-1.81,7.32-1.81,7.32,0,0,1.48,7.63,6.89,4.53,6.43-3.68,4.79-8.82,1.42-11.24Z"></path><path class="e" d="M276.61,110.95s-.28,5.75-.06,6.06c.74,1.04,2.97,1.97,3.47,2.11,.51,.14-8.34,3.44-8.34,3.44l-4.22-2.11,1.64-1.46s1.38-.68,1.99-1.3c.61-.62,.95-6.47,.95-6.47l4.58-.27Z"></path><path d="M266.76,120.54l2.12-1.89,.05-.02c.37-.18,1.42-.75,1.88-1.22,.32-.39,.68-3.53,.84-6.22l.02-.35,5.37-.32-.02,.44c-.12,2.54-.19,5.38-.1,5.85,.68,.89,2.69,1.77,3.23,1.92,.18,.05,.3,.2,.31,.38,.02,.35,.03,.59-8.62,3.81l-.16,.06-4.9-2.45Zm9.47-3.31c-.09-.12-.29-.4-.03-5.87l-3.79,.22c-.12,1.95-.43,5.76-1.04,6.38-.59,.6-1.78,1.22-2.04,1.35l-1.17,1.04,3.54,1.77c2.92-1.09,6.08-2.32,7.42-2.93-.92-.4-2.3-1.13-2.9-1.96Z"></path><path class="e" d="M276.01,112.66c.68-.44,2.4-2.11,2.43-3,.04-.89-.97-.79-1.28-.65-.21,.09,.13-4.89,.13-4.89l-6.84-.56s-1.15,4.49-.93,6.94c.23,2.46,1.35,3.1,3.14,3.2l3.35-1.04Z"></path><path d="M272.66,114.09c.21,0,.38-.16,.39-.37,.01-.22-.16-.4-.37-.42-1.59-.08-2.55-.57-2.76-2.84-.18-1.98,.58-5.42,.84-6.48l6.11,.5c-.3,4.6-.15,4.7,.05,4.85l.18,.13,.22-.09c.13-.06,.48-.09,.64,.02,.03,.02,.1,.06,.09,.26-.03,.66-1.55,2.22-2.26,2.68-.18,.12-.23,.36-.12,.55,.12,.18,.36,.23,.55,.12,.59-.39,2.56-2.17,2.61-3.31,.02-.41-.14-.74-.43-.95-.27-.18-.61-.23-.92-.2-.01-.78,.08-2.67,.19-4.38l.03-.39-7.56-.62-.08,.32c-.05,.19-1.17,4.59-.94,7.08,.22,2.37,1.27,3.44,3.51,3.55h.02Z"></path><path class="f" d="M263.42,128.23c-.03-1.9,.13-7.15,2.82-8.95,.97-.65,1.57-1.1,2.03-1.34,0,0,.02,0,.02,0,.26-.15,.47-.22,.68-.23,.02,0,.04,0,.07,0,.05,0,.09,0,.14,.02h0c.29,.07,.53,.32,.77,.65,.03,.04,.05,.07,.08,.11,.04,.06,.09,.13,.13,.2h0c.93,1.37,2.11,3.35,6.42,.43,.08-.05,.16-.11,.24-.16,.27-.19,.56-.41,.86-.64,.08-.06,.18-.1,.28-.12,.09-.02,.19-.02,.29-.02,.36,.01,.8,.15,1.22,.31,.39,.15,.77,.33,1.06,.46,1.61,.71,1.63,2.01,1.33,3.23-.29,1.16-.87,2.25-.69,2.68l-.07,1.47-.19,1.9-17.5,.02Z"></path><path class="h" d="M262.56,127.74c.02,.23,.06,.59,.09,.82l6.3,.03c.38-2.73,.7-5.25,.87-7.09h0c.12-1.37,.18-2.44,.14-3.12,0-.06,0-.11-.01-.15-.04-.46-.12-.71-.27-.7-.16,0-.33,.02-.5,.05h0c-.06,0-.13,.02-.19,.03-.23,.04-.46,.1-.69,.18,0,0-.02,0-.02,0-1.33,.46-2.69,1.51-3.68,3.22-.79,1.38-2.27,4.59-2.04,6.72Z"></path><path d="M262.31,128.96l-.05-.33c-.03-.19-.06-.46-.08-.68l-.02-.16c-.23-2.23,1.27-5.53,2.09-6.96,.95-1.65,2.32-2.85,3.85-3.39l.07-.04h.06c.23-.07,.45-.13,.67-.17,.03,0,.06-.01,.09-.02l.03-.03h.15c.17-.02,.34-.04,.5-.04,.59-.01,.65,.77,.68,1.07v.05s0,.07,.01,.1c.03,.67-.01,1.73-.14,3.15v.02c-.16,1.76-.46,4.22-.87,7.11l-.05,.34-6.98-.03Zm7.12-7.49c.13-1.39,.17-2.42,.14-3.06v-.14c-.02-.16-.04-.26-.06-.33-.05,0-.1,0-.15,.02l-.02,.02h-.13l-.14,.02h-.02c-.21,.04-.42,.1-.63,.17l-.06,.02h0c-1.35,.47-2.57,1.55-3.42,3.03-.91,1.58-2.19,4.6-1.99,6.48l.02,.16c0,.1,.02,.2,.03,.31l5.61,.03c.38-2.72,.66-5.04,.82-6.72v-.02Zm.27-3.54h0Z"></path><path class="h" d="M276.34,121.59c.04-.31,.09-.6,.14-.87,.12-.73,.24-1.33,.36-1.78,.14-.56,.27-.9,.4-.97,.08-.04,.17-.08,.26-.1,.14-.04,.29-.05,.46-.05,.37,0,.81,.09,1.25,.22,0,0,5.05,.32,6.34,7.21,.22,1.17,.43,2.32,.62,3.41l-5.16-.02h-.5l-3.13-.02h-1.9c.3-2.79,.59-5.21,.87-7.03Z"></path><path d="M280.98,129.03l-5.95-.02,.05-.44c.31-2.94,.61-5.31,.87-7.04,.04-.31,.09-.6,.14-.87,.13-.76,.25-1.37,.36-1.82,.21-.87,.39-1.11,.59-1.22,.12-.07,.24-.11,.35-.14,.16-.04,.35-.07,.56-.07,.38,0,.83,.08,1.32,.23,.56,.06,5.39,.8,6.65,7.52,.22,1.16,.43,2.31,.62,3.42l.08,.47-5.65-.02Zm-3.4-10.78s-.08,.02-.12,.04c-.03,.05-.12,.23-.25,.74-.11,.43-.23,1.02-.35,1.75-.04,.27-.09,.56-.14,.86h0c-.25,1.64-.53,3.85-.82,6.57l9.78,.04c-.17-.96-.35-1.95-.54-2.94-1.22-6.48-5.78-6.87-5.97-6.88l-.09-.02c-.43-.13-.83-.2-1.13-.2-.14,0-.26,.01-.37,.04Zm-.16,.06h0Z"></path><polygon class="e" points="269.18 121.21 267.39 124.3 268.3 128.59 268.31 128.59 269.18 128.59 269.66 128.6 270.16 121.7 270.38 118.68 270.38 118.67 270.4 118.38 270.54 116.43 269.25 117.69 269.2 117.74 267.27 119.62 268.04 120.13 269.31 120.97 269.18 121.21"></polygon><path d="M268.03,128.93l-1-4.69,1.83-3.16-2.12-1.41,4.22-4.12-.97,13.39h-1.95Zm-.21-9.37l1.95,1.3-2.02,3.5,.83,3.89h.76l.79-10.94-2.32,2.26Z"></path><polygon class="e" points="275.62 128.61 277.36 128.62 278.99 124.95 277.31 121.48 280.32 120.38 279.48 119.47 278.6 118.52 278.26 118.16 277.95 117.81 276.84 116.62 276.78 117.28 276.59 119.1 276.42 120.74 276.34 121.59 275.62 128.61"></polygon><path d="M275.18,129.01l1.36-13.3,4.47,4.84-3.15,1.15,1.57,3.25-1.81,4.07h-2.44Zm1.59-7.76l-.71,6.96h1.05l1.45-3.26-1.79-3.7Zm.38-3.73l-.38,3.73,2.86-1.04-2.48-2.68Z"></path><path d="M269.5,107.19s.7-2.59,3.09-2.5c1.26,.05,2.79,.37,3.49,1.04,.68,.64,1.18,3.32,1.18,3.32l1.22-5.03-7.77-1.32-1.21,4.49Z"></path></g><g><path class="d" d="M362.99,189.22s-8.84,24.48-8.84,34.43-1.78,19.31-9.15,22.29c-7.37,2.99-12.69-1.54-13.94-3.34-1.54-2.21-4.59-16.23,10.47-32.63,5.91-6.44,21.45-20.76,21.45-20.76Z"></path><path d="M330.74,242.83c-.9-1.29-1.98-5.49-1.05-11.28,.81-5.11,3.48-13.04,11.56-21.84,5.86-6.38,21.32-20.64,21.48-20.78l1.19-1.1-.55,1.52c-.09,.24-8.82,24.53-8.82,34.29,0,12.68-3.07,20.1-9.39,22.66-1.81,.73-3.5,1.03-5.04,1.03-4.95,0-8.37-3.07-9.37-4.51Zm11.09-32.59c-15.22,16.57-11.72,30.3-10.44,32.13,1.22,1.75,6.31,6.1,13.46,3.2,5.99-2.43,8.9-9.6,8.9-21.93,0-8.59,6.39-27.52,8.33-33.05-3.74,3.47-15.36,14.33-20.25,19.65Z"></path><path d="M332.45,260.15c.17,0,.33-.13,.34-.31,1.81-16.33,18.59-50.39,18.76-50.73,.09-.17,.01-.38-.16-.47-.17-.09-.38-.01-.47,.16-.17,.34-17,34.51-18.83,50.96-.02,.19,.12,.36,.31,.38,.01,0,.03,0,.04,0Z"></path><path class="d" d="M338.6,160.72s7.54,32.47,3.41,52.18c-4.13,19.72-8.32,27.13-13.59,21.81-5.27-5.32-3.57-39.65,.15-50.47,3.72-10.83,10.03-23.52,10.03-23.52Z"></path><path d="M328.13,235c-3.46-3.5-3.54-17.57-3.41-23.46,.24-11.07,1.64-22.09,3.47-27.42,3.69-10.73,9.99-23.44,10.05-23.57l.49-.99,.25,1.07c.08,.33,7.51,32.78,3.41,52.35-3.16,15.08-6.3,22.6-9.88,23.66-.3,.09-.61,.13-.91,.13-1.13,0-2.29-.6-3.47-1.79Zm.81-50.62c-1.78,5.18-3.19,16.36-3.43,27.18-.26,12.05,.93,20.61,3.18,22.88,1.3,1.31,2.47,1.78,3.59,1.45,3.23-.95,6.28-8.5,9.33-23.07,3.64-17.37-1.91-45.07-3.16-50.91-1.56,3.22-6.45,13.53-9.52,22.46Z"></path><path d="M328.82,260.15h.03c.19-.02,.33-.18,.32-.38-.81-9.97,7.89-75.6,7.98-76.27,.03-.19-.11-.36-.3-.39-.19-.02-.37,.11-.39,.3-.36,2.71-8.8,66.37-7.98,76.41,.01,.18,.17,.32,.35,.32Z"></path><path class="d" d="M300.98,189.77s8.84,24.48,8.84,34.43,1.78,19.31,9.15,22.29c7.37,2.99,12.69-1.54,13.94-3.34,1.54-2.21,4.59-16.23-10.47-32.63-5.91-6.44-21.45-20.76-21.45-20.76Z"></path><path d="M318.82,246.86c-6.32-2.56-9.39-9.98-9.39-22.66,0-9.77-8.73-34.05-8.82-34.29l-.55-1.52,1.19,1.1c.16,.14,15.62,14.41,21.48,20.78,8.08,8.8,10.75,16.73,11.56,21.84,.92,5.79-.16,10-1.05,11.28-1,1.44-4.42,4.51-9.37,4.51-1.54,0-3.23-.3-5.04-1.03Zm-8.6-22.66c0,12.33,2.91,19.5,8.9,21.93,7.15,2.9,12.24-1.44,13.46-3.2,1.28-1.84,4.78-15.56-10.44-32.13-4.89-5.32-16.52-16.18-20.25-19.65,1.94,5.53,8.33,24.46,8.33,33.05Z"></path><path d="M331.52,260.7s.03,0,.04,0c.19-.02,.33-.19,.31-.38-1.83-16.45-18.66-50.62-18.83-50.96-.09-.17-.29-.24-.47-.16-.17,.09-.24,.29-.16,.47,.17,.34,16.94,34.4,18.76,50.73,.02,.18,.17,.31,.35,.31Z"></path><polygon class="f" points="351.57 259.8 310.55 259.8 315.46 303.65 346.91 303.74 351.57 259.8"></polygon></g><g><path d="M72.21,250.02s-10.02,51.16-9.32,53.62c.7,2.46,15.01-52.53,15.01-52.53l-5.7-1.08Z"></path><path d="M87.51,254.6s.16,47.5,1.39,49.08c1.23,1.58,4.22-48.62,4.22-48.62l-5.61-.46Z"></path><path d="M119.66,254.6s-8.09,47.93-6.5,49.12c1.58,1.19,11.61-49.33,11.61-49.33l-5.1,.21Z"></path><path d="M132.83,253.84s16.35,48.79,19.34,49.15c2.99,.35-13.68-49.65-13.68-49.65l-5.66,.51Z"></path><path class="d" d="M78.55,151.57s-23.31-2.96-24.36,7c-1.05,9.96-3.58,84.04,12.18,91.95,15.76,7.91,72.45,3.43,79.3,1.85s5.27-25.57,5.27-25.57l-58.79-7.91-7.3-65.12-6.31-2.2h0Z"></path><path d="M66.19,250.87c-3.73-1.87-6.73-7.45-8.91-16.56-1.77-7.41-3.02-17.16-3.71-28.97-1.2-20.57-.34-41.53,.22-46.81,.19-1.75,1.03-3.23,2.52-4.41,6.21-4.92,21.63-3.03,22.29-2.94l6.62,2.3,7.29,65.06,58.48,7.87,.32,.04,.02,.32c.07,.99,1.52,24.34-5.58,25.98-3.54,.82-23.53,2.7-43.08,2.7-14.89,0-29.53-1.09-36.48-4.58Zm25.6-31.64l-7.3-65.18-6.03-2.1c-.89-.11-15.85-1.81-21.66,2.78-1.31,1.04-2.06,2.34-2.22,3.87-.56,5.25-1.41,26.15-.22,46.68,1.52,26.12,5.73,41.64,12.18,44.88,15.93,7.99,72.83,3.25,79.03,1.81,2.62-.6,4.31-5.1,4.9-13.02,.39-5.29,.16-10.5,.08-11.82l-58.77-7.91Z"></path><path d="M65.81,174.4c-.04-.21,.1-.42,.32-.46,.22-.04,.42,.1,.46,.32,.08,.42,7.51,41.36,7.14,57.12h24.05c.24,0,.43,.19,.43,.43s-.19,.43-.43,.43h-29.62c-.24,0-.43-.19-.43-.43s.19-.43,.43-.43h4.77c.37-15.65-7.05-56.56-7.12-56.97Z"></path></g><g><polygon class="e" points="193.62 272.64 198.25 292.33 185.09 292.33 181.53 279.07 193.62 272.64"></polygon><path d="M180.96,278.82l12.99-6.92,4.93,20.92h-14.17l-3.75-14Zm12.33-5.45l-11.17,5.95,3.35,12.52h12.17l-4.35-18.47Z"></path><path class="f" d="M198.98,291.75s19.03,6.04,19.69,11.02h-34.12v-11.02h14.44Z"></path><polygon class="e" points="147.08 282.7 145.54 292.52 133.08 292.52 134.4 281.83 147.08 282.7"></polygon><path d="M133.97,281.3l13.69,.94-1.69,10.77h-13.44l1.44-11.71Zm12.55,1.85l-11.68-.8-1.19,9.68h11.48l1.39-8.88Z"></path><path class="f" d="M146.26,291.95s19.03,6.04,19.69,11.02h-34.12v-11.02h14.44Z"></path><polygon points="167.19 301.07 167.19 303.93 130.94 303.93 130.94 300.66 167.19 301.07"></polygon><polygon points="183.47 300.69 183.47 303.74 219.73 303.74 219.73 300.47 183.47 300.69"></polygon><path d="M193.71,299.07l-5.47-1.39c-.32-.08-.52-.38-.48-.71,.04-.33,.31-.57,.64-.57h3.86l-5.18-1.43c-.32-.09-.51-.39-.47-.71,.04-.32,.31-.56,.64-.56h5.27c.25,0,.45,.2,.45,.45s-.2,.45-.45,.45h-3.37l5.18,1.43c.32,.09,.51,.39,.47,.71-.04,.32-.31,.56-.64,.56h-3.69l3.47,.88c.24,.06,.39,.31,.33,.55-.05,.2-.24,.34-.44,.34-.04,0-.07,0-.11-.01Zm-6.46-4.45h0Z"></path><path d="M140.57,299.26l-5.47-1.38c-.32-.08-.52-.38-.48-.71,.04-.33,.31-.57,.64-.57h3.86l-5.18-1.43c-.32-.09-.51-.39-.47-.71,.04-.32,.31-.56,.64-.56h5.27c.25,0,.45,.2,.45,.45s-.2,.45-.45,.45h-3.37l5.18,1.43c.32,.09,.51,.39,.47,.71-.04,.32-.31,.56-.64,.56h-3.69l3.47,.88c.24,.06,.39,.31,.33,.55-.05,.2-.24,.34-.44,.34-.04,0-.07,0-.11-.01Zm-6.46-4.45h0Z"></path><path class="e" d="M117.27,99.38s-1.48,15.5-.24,17.21c1.24,1.71,3.32,9.05,3.32,9.05l-6.93,31.1-25.62-2.48,3.76-23.85s6.27-11.9,6.97-13.86c.98-2.71,.98-17.17,.98-17.17h17.74Z"></path><path d="M113.74,157.17l7.02-31.54-.03-.1c-.09-.3-2.12-7.42-3.38-9.17-.84-1.16-.26-11.01,.31-16.94,.02-.22-.14-.41-.36-.43-.22-.02-.41,.14-.43,.36-.15,1.6-1.45,15.7-.16,17.48,1.11,1.54,2.99,7.97,3.24,8.83l-6.83,30.66-24.85-2.4,3.69-23.37c.53-1.01,6.28-11.94,6.97-13.85,.99-2.74,1-16.71,1-17.31,0-.22-.18-.4-.4-.4s-.4,.18-.4,.4c0,.14-.01,14.43-.96,17.04-.69,1.91-6.89,13.69-6.95,13.81l-.03,.06v.06l-3.84,24.26,26.39,2.55Z"></path><path d="M113.74,70.09c3.19,.44,10.97,1.43,10.79,7.16-.21,6.54-1.59,14.92-2.39,19.33-.32,1.74-1.86,2.98-3.62,2.93l-19.75-.64c-1.81-.06-3.29-1.47-3.44-3.28-.5-6.09-1.44-18.97-.66-20.88,2.66-6.51,14.01-5.32,19.06-4.62Z"></path><path class="e" d="M100.16,103.19c-1.03-1.14-1.32-5.54-1.28-10.55,0-.14-.07-.28-.19-.35-1.27-.81-3.1-2.53-2.96-5.01,.12-2.15,1.66-1.65,2.85-.92,.21,.13,.48-.02,.5-.28,.29-6.03,.79-11.3,.79-11.3l23.47,.76s-.22,5.38-.64,11.4c-.02,.27-1.47,14.62-2.07,15.91-.33,.7-.94,1.27-1.74,1.72,0,0-1.55,1.18-10.08,.91l-8.65-2.29Z"></path><path d="M111.27,105.91c6.02,0,7.57-.83,7.83-1.01,.9-.51,1.54-1.15,1.89-1.89,.66-1.39,2.1-15.91,2.11-16.05,.42-5.96,.64-11.36,.64-11.41l.02-.4-24.24-.78-.04,.37c0,.05-.5,5.3-.79,11.22-1.06-.62-1.9-.78-2.5-.47-.52,.27-.81,.86-.85,1.76-.16,2.92,2.14,4.72,3.14,5.36-.04,6.21,.41,9.75,1.39,10.83,.15,.16,.4,.18,.56,.03,.16-.15,.18-.4,.03-.56-.47-.52-1.24-2.54-1.18-10.28,0-.28-.14-.54-.37-.69-.88-.56-2.92-2.15-2.78-4.65,.02-.41,.12-.93,.43-1.1,.34-.18,1,0,1.82,.5,.22,.13,.48,.14,.71,.02,.23-.12,.38-.35,.39-.62,.24-5.05,.64-9.61,.76-10.92l22.7,.73c-.06,1.35-.27,5.97-.62,10.99-.04,.6-1.49,14.61-2.04,15.77-.28,.59-.81,1.11-1.58,1.55l-.05,.03s-1.71,1.09-9.82,.83c-.21-.01-.4,.16-.41,.38,0,.22,.16,.4,.38,.41,.9,.03,1.72,.04,2.47,.04Z"></path><path d="M109.9,88.69c.34,0,.63-.26,.66-.61l.04-.48c.03-.36-.24-.68-.6-.71-.36-.03-.68,.24-.71,.6l-.04,.48c-.03,.36,.24,.68,.6,.71,.02,0,.04,0,.05,0Z"></path><path d="M119.76,89.39c.35,0,.64-.28,.66-.63l.02-.57c.01-.36-.27-.67-.63-.69-.36-.02-.67,.27-.69,.63l-.02,.57c-.01,.36,.27,.67,.63,.69h.03Z"></path><path d="M105.38,85.09c.14,0,.28-.08,.35-.21,1.23-2.33,5.82-.97,5.87-.95,.21,.06,.43-.05,.49-.26,.06-.21-.05-.43-.26-.49-.21-.06-5.26-1.56-6.79,1.34-.1,.19-.03,.43,.16,.53,.06,.03,.12,.05,.19,.05Z"></path><path d="M115.21,93.94s.05,0,.07,0c.35-.06,2.09-.43,2.3-1.4,.09-.39-.1-1.41-.55-3.64-.33-1.64-.78-3.88-.67-4.34,.03-.14,.2-.25,.33-.31,.79-.38,2.6-.31,4.4,.55,.2,.1,.43,.01,.53-.19,.09-.2,.01-.43-.19-.53-1.84-.88-3.93-1.11-5.09-.55-.52,.25-.7,.6-.76,.84-.14,.59,.16,2.16,.66,4.68,.27,1.34,.6,3.02,.55,3.32-.06,.3-.93,.66-1.67,.79-.22,.04-.36,.24-.32,.46,.03,.19,.2,.33,.39,.33Z"></path><path d="M117.59,96.72c.26,.32-.88,2.82-2.04,2.68-2.97-.36-4.67-3.87-3.96-3.66,.28,.08,2.15,.65,3.41,.88,1.71,.31,2.3-.26,2.59,.1Z"></path><path d="M95.84,77.6c2.4-4.06-1.49-5.09,.97-7.15,1.47-1.23,4.12-1.13,4.12-1.13l.09,.13c.47-.83,1.26-1.42,2.58-1.24,3.62,.51,4.1-3.08,7.49-2.58,3.4,.5,1.54,1.48,5.04,2.4,3.5,.92,5.27-1.02,6.2,1.75,.92,2.77,3.68,2.12,4.86,4.01,1.18,1.89,.75,4.04-.98,4.72-1.73,.67,.87,2.21-.55,3.71-1.42,1.51-7.25,1.22-8.19-1.07-.94-2.29-1.43-3.85-3.6-4.01-2.17-.16-4.82,.9-6.29,.45-1.46-.45-3.43-2.07-4.24-1.68-.81,.39-1.68,1.73-2.47,1.6-.06-.01-.14-.04-.22-.08-.81,.79-1.57,1.57-1.5,2.96,.09,1.86-4.48-.82-3.31-2.79Z"></path><path d="M133.11,200.64s41.82-1.74,42.88,7.84c1.05,9.58-24.58,77.36-24.58,77.36l-20.1-2.68s14.46-49.7,13.84-53.27c-2.48-14.1-60.28-31.23-60.28-31.23l48.25,1.97Z"></path><path d="M80.46,200.5s-5.87,30.93,22.21,32.84c28.36,1.93,52.48-5.75,58.66-.9,1.81,1.42,16.91,52.6,16.91,52.6l21.99-3.22s-19.69-66.47-23.01-73.42c-3.15-6.59-15.21-7.34-40.87-7.91-25.66-.56-55.89,0-55.89,0Z"></path><path class="f" d="M78,154.77c-2.11,15.6,1.23,48.3,1.23,48.3l57.12-2.15s-10.6-87.7-18.45-88.71c-3.32-.43-6.85,4.06-15.64,0-8.79-4.06-22.15,26.97-24.25,42.57Z"></path><path class="g" d="M197.62,171.44s-7.68-9.46-19.97-5.37c-1.39,.46-3.38,1.47-2.02,5.37h21.99Z"></path><path d="M175.26,171.57c-.59-1.68-.63-3.04-.14-4.05,.54-1.09,1.57-1.55,2.4-1.83,12.41-4.13,20.33,5.4,20.41,5.5l.52,.64h-23.1l-.09-.26Zm2.51-5.13c-.69,.23-1.53,.6-1.94,1.43-.37,.76-.35,1.83,.09,3.17h20.8c-2.01-2.03-8.95-7.93-18.95-4.6Z"></path><path class="e" d="M172.58,170.29c-4.8-.41-25.8,.02-25.8,.02l2.19-8.75s22.42,3.81,24.11,3.33c3.18-.92,5.28-1.99,9.04-2.14,4.98-.19,11.74,1.52,11.67,2.87-.04,.73-8.87-.37-10.58,.32-4.85,1.95-7.21,4.65-10.63,4.36Z"></path><path d="M148.67,161.11l.36,.06c8.97,1.53,22.76,3.68,23.93,3.34,.82-.24,1.57-.48,2.29-.72,2.06-.68,4-1.32,6.84-1.43,4.33-.17,10.37,1.12,11.73,2.51,.24,.25,.36,.51,.34,.78-.04,.69-.92,.72-5.01,.55-2.24-.09-5.04-.2-5.82,.11-1.8,.72-3.27,1.56-4.56,2.3-2.23,1.27-4,2.28-6.25,2.09h0c-4.72-.41-25.55,.02-25.76,.02h-.52l2.4-9.6Zm23.9,9.19h0Zm16.63-4.89c1.46,.06,3.38,.14,4.08,.03v-.02c-1.11-1.12-6.82-2.44-11.15-2.28-2.73,.11-4.54,.7-6.63,1.39-.73,.24-1.49,.49-2.32,.73-1.66,.48-20.39-2.66-23.92-3.26l-1.97,7.9c3.33-.06,20.93-.39,25.32,0h0c2.01,.17,3.68-.78,5.79-1.99,1.32-.75,2.81-1.6,4.66-2.35,.5-.2,1.49-.27,2.69-.27,1.05,0,2.26,.05,3.46,.1Z"></path><path class="f" d="M114.8,122.17s4.86,15.27,11.42,20.13c6.55,4.85,41.27,14.49,41.27,14.49l1.06,14.35s-33.08,.79-39.17-1.86c-7.38-3.21-26.65-13.25-32.17-30.64-5.52-17.38,17.59-16.47,17.59-16.47Z"></path><path d="M164.29,156.28c.18,0,.34-.12,.38-.3,.05-.21-.08-.43-.29-.48-.26-.06-25.82-6.55-36.62-12.69-8.15-4.63-11.71-20.41-11.75-20.57-.05-.21-.26-.35-.47-.3-.21,.05-.35,.26-.3,.47,.15,.66,3.68,16.28,12.13,21.09,10.9,6.19,36.56,12.7,36.82,12.77,.03,0,.06,.01,.1,.01Z"></path><path d="M135.75,170.88c.19,0,.36-.14,.39-.34,.03-.22-.12-.42-.34-.44-17.15-2.33-26.89-12.86-32.05-21.29-5.6-9.16-7.16-17.89-7.17-17.97-.04-.22-.24-.36-.46-.32-.22,.04-.36,.24-.32,.46,.02,.09,1.59,8.94,7.26,18.23,3.34,5.46,7.42,10,12.13,13.51,5.89,4.38,12.79,7.13,20.5,8.18,.02,0,.04,0,.05,0Z"></path></g><path class="d" d="M19.17,304.14H396.75c.22,0,.4-.18,.4-.4s-.18-.4-.4-.4H19.17c-.22,0-.4,.18-.4,.4s.18,.4,.4,.4Z"></path></g></g></g></svg> 